<svg width="386" height="522" viewBox="0 0 386 522" fill="none" xmlns="http://www.w3.org/2000/svg">
<path d="M172.626 324.259C165.732 323.799 159.157 327.77 156.731 329.812L153.731 343.2C153.731 343.2 149.389 366.163 150.544 377.105C150.888 380.359 153.027 382.519 153.027 382.519C154.079 382.309 156.376 382.014 157.891 382.519C159.785 383.15 160.827 385.915 163.456 385.654C171.77 384.829 175.43 383.121 176.923 382.519C178.415 381.918 184.297 383.73 186.258 383.73C188.22 383.73 190.345 382.923 191.162 382.519C196.35 380.4 207.409 375.479 210.138 372.75C212.867 370.021 213.691 367.135 213.762 366.034C213.691 365.358 213.208 363.987 211.843 363.902L214.722 360.17C216.072 357.647 217.6 352.623 212.909 352.708C213.62 350.327 214.254 345.461 209.563 346.143C203.854 346.974 204.061 348.55 198.091 349.616C194.103 350.329 176.74 351.767 169.826 344.989C168.893 342.604 167.586 337.69 169.826 337.118C172.066 336.546 173.318 334.743 173.782 333.923L172.626 324.259Z" fill="white"/>
<path d="M152.758 382.519C153.81 382.309 155.819 382.014 157.334 382.519C159.228 383.15 161.05 385.728 164.38 385.397C170.176 384.823 173.812 383.837 175.177 383.077M211.843 363.901C213.208 363.987 213.691 365.358 213.762 366.033C213.691 367.135 212.867 370.02 210.138 372.75C209.271 373.617 207.563 374.705 205.47 375.854M211.843 363.901L214.722 360.17C216.072 357.647 217.6 352.623 212.909 352.708M211.843 363.901C205.573 367.04 198.091 372.75 193.204 373.492C185.786 374.618 175.136 372.56 168.058 372.75M212.909 352.708C213.62 350.327 214.254 345.461 209.563 346.143C203.854 346.974 204.061 348.55 198.091 349.616C194.103 350.328 176.74 351.767 169.826 344.988C168.893 342.603 167.916 338.42 169.826 337.118C171.758 335.801 172.46 335.222 173.461 334.303L172.925 324.202C166.88 323.799 160.889 326.827 157.829 328.976M212.909 352.708C201.263 363.65 186.08 362.468 171.204 360.988M163.456 378.645C166.995 379.91 176.923 382.519 176.923 382.519C176.923 382.519 184.297 383.73 186.258 383.73C188.22 383.73 190.345 382.923 191.162 382.519C193.809 381.438 197.985 379.627 201.802 377.75" stroke="black"/>
<path d="M167.415 246.576C161.048 245.869 158.481 248.009 158.284 249.048C158.088 250.087 157.316 253.545 161.913 254.859C161.913 254.859 157.839 254.607 156.315 255.979C154.79 257.35 153.71 260.853 158.696 262.588C163.682 264.322 170.303 263.81 182.412 271.613C179.386 272.336 166.715 268.351 160.322 265.433C156.302 264.282 151.866 269.549 157.612 272.958C159.746 274.225 164.623 277.075 166.756 277.91C163.579 277.91 161.943 280.705 163.198 283.023C164.044 284.181 165.177 285.845 170.303 288.211C175.429 290.577 182.146 293.297 184.143 294.05C199.299 292.959 206.765 276.599 207.608 272.788C208.122 270.46 203.813 262.336 198.256 257.983C189.898 251.437 177.658 247.714 167.415 246.576Z" fill="white"/>
<path d="M208.756 271.701C204.12 288.09 191.444 292.667 184.42 294.05" stroke="black"/>
<path d="M184.512 293.445C182.515 292.692 175.429 290.577 170.303 288.211C165.177 285.845 164.044 284.181 163.198 283.023C162.179 281.14 163.067 278.942 165.14 278.184M183.829 271.89C180.487 271.031 176.615 265.433 158.696 262.588C153.482 261.76 154.79 257.35 156.315 255.979C157.839 254.607 161.913 254.859 161.913 254.859C165.031 254.815 172.338 255.38 176.615 257.983C180.892 260.586 186.769 262.138 189.173 262.588M179.291 281.66C175.661 282.207 169.422 279.388 166.756 277.91C164.623 277.075 159.746 274.225 157.612 272.958C151.866 269.549 156.302 264.282 160.322 265.433C165.558 267.823 175.956 271.114 181.21 271.83M159.571 253.709C157.632 252.122 158.132 249.855 158.284 249.048C158.481 248.009 161.048 245.869 167.415 246.576C177.658 247.714 189.898 251.437 198.256 257.983C202.487 261.297 205.858 266.878 207.382 270.394" stroke="black"/>
</svg>
