<svg width="386" height="522" viewBox="0 0 386 522" fill="none" xmlns="http://www.w3.org/2000/svg">
<path d="M174.304 349.418L172.542 320.449L216.817 322.363L210.124 368.796L190.746 377.996L178.806 374.864L174.304 349.418Z" fill="#FF641E"/>
<path d="M195.422 329.74C208.229 329.74 219.417 326.05 218.063 315.831C217.328 314.468 215.61 311.624 214.615 311.156C212.856 306.811 205.034 301.922 195.281 301.922C187.671 301.922 181.918 303.535 179.051 306.05C178.465 306.512 176.912 307.569 176.209 308.04C173.698 310.263 172.232 312.944 172.232 315.831C172.232 323.512 182.614 329.74 195.422 329.74Z" fill="white"/>
<path d="M172.268 316.99L174.304 349.418L178.806 374.864L190.746 377.996L210.124 368.796L217.003 321.993" stroke="black"/>
<path d="M177.297 307.741C177.297 307.741 176.386 312.412 176.386 313.591C176.386 316.249 181.52 324.443 194.914 325.035C207.303 325.035 212.472 322.032 214.591 317.711C215.307 316.251 214.99 311.399 214.99 311.399" stroke="black"/>
<path d="M178.377 306.718C173.732 309.006 172.183 312.944 172.183 315.831C172.183 323.513 182.747 328.85 195.243 329.712C205.595 330.426 219.636 325.235 218.063 315.831C217.656 313.4 215.588 311.297 214.128 310.103" stroke="black"/>
<path d="M214.986 312.916C214.986 317.572 207.629 321.42 196.526 321.42C185.422 321.42 177.028 314.668 177.028 310.012C177.028 305.356 184.178 301.922 195.281 301.922C206.385 301.922 214.986 308.259 214.986 312.916Z" stroke="black"/>
<path d="M191.539 267.37H158.82L151.998 207.342L195.713 206.28L191.539 267.37Z" fill="#FF641E" stroke="black"/>
<path d="M155.68 199.481C155.68 198.417 163.702 197.555 173.598 197.555C183.494 197.555 191.516 198.417 191.516 199.481V202.969C195.811 203.422 198.56 207.425 192.412 209.846C181.913 213.979 160.931 212.652 153.375 208.962C149.857 207.244 151.129 204.079 155.68 203.422L155.68 199.481Z" fill="white"/>
<path d="M191.516 199.481C191.516 200.545 183.494 201.407 173.598 201.407C163.702 201.407 155.68 200.545 155.68 199.481M191.516 199.481C191.516 198.417 183.494 197.555 173.598 197.555C163.702 197.555 155.68 198.417 155.68 199.481M191.516 199.481V202.969M155.68 199.481L155.68 203.422M155.68 203.422C151.129 204.079 149.857 207.244 153.375 208.962C160.931 212.652 181.913 213.979 192.412 209.846C198.56 207.425 195.811 203.422 191.516 202.969M155.68 203.422V205.916C155.68 205.916 154.776 208.334 170.855 208.962C179.742 209.038 190.397 208.138 191.516 205.916V202.969" stroke="black"/>
</svg>
