<svg width="345" height="727" viewBox="0 0 345 727" fill="none" xmlns="http://www.w3.org/2000/svg">
<path d="M69.0576 361.386C66.5761 370.06 55.8923 371.636 51.2412 372.94C51.2412 376.795 66.6631 383.238 78.0176 369.61C76.1007 367.921 74.4983 366.564 73.5322 365.678L69.0576 361.386Z" fill="white"/>
<path d="M51.2412 372.94L51.1062 372.459C50.8904 372.519 50.7412 372.716 50.7412 372.94H51.2412ZM69.0576 361.386L69.4037 361.025L68.805 360.451L68.5768 361.249L69.0576 361.386ZM73.5322 365.678L73.186 366.039L73.1943 366.047L73.5322 365.678ZM78.0176 369.61L78.4018 369.93L78.7131 369.556L78.3481 369.235L78.0176 369.61ZM51.3762 373.422C53.6448 372.786 57.5617 372.044 61.1722 370.381C64.8019 368.709 68.2412 366.057 69.5383 361.524L68.5768 361.249C67.3924 365.389 64.249 367.862 60.7537 369.473C57.2392 371.092 53.4887 371.791 51.1062 372.459L51.3762 373.422ZM73.1943 366.047C74.1642 366.936 75.783 368.308 77.6871 369.985L78.3481 369.235C76.4183 367.535 74.8324 366.192 73.87 365.309L73.1943 366.047ZM50.7412 372.94C50.7412 373.587 51.0608 374.221 51.5462 374.788C52.0368 375.361 52.7328 375.909 53.5791 376.396C55.2733 377.37 57.6296 378.13 60.3347 378.33C65.7622 378.73 72.6161 376.874 78.4018 369.93L77.6335 369.29C72.0647 375.974 65.5303 377.71 60.4083 377.332C57.8385 377.143 55.6298 376.421 54.0775 375.529C53.3006 375.082 52.7031 374.602 52.3059 374.138C51.9036 373.668 51.7412 373.257 51.7412 372.94H50.7412ZM73.8783 365.317L69.4037 361.025L68.7114 361.747L73.1861 366.039L73.8783 365.317Z" fill="black"/>
</svg>
