<svg width="222" height="180" viewBox="0 0 222 180" fill="none" xmlns="http://www.w3.org/2000/svg">
<g clip-path="url(#clip0_694_1765)">
<path d="M82.2833 52.1869C84.2747 49.9263 101.706 48.0083 109.657 48.0083C119.597 48.0083 175.944 49.3439 179.542 49.3439C182.798 49.3439 188.34 51.2016 187.305 53.0991C186.358 61.7466 185.393 80.7311 189.109 87.4891C198.718 104.96 202.901 118.652 204.582 136.556C205.278 143.967 203.612 154.732 190.57 157.367C189.981 157.458 189.375 157.55 188.755 157.641C188.917 158.909 187.349 160.984 187.349 160.984C137.994 171.626 105.587 164.417 95.2347 158.334V156.404C92.3826 155.417 89.8297 154.262 87.6475 152.92C83.1464 150.231 76.1188 143.329 77.6023 135.465C79.1655 127.178 84.8031 106.21 88.7165 87.2466C88.7783 86.9473 92.3161 71.6329 91.8803 70.7386C91.6502 68.6132 90.5926 64.5104 87.6475 60.8668C83.5305 55.7733 81.036 56.3655 82.2833 52.1869Z" fill="white"/>
<path d="M145.563 76.6256C116.713 76.6256 95.2861 74.9569 95.2861 80.2231C93.9946 83.6841 82.8652 126.483 82.188 133.593C81.3416 142.481 82.1289 151.24 104.349 155.473C126.568 159.705 179.896 156.954 188.149 153.991C196.402 151.029 200.333 146.318 200.333 133.593C200.333 112.547 183.801 82.8376 181.403 80.2231C181.403 74.9569 174.414 76.6256 145.563 76.6256Z" fill="black"/>
<path d="M82.2833 52.1869C84.2747 49.9263 101.706 48.0083 109.657 48.0083C111.01 48.0083 113.22 48.033 116.04 48.0757M82.2833 52.1869C82.2833 55.4566 88.7673 54.995 94.6697 55.4731C97.7385 55.7217 102.227 57.0908 106.335 57.6015C135.165 61.1859 164.121 58.6406 179.542 55.7733C184.576 55.0284 186.782 54.0587 187.305 53.0991M82.2833 52.1869C81.036 56.3655 83.5305 55.7733 87.6475 60.8668C90.5926 64.5104 91.6502 68.6132 91.8803 70.7386M187.305 53.0991C188.34 51.2016 182.798 49.3439 179.542 49.3439C178.022 49.3439 167.09 49.1056 154.219 48.8303M187.305 53.0991C186.358 61.7466 185.393 80.7311 189.109 87.4891C198.718 104.96 202.901 118.652 204.582 136.556C205.278 143.967 203.612 154.732 190.57 157.367C189.981 157.458 189.376 157.55 188.755 157.641M95.2347 156.404C92.3826 155.417 89.8297 154.262 87.6475 152.92C83.1464 150.231 76.1188 143.329 77.6023 135.465C79.1655 127.178 84.8031 106.21 88.7165 87.2466C88.7783 86.9473 88.8397 86.6492 88.9009 86.3523M95.2347 156.404V158.334C101.463 165.255 152.234 169.327 187.349 160.984C187.349 160.984 188.917 158.909 188.755 157.641M95.2347 156.404C119.464 164.792 165.281 161.115 188.755 157.641M121.629 48.1689C125.123 48.2313 129.74 48.4068 133.92 48.4909M138.118 48.4909C141.874 48.5682 145.718 48.6492 149.479 48.7292" stroke="black"/>
<path d="M89.0274 85.0164C86.9624 75.3357 89.1189 71.4378 90.7141 70.9831C93.443 73.4998 113.851 72.954 141.253 72.954C163.174 72.954 180.623 70.1328 186.607 68.7221L208.256 67.6733C217.038 67.7754 218.609 68.4506 219.819 72.954C222.838 84.1864 220.82 118.104 219.278 125.817C218.044 131.987 214.669 129.33 213.567 127.273C211.32 118.09 210.734 115.452 209.582 91.6602C209.187 83.5132 208.078 80.6419 205.654 80.6419H190.511C190.511 80.6419 191.012 84.4414 188.93 85.0164C152.842 94.9838 89.0274 89.7922 89.0274 85.0164Z" fill="#FF641E"/>
<path d="M0 171.08H96.8681M67.2434 179.544H178.689" stroke="black"/>
</g>
<defs>
<clipPath id="clip0_694_1765">
<rect width="221.38" height="179.54" fill="white"/>
</clipPath>
</defs>
</svg>
