<svg width="45" height="74" viewBox="0 0 45 74" fill="none" xmlns="http://www.w3.org/2000/svg">
<g clip-path="url(#clip0_694_1779)">
<path d="M5.47659 69.0151C5.46649 69.0047 5.45713 68.9949 5.44848 68.9857L0.540906 9.38046L44.2125 9.38037L37.7012 69.0112C37.6922 69.0232 37.6818 69.0367 37.6699 69.0515C37.5989 69.1405 37.4758 69.279 37.2819 69.4513C36.8944 69.7956 36.2202 70.2779 35.1062 70.7684C32.8752 71.7508 28.8845 72.7638 21.9257 72.7638C14.9687 72.7638 10.796 71.7514 8.3815 70.7633C7.17498 70.2695 6.40728 69.7818 5.9493 69.429C5.72017 69.2525 5.56794 69.1092 5.47659 69.0151ZM5.36617 68.8919L5.3665 68.8923C5.36531 68.8908 5.36488 68.8902 5.36518 68.8906L5.36617 68.8919Z" fill="#FF641E" stroke="black"/>
<path d="M4.68023 1.89497C4.68023 0.848406 12.5737 0 22.3108 0C32.0479 0 39.9414 0.848406 39.9414 1.89497V5.32735C44.168 5.77289 46.8728 9.71195 40.8239 12.0934C30.4923 16.161 9.84687 14.8552 2.41203 11.2242C-1.04999 9.53338 0.202446 6.41959 4.6802 5.77289L4.68023 1.89497Z" fill="white"/>
<path d="M39.9414 1.89497C39.9414 2.94153 32.0479 3.78993 22.3108 3.78993C12.5737 3.78993 4.68023 2.94153 4.68023 1.89497M39.9414 1.89497C39.9414 0.848406 32.0479 0 22.3108 0C12.5737 0 4.68023 0.848406 4.68023 1.89497M39.9414 1.89497V5.32735M4.68023 1.89497L4.6802 5.77289M4.6802 5.77289C0.202446 6.41959 -1.04999 9.53338 2.41203 11.2242C9.84687 14.8552 30.4923 16.161 40.8239 12.0934C46.8728 9.71195 44.168 5.77289 39.9414 5.32735M4.6802 5.77289V8.22648C4.6802 8.22648 3.79035 10.6061 19.6114 11.2242C28.3561 11.2989 38.8411 10.4131 39.9414 8.22648V5.32735" stroke="black"/>
</g>
<defs>
<clipPath id="clip0_694_1779">
<rect width="44.77" height="73.26" fill="white"/>
</clipPath>
</defs>
</svg>
