<svg width="208" height="208" viewBox="0 0 208 208" fill="none" xmlns="http://www.w3.org/2000/svg">
<path d="M45.4406 76.9261C47.1783 74.9535 62.3894 73.2798 69.3279 73.2798C78.0009 73.2798 127.171 74.4453 130.311 74.4453C133.152 74.4453 137.988 76.0663 137.085 77.7221C136.258 85.2681 135.416 101.834 138.659 107.732C147.044 122.977 150.694 134.925 152.161 150.548C152.768 157.015 151.314 166.409 139.933 168.708C139.42 168.788 138.891 168.868 138.35 168.948C138.491 170.054 137.123 171.864 137.123 171.864C94.0547 181.151 65.776 174.861 56.7423 169.553V167.868C54.2535 167.007 52.0257 165.999 50.1215 164.828C46.1938 162.481 40.0614 156.458 41.3559 149.596C42.7199 142.365 47.6395 124.067 51.0544 107.52C51.1083 107.259 54.1955 93.895 53.8151 93.1147C53.6144 91.2601 52.6914 87.6799 50.1215 84.5004C46.529 80.0556 44.3522 80.5725 45.4406 76.9261Z" fill="white"/>
<path d="M56.7422 169.553V167.868C77.8849 175.188 117.866 171.979 138.35 168.948C138.491 170.054 137.123 171.864 137.123 171.864C94.0546 181.151 65.7759 174.861 56.7422 169.553Z" fill="black"/>
<path d="M45.4406 76.9261C47.1783 74.9535 62.3894 73.2798 69.3279 73.2798C70.5077 73.2798 72.4368 73.3014 74.8976 73.3386M45.4406 76.9261C45.4406 79.7793 51.0986 79.3766 56.2493 79.7937C58.9271 80.0106 62.8443 81.2054 66.4288 81.651C91.5863 84.7788 116.854 82.5577 130.311 80.0556C134.704 79.4057 136.628 78.5595 137.085 77.7221M45.4406 76.9261C44.3522 80.5725 46.529 80.0556 50.1215 84.5004C52.6914 87.6798 53.6144 91.2601 53.8152 93.1147M137.085 77.7221C137.988 76.0663 133.152 74.4453 130.311 74.4453C128.984 74.4453 119.445 74.2373 108.214 73.9971M137.085 77.7221C136.258 85.2681 135.416 101.834 138.659 107.732C147.044 122.977 150.694 134.925 152.161 150.548C152.768 157.015 151.314 166.409 139.933 168.708C139.42 168.788 138.891 168.868 138.35 168.948M56.7423 167.868C54.2535 167.007 52.0257 165.999 50.1215 164.828C46.1938 162.481 40.0614 156.458 41.3559 149.596C42.7199 142.365 47.6395 124.067 51.0544 107.52C51.1083 107.259 51.1619 106.999 51.2153 106.74M56.7423 167.868V169.553C62.177 175.591 106.481 179.145 137.123 171.864C137.123 171.864 138.491 170.054 138.35 168.948M56.7423 167.868C77.885 175.188 117.866 171.979 138.35 168.948M79.7748 73.42C82.8237 73.4744 86.8519 73.6275 90.5001 73.7009M94.1629 73.7009C97.4408 73.7684 100.795 73.8391 104.077 73.9088" stroke="black"/>
<path d="M51.3256 105.574C49.5236 97.1263 51.4055 93.7249 52.7974 93.3281C55.1788 95.5242 72.9875 95.048 96.8987 95.048C116.028 95.048 131.254 92.5861 136.476 91.3551L155.367 90.4399C163.03 90.529 164.401 91.1182 165.457 95.048C168.091 104.85 166.331 134.447 164.985 141.177C163.908 146.561 160.963 144.243 160.001 142.448C158.04 134.434 157.529 132.132 156.524 111.371C156.18 104.262 155.211 101.757 153.096 101.757H139.882C139.882 101.757 140.319 105.072 138.503 105.574C107.012 114.272 51.3256 109.741 51.3256 105.574Z" fill="#FF641E"/>
<path d="M49.4771 131.147C49.4771 126.551 69.8857 122.826 95.061 122.826C120.236 122.826 144.054 126.273 144.054 130.869C145.322 137.207 147.069 140.207 147.659 149.071C148.398 160.151 145.023 163.178 137.821 165.763C130.619 168.348 84.0848 170.749 64.6955 167.056C45.3061 163.362 44.6191 155.719 45.3577 147.963C45.9486 141.758 48.3502 134.167 49.4771 131.147Z" fill="black"/>
<path d="M143.673 130.996C143.673 126.4 120.236 122.826 95.0606 122.826C69.8853 122.826 49.4768 126.551 49.4768 131.147M143.673 130.996C145.361 135.107 147.098 140.65 147.659 149.071C148.398 160.151 144.691 163.507 137.489 166.092C130.288 168.678 84.8035 171.24 65.4141 167.546C46.0247 163.853 44.6187 155.719 45.3573 147.963C45.9482 141.758 48.3498 134.167 49.4768 131.147M143.673 130.996C143.673 132.964 136.899 137.074 130.638 138.499M49.4768 131.147C49.4768 135.742 69.8853 141.617 95.0606 141.617C105.955 141.617 115.957 140.919 123.798 139.755" stroke="white"/>
</svg>
