<svg width="386" height="522" viewBox="0 0 386 522" fill="none" xmlns="http://www.w3.org/2000/svg">
<g clip-path="url(#clip0_665_1264)">
<path d="M57.5537 481.01C55.2695 489.867 44.4749 511.534 42.8359 522.539H206.624L196.317 436.141L57.5537 436.141C57.5537 453.38 61.2558 466.653 57.5537 481.01Z" fill="white"/>
<path d="M156.345 473.122C150.524 486.218 139.752 513.85 138.028 520.1M42.8359 522.539C44.4749 511.534 55.2695 489.867 57.5537 481.01C61.2558 466.653 57.5537 453.38 57.5537 436.141L196.317 436.141L206.624 522.539H42.8359Z" stroke="black"/>
<path d="M230.691 176.842H206.577L195.636 175.056L190.724 193.588V211.674L188.045 256.33L198.539 269.503L210.228 277.546L223.1 238.914L253.019 200.733L243.195 185.774L237.166 175.056L230.691 176.842Z" fill="white"/>
<path d="M100.848 105.11H109.782L163.975 120.623L166.425 124.327L173.04 130.227L176.86 156.638V192.739L182.005 203.588L197.436 284.882V376.713L215.125 438.813L168.456 442.2L136.089 293.538L123.293 171.974C123.235 165.45 122.252 151.338 118.785 147.083C115.318 142.829 103.023 137.444 97.3082 135.284C93.2625 134.16 85.4193 131.561 81.3737 131.561C77.3281 131.561 74.7255 136.507 72.36 138.487C68.133 142.025 63.2573 146.073 63.2573 146.073L67.113 131.561L70.4104 128.449L68.3542 122.992C68.3542 122.992 74.0718 109.229 82.9058 106.542C88.7059 104.778 95.0849 106.627 100.848 105.11Z" fill="white"/>
<path d="M100.848 105.11H109.782L163.975 120.623L166.425 124.327L173.04 130.227L176.86 156.638V192.739L182.005 203.588L197.436 284.882V376.713L215.125 438.813L168.456 442.2L136.089 293.538L123.293 171.974C123.235 165.45 122.252 151.338 118.785 147.083C115.318 142.829 103.023 137.444 97.3082 135.284C93.2625 134.16 85.4193 131.561 81.3737 131.561C77.3281 131.561 74.7255 136.507 72.36 138.487C68.133 142.025 63.2573 146.073 63.2573 146.073L67.113 131.561L70.4104 128.449L68.3542 122.992C68.3542 122.992 74.0718 109.229 82.9058 106.542C88.7059 104.778 95.0849 106.627 100.848 105.11Z" fill="#FF641E" fill-opacity="0.5"/>
<path d="M29.5323 172.245L64.1663 145.431L76.7132 132.388C76.7132 132.388 81.708 130.473 85.0453 130.814C99.0835 132.249 111.994 138.507 121.093 148.776C126.439 157.78 129.028 166.778 132.33 176.89C138.684 199.132 149.009 251.257 149.917 256.733C155.846 292.501 159.077 305.406 163.471 326.001C163.967 328.328 171.578 373.514 174.948 392.594L188.054 416.273V449.324C188.054 449.324 154.519 458.497 127.044 458.067C96.7398 457.594 83.1302 460.678 49.4395 449.448C44.9159 441.004 47.5547 431.353 49.4395 427.584C48.9369 423.94 47.5547 416.048 46.0468 413.636C44.162 410.62 43.4081 383.174 43.0311 374.054C42.7295 366.759 38.6605 361.429 36.6636 359.676C25.2088 355.193 6.44291 337.264 1.97401 332.284C-1.60111 328.299 0.484376 309.585 1.97401 300.726C3.33951 296.381 6.14498 282.403 6.44291 261.25C6.74084 240.097 21.96 193.099 29.5323 172.245Z" fill="black"/>
<path d="M206.991 272.214L200.731 202.645L194.412 196.326L177.912 229.327L192.657 273.913L206.991 272.214Z" fill="black"/>
<path d="M29.5323 172.245L64.1663 145.431L76.7132 132.388C76.7132 132.388 81.708 130.473 85.0453 130.814C99.0835 132.249 111.994 138.507 121.093 148.776C126.439 157.78 129.028 166.778 132.33 176.89C138.684 199.132 149.009 251.257 149.917 256.733C155.846 292.501 159.077 305.406 163.471 326.001C163.967 328.328 171.578 373.514 174.948 392.594L188.054 416.273V449.324C188.054 449.324 154.519 458.497 127.044 458.067C96.7398 457.594 83.1302 460.678 49.4395 449.448C44.9159 441.004 47.5547 431.353 49.4395 427.584C48.9369 423.94 47.5547 416.048 46.0468 413.636C44.162 410.62 43.4081 383.174 43.0311 374.054C42.7295 366.759 38.6605 361.429 36.6636 359.676C25.2088 355.193 6.44291 337.264 1.97401 332.284C-1.60111 328.299 0.484376 309.585 1.97401 300.726C3.33951 296.381 6.14498 282.403 6.44291 261.25C6.74084 240.097 21.96 193.099 29.5323 172.245Z" stroke="black"/>
<path d="M206.991 272.214L200.731 202.645L194.412 196.326L177.912 229.327L192.657 273.913L206.991 272.214Z" stroke="black"/>
<path d="M218.265 203.433C211.451 207.975 203.356 249.232 207.212 272.305C196.954 290.677 187.144 294.097 182.842 294.243C182.938 295.776 186.307 300.215 187.315 302.058L186.553 382.415L190.396 520.852H385.148C383.401 511.534 340.801 388.144 340.037 382.415C339.426 377.831 327.051 352.495 320.939 340.4C322.787 334.926 325.985 322.296 323.995 315.574C321.508 307.171 328.268 292.809 326.482 280.356C324.697 267.903 326.482 254.91 326.482 249.232C326.482 243.554 319.543 224.312 316.388 220.211C313.234 216.111 276.328 192.137 264.972 194.03C253.616 195.923 226.781 197.755 218.265 203.433Z" fill="white"/>
<path d="M187.314 302.058L186.553 382.415L190.168 520.852H385.148C383.401 511.534 340.801 388.144 340.037 382.415C339.426 377.832 327.05 352.496 320.939 340.401C322.787 334.926 325.985 322.296 323.995 315.574C321.507 307.171 328.268 292.809 326.482 280.356C324.696 267.903 326.482 254.91 326.482 249.232C326.591 246.799 325.336 239.846 319.448 231.505" stroke="black"/>
<path d="M154.203 163.429C153.193 160.853 152.566 156.277 158.143 158.58C158.648 159.489 159.628 161.52 159.506 162.368M161.271 160.49C160.518 158.825 159.607 155.4 161.985 155.02C164.363 154.639 164.878 157.636 164.839 159.182M164.839 197.945C164.165 189.622 162.342 171.334 160.439 164.77C158.537 158.206 153.974 158.611 155.088 160.49C156.203 162.368 161.985 186.335 161.271 199.784M169.476 168.219C169.286 164.413 164.726 159.055 162.309 157.073C161.873 156.835 161.418 158.78 161.985 160.841C163.293 165.598 166.979 160.371 170.546 194.735M131.729 179.117C132.891 182.126 136.859 183.793 142.181 182.537C146.397 181.543 151.099 174.035 155.683 175.536M163.247 174.649H166.728M122.458 148.679C123.917 152.019 127.957 164.77 131.729 164.77M141.006 166.316L154.203 169.574M99.5498 106.028C101.073 105.67 104.951 106.27 108.283 111.537M70.9038 127.188C74.5764 123.067 76.6127 116.371 84.9041 114.09C87.7024 113.32 92.9211 114.09 95.1158 114.09M66.4925 137.978L76.6127 126.452M114.028 115.786C119.677 123.047 133.216 139.275 142.181 144.685C153.389 151.448 152.783 151.095 156.868 155.02M155.683 147.172C155.653 148.694 155.849 151.908 156.868 152.582M164.839 121.913L171.679 128.931M63.0493 146.036C64.1971 141.65 66.4925 132.732 66.4925 132.147C66.4925 131.416 70.2584 128.2 70.2584 128.2M68.1664 124.544C70.845 118.372 77.9426 106.028 84.9041 106.028C93.606 106.028 108.134 104.644 109.162 105.04" stroke="black"/>
<path d="M40.9189 361.302C61.5711 376.939 103.898 386.072 112.863 387.068C121.828 388.064 135.389 387.068 143.033 387.068C149.149 387.068 153.044 384.472 154.227 383.174C152.498 383.811 149.094 382.028 149.312 369.797C149.531 357.566 153.954 337.035 156.138 328.299C148.907 327.57 133.393 321.877 126.754 332.232M126.754 332.232C119.681 325.527 101.192 312.03 83.8171 311.689L70.1132 291.903L73.476 227.4M126.754 332.232C124.278 333.551 112.863 364.63 122.153 374.673M32.323 173.418C39.318 170.135 57.8544 171.049 64.961 188.684M9.21338 317.816C13.1887 310.835 25.0952 296.582 40.9189 295.419M25.5025 317.816L61.5711 297.455M50.3592 341.073C53.0231 331.278 61.376 311.689 73.476 311.689M78.2095 135.023C80.0787 139.517 83.8171 150.512 83.8171 158.539C83.2021 161.465 83.3517 167.443 88.8701 167.945C95.768 168.572 114.267 162.472 121.792 167.945C127.812 172.323 132.035 201.333 133.393 215.29C135.117 226.787 139.457 252.477 143.033 263.263C146.609 274.049 150.638 308.518 152.206 324.404M71.6421 383.174L61.5711 414.067M80.3715 387.068C76.4424 397.522 68.8901 419.377 70.1132 423.16L61.5711 419.159M50.3592 429.343C66.5637 431.647 101.751 436.399 112.863 436.981C123.975 437.563 162.03 433.829 179.668 431.889" stroke="white"/>
<path d="M231.539 74.1832C225.199 72.7867 217.817 72.9964 215.364 74.1832L191.476 83.2628L175.845 120.357C173.289 124.996 169.203 139.338 170.567 146.383C171.93 153.427 173.088 158.593 173.657 159.635L170.567 171.276C170.567 183.352 173.657 192.921 175.413 205.063L194.627 210.04C193.712 208.797 211.822 193.712 209.842 184.624C207.863 175.536 209.057 176.773 207.291 172.553L226.514 169.439L248.598 154.686C244.794 163.371 230.34 172.608 230.965 180.52C231.464 186.849 198.843 210.04 219.468 254.034C221.091 243.268 222.206 227.818 230.965 218.353C240.391 208.167 246.033 205.538 252.524 201.202C260.368 195.963 266.491 193.887 273.907 195.963C279.841 197.623 281.939 199.789 288.706 203.809C297.463 209.009 307.468 211.821 313.133 220.226C317.733 227.05 322.229 237.462 325.39 241.127C324.15 238.263 321.496 230.531 320.809 222.513C319.949 212.49 309.384 200.278 304.736 195.963C300.089 191.647 302.745 183.017 300.753 174.055C298.762 165.092 287.62 160.42 283.183 157.289C276.649 152.676 276.339 144.392 276.102 135.61C275.912 128.585 270.643 122.556 268.032 120.42C267.276 119.748 266.827 117.999 266.697 117.208C266.697 107.566 260.781 92.5095 255.556 87.7236C249.627 82.2916 241.773 76.4372 231.539 74.1832Z" fill="black"/>
<path d="M246.393 132.176C246.935 137.83 249.592 135.11 252.397 137.83C253.811 141.4 253.561 152.584 245.433 156.39L248.7 155.207C248.7 155.207 242.935 164.558 235.608 171.16C229.663 176.516 232.736 178.895 230.4 182.899C228.476 186.197 225.247 190.448 220.839 197.865C216.745 204.753 215.031 210.357 215.031 210.357L208.575 181.144C200.322 179.868 193.03 171.215 188.662 160.545C184.475 142.864 188.662 141.42 188.662 121.981C192.747 105.88 190.204 102.475 201.294 97.7129C207.307 96.3092 209.251 97.5837 210.913 96.8584C213.646 95.6653 217.94 94.4693 223.263 94.9272C241.158 96.4664 245.023 117.887 246.393 132.176Z" fill="white"/>
<path d="M192.953 104.391C189.782 108.033 188.663 117.955 188.854 124.143C188.854 137.121 182.496 151.645 190.278 163.814C195.473 171.938 200.108 179.845 208.575 181.131C212.433 181.717 218.991 178.075 225.548 174.803C233.558 170.818 242.636 165.33 243.349 152.787M195.989 100.739C196.223 99.678 200.116 96.1123 211.109 96.8955M248.48 124.143C247.364 118.46 251.521 108.808 245.193 100.003C239.984 92.7564 218.673 88.9135 210.359 95.0035M208.854 182.048L214.686 210.999" stroke="black" stroke-linejoin="bevel"/>
<path d="M210.326 126.813C209.575 134.033 207.652 137.152 205.538 138.948C203.424 140.743 206.124 144.563 211.37 146.511" stroke="black" stroke-linejoin="bevel"/>
<path d="M212.987 142.512C214.782 142.932 215.432 144.308 215.432 144.842" stroke="black" stroke-linejoin="bevel"/>
<path d="M218.971 118.625C222.167 116.638 229.45 115.645 233.754 119.401" stroke="black" stroke-linejoin="bevel"/>
<path d="M221.372 155.067C216.585 158.25 205.519 160.096 198.784 154.57" stroke="black" stroke-linejoin="bevel"/>
<path d="M205.602 119.338C202.406 117.352 195.123 116.359 190.819 120.115" stroke="black" stroke-linejoin="bevel"/>
<path d="M203.972 132.848C201.476 131.295 195.81 130.531 192.448 133.446" stroke="black" stroke-linejoin="bevel"/>
<path d="M232.124 132.848C229.628 131.295 223.962 130.531 220.601 133.446" stroke="black" stroke-linejoin="bevel"/>
<path d="M249.856 143.264C248.277 143.901 246.456 147.186 246.673 149.758" stroke="black" stroke-linejoin="bevel"/>
<path d="M243.896 157.538C256.795 153.399 255.534 123.528 243.896 143.9" stroke="black" stroke-linejoin="bevel"/>
<path d="M218.431 156.328C211.364 150 211.479 153.769 209.212 153.858C207.162 153.934 204.857 149.872 201.407 155.704" stroke="black" stroke-linejoin="bevel"/>
<path d="M204.322 160.708C206.818 162.261 212.484 163.025 215.846 160.109" stroke="black" stroke-linejoin="bevel"/>
<path d="M252.271 84.8931C262.985 93.3516 265.747 110.8 266.697 117.208M268.032 120.42C270.643 122.556 275.912 128.584 276.102 135.61C276.34 144.392 278.924 154.609 282.722 156.982C286.519 159.356 298.762 165.092 300.753 174.054C302.745 183.017 300.09 191.647 304.737 195.962C309.384 200.278 319.95 212.49 320.809 222.513C321.496 230.531 324.15 238.263 325.391 241.127M250.933 117.208C246.646 125.127 250.933 138.312 255.246 136.738M247.349 156.982C243.545 165.667 225.678 169.813 230.65 198.463M174.898 122.449C172.341 127.088 169.433 139.866 170.796 146.911C172.16 153.955 173.063 159.194 173.632 160.236M182.875 125.351C185.302 138.232 172.053 156.188 170.796 172.104C170.113 180.765 173.632 195.183 174.334 196.84M224.327 90.9343C222.527 85.6152 201.74 79.8623 192.508 98.0234M236.668 92.0896C238.767 89.5188 236.668 82.0317 225.481 79.8623M243.203 95.2288C243.4 92.7 246.085 88.9505 255.246 94.1824M247.65 99.4143C254.361 99.0455 266.529 104.07 261.514 127.118C256.499 150.165 274.772 164.642 284.535 168.999M258.298 195.962C261.654 195.234 269.914 190.166 276.102 175.713M196.382 207.642C199.94 203.319 207.568 195.281 209.917 188.721" stroke="white"/>
<path d="M221.876 273.618C226.622 260.769 235.742 235.455 235.742 229.621C235.395 227.074 233.513 224.01 233.513 224.01C233.513 224.01 241.646 214.804 247.897 211.215L250.141 203.98M207.001 272.062C209.838 272.273 217.141 277.923 218.429 277.923M207.001 272.062C202.365 288.451 189.689 293.029 182.665 294.411L187.3 301.861M207.001 272.062C205.809 261.826 203.306 235.287 216.098 208.741M284.6 316.436C279.09 306.223 266.822 285.315 261.823 283.38C255.575 280.961 248.418 281.114 240.611 280.138C234.563 279.382 221.676 275.432 216.389 274.399M274.235 295.241C277.104 294.309 284.993 293.434 293.598 297.392C302.204 301.351 316.546 313.815 322.642 319.552M281.769 307.451C285.824 309.245 295.199 315.079 300.253 324.063M283.407 329.679C293.311 338.922 311.53 349.214 305.166 316.436M293.598 250.224C302.487 265.266 318.669 294.272 320.571 303.953M247.897 232.695C245.367 239.641 243.848 261.33 255.066 277.272M214.033 275.462C217.488 271.511 218.925 278.557 219.267 283.38C219.866 291.854 217.405 300.425 214.156 307.451M214.033 339.422C220.679 340.292 236.756 343.653 247.897 350.144C259.038 356.634 267.956 359.03 271.022 359.416H300.253C303.259 359.416 310.082 358.779 313.327 356.229C316.572 353.679 319.509 345.121 320.571 341.161M247.897 394.936C260.473 390.083 291.507 380.378 315.032 380.378M316.779 384.454C280.21 385.153 255.621 394.257 247.897 398.721C248.693 403.722 250.746 414.148 252.587 415.847C254.887 417.971 255.772 422.395 268.868 416.909C279.345 412.52 306.387 407.529 318.598 405.583C321.076 405.315 325.819 403.567 324.969 398.721L318.598 386.823" stroke="black"/>
<path d="M104.017 85.9829C104.571 92.6386 108.061 102.562 112.454 107.643C141.21 78.6375 194.797 80.9349 195.402 84.1626C195.886 86.7447 198.464 86.452 199.692 85.9829C214.644 85.9829 220.907 69.4937 218.465 64.1921C216.023 58.8905 213.899 58.8905 213.899 58.8905C217.339 55.4502 219.776 46.0005 220.565 41.7058C221.081 29.6647 213.254 25.1324 207.233 26.8526C206.398 17.6926 197.138 12.2849 192.612 10.7261C186.948 5.39155 179.95 4.66 177.159 4.96104C165.72 -3.01189 154.281 3.2278 141.801 4.96104C131.818 6.34763 127.242 10.8541 126.202 12.934C110.395 16.2618 108.292 25.8755 109.216 30.2664C105.455 31.9806 94.5557 41.9168 101.509 46.6481C103.515 48.0132 104.017 49.4684 104.017 50.0253C103.462 52.2439 99.1636 54.4162 97.0837 55.2251C87.6549 60.2168 98.5858 78.2411 104.017 85.9829Z" fill="black"/>
<path d="M199.798 43.3531C198.073 40.6698 193.088 39.3399 190.373 38.7808C189.616 38.6264 188.179 38.4102 188.491 38.7808C184.574 47.7964 176.369 54.1863 163.775 55.7717C160.414 55.7717 158.17 54.441 156.87 52.9077C152.311 54.6314 146.151 52.9077 138.574 72.6959C136.816 65.5574 132.879 60.5401 128.668 62.0265C127.399 62.4742 124.488 64.1161 124.041 67.2879C123.795 69.028 123.598 71.8628 123.372 73.5304C122.179 82.3307 115.993 106.257 111.337 111.799C139.794 147.095 152.751 153.345 157.123 145.672C156.921 143.855 161.473 128.568 163.775 121.152C165.878 121.393 167.891 121.53 169.984 121.687C180.782 122.495 183.067 118.217 182.831 110.806L183.068 107.721C184.965 107.158 187.373 104.922 186.31 103.783L185.314 103.065C187.519 103.942 188.362 101.343 188.507 99.9339V94.1415V92.3648C189.845 92.6706 191.067 92.8913 192.564 92.8913C195.96 92.8913 196.894 88.4826 195.3 85.6449C195.034 85.0819 195.189 84.0417 195.3 83.592C198.068 72.6469 203.023 71.5624 201.798 66.1248C201.336 61.8936 200.49 47.6682 200.49 45.5072L199.798 43.3531Z" fill="white"/>
<path d="M112.454 107.643C108.061 102.562 104.571 92.6386 104.017 85.9829M104.017 85.9829C98.5858 78.2411 87.6549 60.2168 97.0837 55.2251C99.1636 54.4162 103.462 52.2439 104.017 50.0253M104.017 85.9829C104.017 85.1493 104.017 82.9027 104.017 80.5851M100.176 41.7058C100.176 46.7737 128.051 55.2251 134.664 33.0396M109.216 30.2664C108.292 25.8755 111.078 15.4141 126.885 12.0863M126.885 12.0863C127.925 10.0064 131.818 6.34763 141.801 4.96104C154.281 3.2278 165.72 -3.01189 177.159 4.96104C179.95 4.66 186.948 5.39155 192.612 10.7261M126.885 12.0863C125.486 14.2488 123.561 19.1924 124.92 23.4712M199.692 41.7058C205.931 34.7728 212.656 19.3123 189.639 12.934C182.359 15.8227 166.275 18.827 160.174 7.73425M207.233 26.8525C213.254 25.1324 221.081 29.6647 220.565 41.7058C219.776 46.0006 217.339 55.4502 213.899 58.8905C213.899 58.8905 216.023 58.8905 218.465 64.1921C220.907 69.4937 214.644 85.9829 199.692 85.9829M207.233 36.0984C210.172 37.0301 214.759 40.7858 209.599 48.3545C203.148 57.8154 202.288 58.0304 207.233 68.3513M192.612 26.8525C190.367 37.695 184.625 52.6729 164.335 56.2028C160.221 56.013 152.147 52.9277 153.244 41.7058M110.394 71.164C119.602 72.8381 124.962 64.5716 127.932 62.5855" stroke="white"/>
<path d="M201.489 70.303C200.271 68.8649 198.242 67.2548 196.965 66.4016C195.049 65.1172 195.658 61.7514 200.756 64.4122C201.377 64.7357 201.596 65.039 202.122 65.5522C202.507 68.3249 202.298 69.4299 201.489 70.303Z" fill="black"/>
<path d="M171.707 57.0805C176.041 57.4512 181.917 58.9253 185.199 61.2571C187.082 62.5903 190.01 60.8221 185.708 57.0063C182.357 54.0296 175.577 54.3269 171.707 57.0805Z" fill="black"/>
<path d="M169.671 63.9693C176.449 63.2992 178.087 63.2251 179.055 66.9488" stroke="black" stroke-width="1.5" stroke-linejoin="bevel"/>
<path d="M198.869 74.2496C198.123 71.3782 196.978 70.765 193.385 70.942" stroke="black" stroke-width="1.5" stroke-linejoin="bevel"/>
<ellipse cx="175.719" cy="66.3413" rx="1.82382" ry="2.82167" transform="rotate(20.702 175.719 66.3413)" fill="black"/>
<ellipse cx="195.533" cy="73.6421" rx="1.82382" ry="2.82167" transform="rotate(20.702 195.533 73.6421)" fill="black"/>
<path d="M122.789 74.7371C121.596 83.5374 115.993 106.257 111.337 111.799M123.69 66.2915C123.64 70.4512 128.439 81.7641 133.725 78.3938M131.278 67.857C130.188 68.7083 128.661 70.8436 131.278 72.5741" stroke="black"/>
<path d="M190.373 38.7808C193.088 39.3398 198.073 40.6697 199.798 43.3531M181.721 90.8816C179.896 90.488 177.077 88.1722 179.226 85.0714M185.02 91.4013C187.943 92.0158 189.997 92.8912 192.565 92.8912C195.96 92.8912 196.894 88.4826 195.3 85.6449C193.726 82.842 192.222 77.7967 191.666 73.1502C191.541 72.4082 191.666 68.459 192.565 66.7775M168.275 96.5449C173.593 99.2457 180.586 101.082 185.315 103.065C187.52 103.942 187.987 102.063 188.109 100.321C188.109 100.321 187.089 98.8735 183.698 98.8735C176.459 98.8735 173.107 98.5222 170.575 97.6219M165.977 99.492C165.339 97.6219 165.498 94.7161 169.469 94.7161M171.358 101.04C177.551 105.631 180.643 106.487 182.598 106.396M186.31 103.783C186.641 104.811 185.638 106.252 184.506 106.98C183.675 107.514 183.266 108.137 183.266 108.137C181.297 111.069 186.604 122.208 170.802 121.825C168.579 121.771 165.878 121.393 163.775 121.152M137.801 103.065C141.158 108.982 154.67 120.109 163.775 121.152M163.775 121.152C161.474 128.568 156.921 143.855 157.123 145.672" stroke="black"/>
</g>
<defs>
<clipPath id="clip0_665_1264">
<rect width="385.148" height="521.539" fill="white"/>
</clipPath>
</defs>
</svg>
