<svg width="345" height="727" viewBox="0 0 345 727" fill="none" xmlns="http://www.w3.org/2000/svg">
<g clip-path="url(#clip0_661_981)">
<path d="M109.751 566.067C96.5816 535.965 83.8825 468.342 79.1792 438.292V408.384L155.1 415.923L238.03 408.384L259.139 517.7L249.283 522.953C245.625 539.937 239.406 604.007 243.796 724.412L133.268 689.137C130.916 660.656 122.92 596.168 109.751 566.067Z" fill="white"/>
<path d="M178.733 461.025C161.131 495.083 174.702 549.762 174.702 566.067M178.733 605.907L185.256 696.376M134.065 472.726L158.76 502.567M79.1792 438.292C83.8825 468.342 96.5816 535.965 109.751 566.067C122.92 596.168 130.916 660.656 133.268 689.137L243.796 724.412C239.406 604.007 245.625 539.937 249.283 522.953L259.139 517.7L238.03 408.384L155.1 415.923L79.1792 408.384V438.292Z" stroke="black"/>
<path d="M300.493 457.511C298.653 453.832 300.899 440.601 302.431 435.893C307.829 428.018 323.09 417.917 340.957 440.51C340.299 450.372 338.639 471.083 337.258 475.027C335.878 478.972 328.629 483.081 325.178 484.643H323.419C321.628 486.615 316.713 485.465 315.562 484.643L313.836 486.615C312.85 488.834 306.151 488.341 306.644 484.643C307.038 481.684 308.004 468.877 308.166 460.727L306.762 478.673C305.783 482.478 303.701 481.924 302.526 480.74C300.273 478.471 302.792 462.109 300.493 457.511Z" fill="white"/>
<path d="M302.431 435.893C300.899 440.601 298.653 453.832 300.493 457.511C302.792 462.109 300.273 478.471 302.526 480.74C303.701 481.924 305.783 482.478 306.762 478.673M308.687 456.025C308.526 464.175 307.038 481.684 306.644 484.643C306.151 488.341 312.85 488.834 313.836 486.615C314.625 484.84 315.316 471.576 315.562 465.165M315.562 484.643C316.713 485.465 321.628 486.615 323.419 484.643C326.031 481.767 325.178 470.179 325.178 465.165M325.178 484.643C328.629 483.081 335.878 478.972 337.258 475.027C338.639 471.083 340.299 450.372 340.957 440.51M332.442 463.228L330.48 478.673M306.644 445.972C308.004 447.007 310.859 449.656 311.392 451.964" stroke="black"/>
<path d="M196.168 106.397L119.836 113.274L86.3557 314.609L80.1748 411.676C80.1748 411.676 121.748 435.508 156.061 426.13C187.766 417.465 250.737 418.18 250.737 418.18L231.934 173.088L196.168 106.397Z" fill="white" stroke="black"/>
<path d="M87.1689 401.726C99.0896 405.088 137.212 409.115 151.883 407.648C166.555 406.18 194.159 400.909 210.665 398.77" stroke="black"/>
<path d="M92.5553 137.142L47.1857 158.693C43.1489 164.05 34.8454 176.374 33.9255 182.814C32.7756 190.863 5.3758 243.772 0.674933 290.232C-5.12196 347.524 28.3 355.308 28.3 355.308L50.0375 352.237L59.1037 324.417V358.455L44.7423 451.536L22.4018 606.901C54.2952 608.706 66.2804 618.184 68.2862 622.697V582.455L116.051 580.574L103.264 548.982L87.4674 485.044L82.1219 455.021L95.6596 345.02L107.401 265.401L114.548 195.206L118.518 157.249L129.369 119.16L126.953 106.921H124.383C119.17 106.921 100.993 122.508 92.5553 130.302V137.142Z" fill="black"/>
<path d="M224.594 125.167C222.112 121.059 211.367 111.291 206.304 106.921L194.415 98.7544L189.803 113.818C190.67 118.701 196.178 123.835 198.851 132.895C201.524 141.954 208.434 165.437 208.434 187.093C208.434 216.909 201.001 280.252 198.851 298.016C195.191 328.255 198.851 381.147 210.173 410.139C220.86 439.52 243.48 504.511 248.463 529.428L246.208 580.331L262.373 586.54C263.64 591.145 264.748 595.053 265.593 597.95L308.419 590.163L296.815 543.444C296.815 543.444 289.514 508.426 291.745 476.7C292.502 465.95 289.182 444.751 289.235 433.975C289.332 414.378 285.025 407.062 280.136 388.084C275.97 371.908 272.348 361.374 268.947 345.02C263.112 316.961 262.921 271.881 262.921 271.881L268.947 278.929L266.483 293.356L273.696 302.087L276.733 318.032L286.604 329.042L289.235 361.843L298.931 436.916C298.931 436.916 310.633 430.295 323.461 432.17C332.239 433.453 344.819 439.909 344.819 439.909V373.61L335.121 311.277C325.306 276.563 303.904 200.844 296.815 175.677C287.953 144.219 273.775 146.435 269.787 144.219C265.799 142.004 227.695 130.302 224.594 125.167Z" fill="black"/>
<path d="M298.931 436.916L289.235 361.843L286.604 329.042L276.733 318.032L273.696 302.087L266.483 293.356L268.947 278.929L262.921 271.881C262.921 271.881 263.112 316.961 268.947 345.02C272.348 361.374 275.97 371.908 280.136 388.084C285.025 407.062 289.332 414.378 289.235 433.975C289.182 444.751 292.502 465.95 291.745 476.7C289.514 508.426 296.815 543.444 296.815 543.444L308.419 590.163L265.593 597.95C264.748 595.053 263.64 591.145 262.373 586.54L246.208 580.331L248.463 529.428C243.48 504.511 220.86 439.52 210.173 410.139C198.851 381.147 195.191 328.255 198.851 298.016C201.001 280.252 208.434 216.909 208.434 187.093C208.434 165.437 201.524 141.954 198.851 132.895C196.178 123.835 190.67 118.701 189.803 113.818L194.415 98.7544L206.304 106.921C211.367 111.291 222.112 121.059 224.594 125.167C227.695 130.302 265.799 142.004 269.787 144.219C273.775 146.435 287.953 144.219 296.815 175.677C303.904 200.844 325.306 276.563 335.121 311.277L344.819 373.61V439.909M298.931 436.916C298.931 436.916 310.633 430.295 323.461 432.17C332.239 433.453 344.819 439.909 344.819 439.909M298.931 436.916C298.96 437.696 299.483 439.197 301.335 438.966M344.819 439.909C344.553 441.427 343.414 444.348 340.983 443.885M47.1857 158.693L92.5553 137.142V130.302C100.993 122.508 119.17 106.921 124.383 106.921H126.953L129.369 119.16L118.518 157.249L114.548 195.206L107.401 265.401L95.6596 345.02L82.1219 455.021L87.4674 485.044L103.264 548.982L116.051 580.574L68.2862 582.455V622.697C66.2804 618.184 54.2952 608.706 22.4018 606.901L44.7423 451.536L59.1037 358.455V324.417L50.0375 352.237L28.3 355.308C28.3 355.308 -5.12196 347.524 0.674933 290.232C5.3758 243.772 32.7756 190.863 33.9255 182.814C34.8454 176.374 43.1489 164.05 47.1857 158.693Z" stroke="black"/>
<path d="M93.2672 140.935L97.0285 151.846L73.1363 160.473C75.2696 177.427 79.2503 212.468 79.8326 230.002M68.0852 620.966C68.0852 620.966 60.0782 538.019 63.7571 477.743C66.4304 433.943 79.8893 354.588 79.8893 354.588C79.8045 332.803 79.6978 295.428 79.7179 267.804M88.1965 412.027C84.2618 444.697 68.0852 569.072 68.0852 579.527M101.823 148.404L118.358 140.935M226.057 131.608L231.857 148.404L247.427 160.473C240.147 181.155 224.64 229.606 220.861 257.952C216.136 293.384 200.183 370.883 208.97 402.312M206.503 135.063L226.057 145.808M250.241 532.983L262.142 584.061M30.1392 314.25C30.1392 314.25 37.3291 303.678 50.7055 301.331C56.7215 300.275 65.3233 302.348 65.3233 302.348M39.656 285.331L50.7055 298.951M59.7813 234.789V281.135M47.5131 159.067C52.5565 156.424 55.6931 200.817 56.3321 207.447M273.547 147.332C270.204 166.408 268.802 197.382 268.802 197.382M262.2 272.591C269.021 255.873 275.68 223.86 275.68 223.86" stroke="white"/>
<path d="M109.704 70.1863C110.955 76.5474 117.411 84.1339 117.411 84.1339L127.136 82.7975L191.715 75.6067L203.391 74.1083C207.753 73.4211 209.704 61.3683 208.56 54.3935C207.259 46.466 197.99 23.9579 194.146 18.2761C190.713 13.2022 189.741 10.8397 186.294 5.92487C183.537 1.99301 176.708 1.75588 174.294 1.22001C174.294 1.22001 159.219 -1.42739 147.178 1.62673C133.194 5.17358 125.83 13.108 116.346 20.177C113.631 22.2005 111.357 31.1918 111.02 39.1445C110.476 51.9794 107.625 59.6163 109.704 70.1863Z" fill="#FF641E"/>
<path d="M124.559 91.0976C126.504 95.7919 125.55 108.931 129.208 116.001C129.208 126.418 128.96 131.483 125.873 135.056C116.996 137.31 143.499 252.649 164.96 252.649C186.948 252.649 189.127 140.005 187.38 137.19C183.077 137.19 185.64 121.377 184.592 114.651C190.28 102.74 191.154 97.9485 191.154 92.0582C199.355 91.5233 205.343 79.9482 206.202 71.8875C206.886 65.4713 204.076 61.3992 198.306 66.0479C196.63 62.3348 195.975 56.6866 196.884 51.8389C190.514 41.1513 190.556 31.1076 180.183 24.6566C176.608 22.4337 165.081 27.6896 160.468 27.6895C138.418 24.11 127.761 26.7436 129.208 48.7591C124.559 52.9975 122.217 61.5333 122.217 67.9466C111.112 53.3177 108.231 81.8127 124.559 91.0976Z" fill="white"/>
<path d="M129.008 112.796L101.07 132.824C104.872 135.295 116.139 144.763 116.139 144.763C116.139 144.763 122.442 143.876 123.113 144.763C143.135 171.215 159.209 228.204 159.209 245.684C167.371 222.554 176.541 169.624 190.713 142.818C191.612 141.117 198.339 141.254 198.339 141.254L214.456 127.803C214.456 127.803 196.519 113.543 190.713 111.278L129.008 112.796Z" fill="white" stroke="black"/>
<path d="M186.264 138.787C184.608 133.36 184.095 120.941 184.799 117.402M126.047 136.949C124.581 151.313 174.326 163.549 186.264 140.671M124.986 135.056C120.19 158.9 181.912 164.113 187.348 140.671C187.621 139.494 188.066 137.268 186.264 137.021M190.358 117.402L195.93 137.021M126.047 124.18L117.254 141.674M187.348 133.131L191.608 135.056" stroke="black"/>
<path d="M125.808 135.623C128.544 131.09 129.247 121.718 128.544 118.179" stroke="black"/>
<path d="M192.435 85.3003C186.335 105.849 184.045 112.413 178.343 118.997C162.221 137.613 146.827 135.012 135.907 121.42C125.821 108.867 127.441 94.9398 123.919 86.2953" stroke="black"/>
<path d="M197.331 51.1177C184.273 52.9421 188.843 24.7548 170.959 29.0773" stroke="white"/>
<path d="M198.305 64.1065C191.737 61.7988 189.074 55.7635 189.074 50.2607" stroke="white"/>
<path d="M120.693 64.1065C127.261 61.7988 129.923 55.7635 129.923 50.2607" stroke="white"/>
<path d="M197.25 68.5752C201.164 60.0431 208.048 64.1141 206.009 73.5929C203.971 83.0718 199.684 88.6902 194.73 91.116M198.115 78.9961C198.446 76.4138 199.215 74.5554 200.113 73.2734M203.502 70.8788C202.572 70.9633 201.24 71.6643 200.113 73.2734M200.113 73.2734C200.2 71.0708 202.28 67.6603 203.254 67.2069" stroke="black"/>
<path d="M122.068 68.5752C118.154 60.0431 111.27 64.1141 113.309 73.5929C115.347 83.0718 119.634 88.6902 124.588 91.116M121.203 78.9961C120.871 76.4138 120.103 74.5554 119.205 73.2734M115.816 70.8788C116.746 70.9633 118.078 71.6643 119.205 73.2734M119.205 73.2734C119.118 71.0708 117.038 67.6603 116.064 67.2069" stroke="black"/>
<path d="M143.949 98.9842C146.245 108.476 148.651 119.958 156.152 119.958C163.654 119.958 168.247 107.711 170.696 98.9842C163.236 98.0046 151.453 97.9126 143.949 98.9842Z" fill="black"/>
<path d="M146.096 98.8608C148.669 103.195 166.666 102.512 168.548 98.8608C162.286 98.0385 152.395 97.9612 146.096 98.8608Z" fill="white"/>
<path d="M170.057 99.4073C162.799 98.524 151.841 98.4453 144.564 99.4044C144.624 99.6514 144.683 99.8993 144.743 100.148C145.8 104.548 146.913 109.178 148.554 112.825C150.365 116.846 152.718 119.458 156.152 119.458C159.61 119.458 162.505 116.627 164.886 112.494C167.146 108.57 168.844 103.64 170.057 99.4073Z" stroke="black"/>
<path d="M158.771 64.1079C158.594 67.176 158.771 75.7294 159.63 80.5576C160.493 85.406 161.016 86.5085 160.275 88.9779" stroke="black" stroke-miterlimit="10"/>
<path d="M155.376 89.457C154.241 87.8695 152.528 88.9606 151.325 89.4569" stroke="black" stroke-miterlimit="10"/>
<path d="M163.604 90.347C164.463 89.4107 164.617 88.132 164.617 88.132" stroke="black" stroke-miterlimit="10"/>
<path d="M149.772 90.0467C148.914 89.1104 148.759 87.8317 148.759 87.8317" stroke="black" stroke-miterlimit="10"/>
<path d="M202.471 58.696C200.77 62.2483 200.307 65.3912 199.027 68.2727C198.661 75.512 196.779 87.2084 195.195 94.2994C194.031 99.5134 192.93 105.007 190.384 114.23C188.895 119.627 181.872 125.091 175.021 129.053C171.613 132.026 167.519 134.256 162.979 134.961C159.991 134.99 157.003 134.99 154.015 134.961C149.474 134.256 145.381 132.026 141.972 129.053C135.122 125.09 128.694 119.627 127.205 114.23C126.007 104.005 124.584 97.6324 123.42 92.4185C121.886 85.5468 120.225 77.9052 120.801 70.8339C120.204 65.9759 121.956 61.8235 124.558 63.5633C124.612 64.2685 124.499 70.8882 124.558 71.7853C125.078 79.7013 125.528 89.2565 130.14 98.2165C132.435 101.803 135.126 102.12 138.196 101.843C142.255 99.1612 147.435 92.1294 156.54 92.1294L161.021 92.1294C170.127 92.1294 174.739 99.1612 178.798 101.843C181.868 102.12 184.271 101.803 186.566 98.2165C192.281 89.2842 192.772 78.7498 193.291 70.8339C193.35 69.9367 192.835 52.3353 192.27 50.1379C192.27 50.1379 204.742 53.9539 202.471 58.696Z" fill="black"/>
<path d="M186.032 63.6285C182.48 61.0491 174.941 60.7712 168.523 62.0392C164.277 62.8816 163.087 61.1012 163.773 57.4797C171.129 58.7824 174.577 56.5418 181.472 58.9214C184.338 59.9114 186.032 63.6285 186.032 63.6285Z" fill="black"/>
<path d="M129.653 63.6285C133.205 61.0491 140.744 60.7712 147.162 62.0392C151.408 62.8816 152.598 61.1012 151.912 57.4797C144.556 58.7824 141.108 56.5418 134.213 58.9214C131.347 59.9114 129.653 63.6285 129.653 63.6285Z" fill="black"/>
<path d="M173.866 73.0196C175.527 73.0196 176.874 71.6727 176.874 70.0112C176.874 68.3496 175.527 67.0027 173.866 67.0027C172.204 67.0027 170.857 68.3496 170.857 70.0112C170.857 71.6727 172.204 73.0196 173.866 73.0196Z" fill="black"/>
<path d="M180.282 69.3847C175.888 66.3572 171.123 67.012 169.349 68.2268" stroke="black" stroke-miterlimit="10"/>
<path d="M142.563 73.0196C144.224 73.0196 145.571 71.6727 145.571 70.0112C145.571 68.3496 144.224 67.0027 142.563 67.0027C140.901 67.0027 139.554 68.3496 139.554 70.0112C139.554 71.6727 140.901 73.0196 142.563 73.0196Z" fill="black"/>
<path d="M136.137 69.3847C140.531 66.3572 145.295 67.012 147.07 68.2268" stroke="black" stroke-miterlimit="10"/>
<path d="M146.331 101.984C150.416 105.558 162.98 106.786 170.023 102.624M171.561 105.606C171.342 103.11 169.547 101.316 168.102 100.703" stroke="white" stroke-miterlimit="10"/>
<path d="M154.037 113.923C155.348 113.61 161.723 114.166 162.339 114.426" stroke="white" stroke-miterlimit="10"/>
<path d="M147.932 103.264C150.813 112.229 165.861 110.308 167.782 103.913" stroke="white" stroke-miterlimit="10"/>
<path d="M148.252 102.944C152.414 101.023 154.241 101.436 156.256 101.983C159.174 102.774 160.418 99.7423 168.103 103.519" stroke="white" stroke-miterlimit="10"/>
<path d="M186.293 77.2422C184.937 83.1319 183.42 92.6864 184.234 96.4409M132.19 85.7636C133.471 89.6792 135.005 96.4749 135.005 98.5253" stroke="black"/>
<path d="M123.273 35.4595C114.699 42.8543 110.521 61.1934 113.283 68.7425C113.283 68.7425 116.454 61.332 120.374 69.6134C122.534 74.1742 124.936 80.2689 124.936 80.2689C124.936 80.2689 122.874 63.2537 124.936 55.4796C128.024 43.8362 137.928 47.7356 149.426 43.7443C166.185 37.9272 162.873 24.5083 179.474 25.991C181.136 26.6259 184.999 29.4086 187.159 35.4595C189.86 43.0231 195.883 60.0552 197.96 62.1323C199.622 63.7939 203.914 55.4856 205.853 51.1237C207.792 46.7618 206.828 40.7863 206.828 40.7863C205.101 41.7482 199.854 43.2966 196.58 39.4946C190.487 31.6967 175.721 16.059 163.02 18.1373L162.975 18.1447C146.667 20.8132 138.751 22.1086 123.273 35.4595Z" fill="black" stroke="black"/>
<path d="M191.337 44.6945C195.331 49.6882 207.909 44.1595 206.503 40.4426M124.785 35.0314C126.078 41.8189 133.599 45.739 143.855 44.6945M179.129 26.4065C179.865 26.3342 181.335 25.8676 181.335 24.5793M193.719 52.7016C196.117 53.9563 201.472 56.0892 203.708 54.5836" stroke="white"/>
<path d="M58.2731 297.735C57.1803 277.155 75.4283 248.271 84.8637 239.693C84.0567 239.964 82.5681 240.192 81.3408 239.693C80.7656 239.46 79.3969 238.855 79.0335 238.232C77.61 235.792 76.4734 228.975 79.0335 224.639C82.319 219.076 85.7868 215.27 90.2606 215.067C94.7344 214.864 98.7961 212.415 102.456 212.821C105.385 213.147 111.218 212.55 114.133 212.821C115.895 212.008 120.394 211.845 122.996 212.821C126.25 214.041 132.553 218.312 132.959 222.379C133.285 225.633 132.01 228.751 131.332 229.903C130.655 231.055 128.282 227.121 128.282 227.121V232.945L129.706 236.207L139.1 242.978C139.794 243.779 139.527 246.437 139.527 249C139.527 252.205 132.429 256.181 129.706 257.636C125.962 259.635 116.636 260.096 113.271 259.319C115.148 261.002 119.101 265.837 120.312 267.725C123.664 272.954 121.378 316.917 113.271 331.272C117.022 335.023 126.405 346.489 126.405 352.722C126.405 360.514 118.683 374.071 118.972 378.399C119.261 382.728 117.991 383.014 121.675 387.86C125.883 393.395 126.793 394.819 126.405 397.049C121.801 400.148 112.556 400.893 110.126 382.444C107.729 364.235 105.598 360.515 105.092 359.304C101.907 361.023 99.8974 360.797 98.7298 359.304C101.762 367.943 100.251 369.109 103.231 382.444C106.225 395.84 108.609 396.586 110.126 401.374C111.644 406.162 102.698 412.456 100.322 404.212C97.7639 395.335 95.5222 390.567 92.6496 385.578C89.3282 379.809 83.0846 374.015 78.2286 369.831C75.7207 367.67 73.5829 365.939 72.4089 364.863C50.8315 345.084 59.4224 319.381 58.2731 297.735Z" fill="white"/>
<path d="M61.8311 347.065C62.5521 353.901 69.8702 363.389 73.5325 365.678C74.4987 366.563 76.101 367.921 78.018 369.61C82.9407 373.946 89.938 380.462 93.5631 386.758C96.4357 391.748 98.125 392.929 99.4315 402.074C101.064 413.505 111.04 405.591 109.523 400.804C108.005 396.016 106.605 397.021 103.611 383.625C101.116 372.458 100.854 360.803 95.1762 350.663M114.503 333.529C118.254 337.281 125.757 346.342 125.757 352.575C125.757 360.367 118.543 374.796 118.831 379.124C119.12 383.453 118.899 383.801 122.583 388.647C126.791 394.183 126.703 395.194 124.852 397.286C123 399.378 113.469 402.074 111.04 383.625C108.967 367.88 106.926 361.556 104.735 359.498M117.628 261.668C119.768 263.495 120.644 266.994 121.313 269.977M99.9956 360.147C102.979 359.774 105.816 357.154 106.357 354.18" stroke="black"/>
<path d="M122.996 212.821C120.393 211.845 115.895 212.008 114.133 212.821C116.55 215.212 121.4 220.568 121.461 222.868C121.536 225.744 121.04 229.91 124.294 232.471C126.897 234.52 128.849 235.973 129.705 236.207L128.282 232.945V227.121C128.282 227.121 130.654 231.055 131.332 229.903C132.01 228.751 133.285 225.633 132.959 222.379C132.552 218.312 126.25 214.041 122.996 212.821Z" fill="#FF641E" fill-opacity="0.5"/>
<path d="M95.1391 250.52C88.5735 249.232 86.6103 241.937 86.4494 238.451L84.8636 239.693C84.0565 239.964 82.568 240.192 81.3407 239.693C80.7654 239.46 79.3968 238.855 79.0334 238.232C77.6099 235.792 76.4733 228.975 79.0334 224.639C82.3189 219.076 85.7867 215.27 90.2605 215.067C94.7342 214.864 98.7959 212.415 102.456 212.821C105.049 213.068 108.189 214.011 108.717 213.879C109.462 213.693 117.751 222.447 117.658 225.893C117.564 229.339 122.656 235.071 122.656 236.198C122.656 237.324 118.794 239.738 116.702 240.06C114.61 240.382 116.702 245.531 116.702 248.428C116.702 251.324 112.679 255.347 111.07 255.347C109.461 255.347 103.346 252.129 95.1391 250.52Z" fill="#FF641E" fill-opacity="0.5"/>
<path d="M114.188 228.015C113.75 227.14 110.846 227.043 109.449 227.104C108.446 226.193 113.276 222.912 114.734 224.643C116.193 226.375 114.734 229.109 114.188 228.015Z" fill="black"/>
<path d="M128.078 227.884C127.758 227.243 126.638 225.837 125.615 225.882C124.881 225.215 127.302 223.995 128.369 225.262C129.436 226.53 128.478 228.684 128.078 227.884Z" fill="black"/>
<path d="M138.386 242.396C136.39 239.819 123.575 234.602 122.207 228.929" stroke="black"/>
<ellipse cx="110.204" cy="231.28" rx="1.70418" ry="2.24993" transform="rotate(12.1435 110.204 231.28)" fill="black"/>
<ellipse cx="127" cy="230.84" rx="1.04419" ry="2.24993" transform="rotate(6.01549 127 230.84)" fill="black"/>
<path d="M105.672 246.744C110.012 255.012 122.829 257.404 127.53 256.522C132.232 255.64 135.747 252.854 136.849 252.058" stroke="black"/>
<path d="M131.518 252.488C129.7 245.806 129.883 243.279 129.883 243.279C129.883 240.872 136.538 240.481 138.64 241.178C140.742 241.874 141.052 244.083 140.95 246.376C140.835 248.987 139.741 251.141 137.441 252.488C135.727 253.491 132.039 254.405 131.518 252.488Z" fill="black"/>
<path d="M111.584 260.702C90.1966 265.669 78.6985 254.223 76.4562 248.646C71.8209 248.646 71.9941 252.565 72.5691 254.06C84.9876 275.62 108.842 269.671 114.017 267.084C118.662 264.761 117.545 258.94 111.584 260.702Z" fill="#FF641E"/>
<path d="M80.2915 239.355C84.536 241.755 88.7624 236.741 90.1049 232.126C91.7831 226.357 88.6749 221.016 93.3675 217.969C93.8577 217.651 95.6343 216.675 95.9958 216.425M122.023 215.452C123.34 216.676 126.15 219.694 126.852 221.978M126.852 258.823C121.175 260.425 114.661 260.092 108.389 258.374" stroke="black"/>
<path d="M132.665 289.528C128.102 291.547 117.887 295.634 101.552 298.437M87.3094 300.329C84.0675 300.641 79.3717 302.434 75.7991 301.309M54.5282 306.875C55.9348 305.793 57.8482 304.917 60.0914 304.199" stroke="black" stroke-linejoin="bevel"/>
<path d="M150.433 313.014C141.135 311.88 133.419 285.885 132.441 281.01C132.441 281.01 89.1774 289.106 64.0932 299.835C58.9747 302.024 51.5763 305.567 51.5763 305.567L28.8182 355.232L63.5927 356.086L83.162 349.49C83.162 349.49 98.6645 345.476 104.578 342.207C128.838 328.796 150.433 313.014 150.433 313.014Z" fill="black"/>
<path d="M132.441 281.01C133.419 285.885 141.135 311.88 150.433 313.014M132.441 281.01C132.441 281.01 89.1774 289.106 64.0932 299.835C58.9747 302.024 51.5763 305.567 51.5763 305.567L28.8182 355.232L63.5927 356.086L83.162 349.49C83.162 349.49 98.6645 345.476 104.578 342.207C128.838 328.796 150.433 313.014 150.433 313.014M132.441 281.01C134.003 279.894 134.497 279.654 136.077 281.679M150.433 313.014C151.343 312.582 153.197 310.126 151.14 308.394" stroke="black"/>
<path d="M122.811 270.889C119.343 270.437 114.833 276.354 113.012 279.369L116.459 282.899C119.907 285.386 117.976 289.412 116.459 298.178C114.942 306.943 125.73 305.257 127.899 300.2C129.633 296.155 128.621 284.627 127.899 279.369C127.647 276.731 126.278 271.341 122.811 270.889Z" fill="white"/>
<path d="M99.1572 282.899C96.0501 279.497 83.8313 276.404 79.0718 277.396L87.8545 287.143C93.9833 291.277 91.7029 294.84 92.8431 303.962C93.7553 311.259 100.015 310.211 103.034 307.477C105.786 304.984 103.034 287.143 99.1572 282.899Z" fill="white"/>
<path d="M113.012 279.369C114.833 276.354 119.343 270.437 122.811 270.889C126.278 271.341 127.647 276.731 127.899 279.369C128.621 284.627 129.633 296.155 127.899 300.2C125.73 305.257 114.942 306.943 116.459 298.178C117.976 289.412 119.907 285.386 116.459 282.899M79.0718 277.396C83.8313 276.404 93.44 276.639 99.1572 282.899C103.034 287.143 105.786 304.984 103.034 307.477C100.015 310.211 93.7553 311.259 92.8431 303.962C91.7029 294.84 93.2341 290.248 88.6412 289.285" stroke="black"/>
<path d="M133.136 286.292C143.826 272.716 135.436 274.67 145.952 262.37C149.608 258.094 152.542 255.479 155.011 253.452" stroke="black" stroke-linejoin="bevel"/>
<path d="M175.446 268.13C177.856 266.916 181.372 264.953 186.588 259.308C191.804 253.662 188.061 247.597 181.981 252.155C177.81 255.273 163.336 264.251 157.579 262.787C153.994 260.673 153.975 256.207 154.414 254.238" stroke="black" stroke-linejoin="bevel"/>
<path d="M188.537 259.482C190.49 260.425 192.454 260.292 189.033 266.807C185.613 273.323 184.09 273.332 183.655 276.148" stroke="black" stroke-linejoin="bevel"/>
<path d="M190.157 269.968C190.603 278.111 188.437 276.817 188.074 280.704C187.712 284.591 189.893 288.187 184.781 291.888C179.163 295.954 173.125 302.364 164.536 302.674C153.426 303.085 145.616 311.588 139.199 316.239" stroke="black" stroke-linejoin="bevel"/>
</g>
<defs>
<clipPath id="clip0_661_981">
<rect width="344.819" height="726.413" fill="white"/>
</clipPath>
</defs>
</svg>
