<svg width="345" height="727" viewBox="0 0 345 727" fill="none" xmlns="http://www.w3.org/2000/svg">
<path d="M156.678 214.75L181.823 213.079C182.925 213.006 183.878 213.84 183.951 214.942L186.269 249.826" stroke="black"/>
<rect width="31.5382" height="64.631" rx="2" transform="matrix(-0.9978 0.0663027 0.0663027 0.9978 183.541 214.011)" fill="#FF641E"/>
<path d="M185.358 214.36C185.286 213.264 184.343 212.432 183.247 212.496L153.972 214.19C152.841 214.256 151.99 215.247 152.097 216.376L157.859 277.026C157.962 278.103 158.903 278.904 159.983 278.832L187.517 277.003C188.619 276.929 189.453 275.977 189.38 274.874L185.358 214.36Z" fill="#FF641E"/>
<path d="M185.241 239.596L183.674 216.007C183.6 214.905 182.648 214.071 181.545 214.144L154.068 215.97C152.966 216.043 152.132 216.996 152.205 218.098L156.225 278.596C156.298 279.698 157.251 280.532 158.353 280.459L185.831 278.633C186.933 278.56 187.767 277.607 187.694 276.505L185.675 246.129" stroke="black"/>
<path d="M184.411 271.33L159.626 272.977" stroke="white"/>
</svg>
