<svg width="345" height="727" viewBox="0 0 345 727" fill="none" xmlns="http://www.w3.org/2000/svg">
<path d="M58.2731 297.735C57.1803 277.155 75.4283 248.271 84.8637 239.693C84.0567 239.964 82.5681 240.192 81.3408 239.693C80.7656 239.46 79.3969 238.855 79.0335 238.232C77.61 235.792 76.4734 228.975 79.0335 224.639C82.319 219.076 85.7868 215.27 90.2606 215.067C94.7344 214.864 98.7961 212.415 102.456 212.821C105.385 213.147 111.218 212.55 114.133 212.821C115.895 212.008 120.394 211.845 122.996 212.821C126.25 214.041 132.553 218.312 132.959 222.379C133.285 225.633 132.01 228.751 131.332 229.903C130.655 231.055 128.282 227.121 128.282 227.121V232.945L129.706 236.207L139.1 242.978C139.794 243.779 139.527 246.437 139.527 249C139.527 252.205 132.429 256.181 129.706 257.636C125.962 259.635 116.636 260.096 113.271 259.319C115.148 261.002 119.101 265.837 120.312 267.725C123.664 272.954 121.378 316.917 113.271 331.272C117.022 335.023 126.405 346.489 126.405 352.722C126.405 360.514 118.683 374.071 118.972 378.399C119.261 382.728 117.991 383.014 121.675 387.86C125.883 393.395 126.793 394.819 126.405 397.049C121.801 400.148 112.556 400.893 110.126 382.444C107.729 364.235 105.598 360.515 105.092 359.304C101.907 361.023 99.8974 360.797 98.7298 359.304C101.762 367.943 100.251 369.109 103.231 382.444C106.225 395.84 108.609 396.586 110.126 401.374C111.644 406.162 102.698 412.456 100.322 404.212C97.7639 395.335 95.5222 390.567 92.6496 385.578C89.3282 379.809 83.0846 374.015 78.2286 369.831C75.7207 367.67 73.5829 365.939 72.4089 364.863C50.8315 345.084 59.4224 319.381 58.2731 297.735Z" fill="white"/>
<path d="M61.8311 347.065C62.5521 353.901 69.8702 363.389 73.5325 365.678C74.4987 366.563 76.101 367.921 78.018 369.61C82.9407 373.946 89.938 380.462 93.5631 386.758C96.4357 391.748 98.125 392.929 99.4315 402.074C101.064 413.505 111.04 405.591 109.523 400.804C108.005 396.016 106.605 397.021 103.611 383.625C101.116 372.458 100.854 360.803 95.1762 350.663M114.503 333.529C118.254 337.281 125.757 346.342 125.757 352.575C125.757 360.367 118.543 374.796 118.831 379.124C119.12 383.453 118.899 383.801 122.583 388.647C126.791 394.183 126.703 395.194 124.852 397.286C123 399.378 113.469 402.074 111.04 383.625C108.967 367.88 106.926 361.556 104.735 359.498M117.628 261.668C119.768 263.495 120.644 266.994 121.313 269.977M99.9956 360.147C102.979 359.774 105.816 357.154 106.357 354.18" stroke="black"/>
<path d="M122.996 212.821C120.393 211.845 115.895 212.008 114.133 212.821C116.55 215.212 121.4 220.568 121.461 222.868C121.536 225.744 121.04 229.91 124.294 232.471C126.897 234.52 128.849 235.973 129.705 236.207L128.282 232.945V227.121C128.282 227.121 130.654 231.055 131.332 229.903C132.01 228.751 133.285 225.633 132.959 222.379C132.552 218.312 126.25 214.041 122.996 212.821Z" fill="#FF641E" fill-opacity="0.5"/>
<path d="M95.1391 250.52C88.5735 249.232 86.6103 241.937 86.4494 238.451L84.8636 239.693C84.0565 239.964 82.568 240.192 81.3407 239.693C80.7654 239.46 79.3968 238.855 79.0334 238.232C77.6099 235.792 76.4733 228.975 79.0334 224.639C82.3189 219.076 85.7867 215.27 90.2605 215.067C94.7342 214.864 98.7959 212.415 102.456 212.821C105.049 213.068 108.189 214.011 108.717 213.879C109.462 213.693 117.751 222.447 117.658 225.893C117.564 229.339 122.656 235.071 122.656 236.198C122.656 237.324 118.794 239.738 116.702 240.06C114.61 240.382 116.702 245.531 116.702 248.428C116.702 251.324 112.679 255.347 111.07 255.347C109.461 255.347 103.346 252.129 95.1391 250.52Z" fill="#FF641E" fill-opacity="0.5"/>
<path d="M114.188 228.015C113.75 227.14 110.846 227.043 109.449 227.104C108.446 226.193 113.276 222.912 114.734 224.643C116.193 226.375 114.734 229.109 114.188 228.015Z" fill="black"/>
<path d="M128.078 227.884C127.758 227.243 126.638 225.837 125.615 225.882C124.881 225.215 127.302 223.995 128.369 225.262C129.436 226.53 128.478 228.684 128.078 227.884Z" fill="black"/>
<path d="M138.386 242.396C136.39 239.819 123.575 234.602 122.207 228.929" stroke="black"/>
<ellipse cx="110.204" cy="231.28" rx="1.70418" ry="2.24993" transform="rotate(12.1435 110.204 231.28)" fill="black"/>
<ellipse cx="127" cy="230.84" rx="1.04419" ry="2.24993" transform="rotate(6.01549 127 230.84)" fill="black"/>
<path d="M105.672 246.744C110.012 255.012 122.829 257.404 127.53 256.522C132.232 255.64 135.747 252.854 136.849 252.058" stroke="black"/>
<path d="M131.518 252.488C129.7 245.806 129.883 243.279 129.883 243.279C129.883 240.872 136.538 240.481 138.64 241.178C140.742 241.874 141.052 244.083 140.95 246.376C140.835 248.987 139.741 251.141 137.441 252.488C135.727 253.491 132.039 254.405 131.518 252.488Z" fill="black"/>
<path d="M111.584 260.702C90.1966 265.669 78.6985 254.223 76.4562 248.646C71.8209 248.646 71.9941 252.565 72.5691 254.06C84.9876 275.62 108.842 269.671 114.017 267.084C118.662 264.761 117.545 258.94 111.584 260.702Z" fill="#FF641E"/>
<path d="M80.2915 239.355C84.536 241.755 88.7624 236.741 90.1049 232.126C91.7831 226.357 88.6749 221.016 93.3675 217.969C93.8577 217.651 95.6343 216.675 95.9958 216.425M122.023 215.452C123.34 216.676 126.15 219.694 126.852 221.978M126.852 258.823C121.175 260.425 114.661 260.092 108.389 258.374" stroke="black"/>
<path d="M76.7873 301.586C68.3367 301.199 66.0286 303.714 57.0564 305.496C52.2039 298.732 44.1819 340.146 63.4981 346.733C72.3759 347.139 120.935 325.746 134.645 318.911C136.667 317.9 138.022 317.512 139.579 315.741C145.673 308.761 153.878 304.697 162.864 302.753C166.542 301.948 170.397 301.663 173.857 300.082C177.512 298.417 179.725 295.184 182.938 292.911C183.726 292.349 184.15 291.636 184.324 290.892C186.048 289.83 187.221 288.144 187.712 286.162C188.124 284.563 187.628 282.825 188.042 281.273C188.505 279.564 189.724 278.029 190.244 276.293C190.792 274.449 190.911 272.551 190.723 270.638C190.606 269.441 190.142 268.516 189.482 267.84C189.905 267.115 190.341 266.4 190.74 265.665C192.337 262.745 190.533 260.186 188.089 259.325C188.572 258.607 189.053 257.865 189.498 257.103C190.801 254.9 189.532 251.856 187.38 250.786C184.997 249.601 182.391 250.711 181.084 252.866C180.442 252.981 179.774 253.227 179.121 253.696C173.564 257.617 167.64 260.487 161.252 262.432C154.185 263.585 153.925 256.873 154.679 253.373C151.11 256.255 147.784 259.281 145.058 263.616C140.862 267.56 140.459 273.393 140.505 275.372C139.197 278.556 139.405 278.867 138.064 282.076C133.999 291.8 105.164 302.024 76.7873 301.586Z" fill="white"/>
<path d="M132.665 289.528C128.102 291.547 117.887 295.634 101.552 298.437M87.3094 300.329C84.0675 300.641 79.3717 302.434 75.7991 301.309M54.5282 306.875C55.9348 305.793 57.8482 304.917 60.0914 304.199" stroke="black" stroke-linejoin="bevel"/>
<path d="M150.433 313.014C141.135 311.88 133.419 285.885 132.442 281.01C132.442 281.01 89.1779 289.106 64.0937 299.835C58.9752 302.024 51.5768 305.567 51.5768 305.567L28.8187 355.232L63.5932 356.086L83.1625 349.49C83.1625 349.49 98.6649 345.476 104.579 342.207C128.839 328.796 150.433 313.014 150.433 313.014Z" fill="black"/>
<path d="M132.442 281.01C133.419 285.885 141.135 311.88 150.433 313.014M132.442 281.01C132.442 281.01 89.1779 289.106 64.0937 299.835C58.9752 302.024 51.5768 305.567 51.5768 305.567L28.8187 355.232L63.5932 356.086L83.1625 349.49C83.1625 349.49 98.6649 345.476 104.579 342.207C128.839 328.796 150.433 313.014 150.433 313.014M132.442 281.01C134.004 279.894 134.497 279.654 136.078 281.679M150.433 313.014C151.343 312.582 153.197 310.126 151.141 308.394" stroke="black"/>
<path d="M122.811 270.889C119.344 270.437 114.834 276.354 113.012 279.369L116.46 282.899C119.907 285.386 117.977 289.412 116.46 298.178C114.943 306.943 125.731 305.257 127.899 300.2C129.634 296.155 128.622 284.627 127.899 279.369C127.648 276.731 126.279 271.341 122.811 270.889Z" fill="white"/>
<path d="M99.1577 282.899C96.0506 279.497 83.8318 276.404 79.0723 277.396L87.855 287.143C93.9838 291.277 91.7033 294.84 92.8436 303.962C93.7558 311.259 100.016 310.211 103.034 307.477C105.787 304.984 103.034 287.143 99.1577 282.899Z" fill="white"/>
<path d="M113.012 279.369C114.834 276.354 119.344 270.437 122.811 270.889C126.279 271.341 127.648 276.731 127.899 279.369C128.622 284.627 129.634 296.155 127.899 300.2C125.731 305.257 114.943 306.943 116.46 298.178C117.977 289.412 119.907 285.386 116.46 282.899M79.0723 277.396C83.8318 276.404 93.4405 276.639 99.1577 282.899C103.034 287.143 105.787 304.984 103.034 307.477C100.016 310.211 93.7558 311.259 92.8436 303.962C91.7033 294.84 93.2346 290.248 88.6417 289.285" stroke="black"/>
<path d="M133.137 286.292C143.826 272.716 135.436 274.67 145.953 262.37C149.609 258.094 152.543 255.479 155.012 253.452" stroke="black" stroke-linejoin="bevel"/>
<path d="M175.446 268.13C177.856 266.916 181.372 264.953 186.588 259.308C191.804 253.662 188.061 247.597 181.981 252.155C177.81 255.273 163.336 264.251 157.579 262.787C153.994 260.673 153.975 256.207 154.414 254.238" stroke="black" stroke-linejoin="bevel"/>
<path d="M188.537 259.482C190.491 260.425 192.454 260.292 189.034 266.807C185.613 273.323 184.09 273.332 183.655 276.148" stroke="black" stroke-linejoin="bevel"/>
<path d="M190.157 269.968C190.603 278.111 188.437 276.817 188.074 280.704C187.712 284.591 189.893 288.187 184.781 291.888C179.163 295.954 173.125 302.364 164.536 302.674C153.426 303.085 145.616 311.588 139.199 316.239" stroke="black" stroke-linejoin="bevel"/>
</svg>
