<svg width="70" height="89" viewBox="0 0 70 89" fill="none" xmlns="http://www.w3.org/2000/svg">
<path d="M23.9967 76.7024C32.192 79.4488 40.0289 78.1143 41.5009 73.7219L60.1873 38.4741C62.7264 37.252 63.4837 33.3064 64.0413 31.6425C64.7595 29.4992 64.5486 27.1789 63.5716 24.8673L62.8853 22.9261C62.7979 20.8557 61.8827 18.6966 60.3075 16.6404C59.8332 15.9803 58.5722 14.6932 58.001 14.1322C55.2455 11.5875 51.4717 9.35868 47.0604 7.88037C37.8893 4.80705 28.9629 5.98301 25.365 10.3526L23.4046 11.6325C21.3583 12.8752 19.8816 14.55 19.1905 16.6124C18.6852 18.1202 17.3425 21.1006 18.0234 23.8205L11.823 63.7765C10.3511 68.1689 15.8014 73.9561 23.9967 76.7024Z" fill="white"/>
<path d="M18.4579 41.268L16.0989 36.7764L12.6681 59.5792C13.8674 62.7752 17.6294 68.7309 21.8558 66.1238C26.7833 69.1372 40.5861 72.6181 45.0881 66.6876L54.2445 49.5761C45.5517 56.1881 26.7829 50.2491 24.3615 46.3896C22.4244 43.302 19.6186 41.6887 18.4579 41.268Z" fill="#FF641E"/>
<path d="M63.1212 34.3884C60.7072 41.5921 48.71 44.0672 36.3248 39.9168C23.9396 35.7663 15.8564 26.562 18.2704 19.3584" stroke="black"/>
<path d="M23.4044 11.6328C21.358 12.8755 19.8814 14.5503 19.1902 16.6127C16.7762 23.8163 24.8595 33.0206 37.2447 37.1711C49.6299 41.3215 61.627 38.8464 64.0411 31.6427C64.7593 29.4995 64.5483 27.1792 63.5713 24.8676" stroke="black"/>
<path d="M58.0012 14.1323C55.2457 11.5876 51.4719 9.35872 47.0605 7.88041C36.4446 4.3229 26.1564 6.45907 24.0812 12.6517C22.006 18.8443 28.9296 26.7483 39.5455 30.3058C50.1614 33.8633 60.4496 31.7272 62.5248 25.5346C63.4636 22.7331 62.5608 19.5815 60.3076 16.6404" stroke="black"/>
<path d="M17.7538 25.5742L10.6164 67.377C8.99776 72.2071 14.3292 78.3491 22.5245 81.0955C30.7198 83.8418 38.6756 82.1525 40.2942 77.3224L59.5815 39.5912" stroke="black"/>
<path d="M29.7044 23.2814L27.5116 20.7284C27.2672 19.6838 28.7105 19.7904 29.2923 20.3625L31.5172 22.8194C31.7492 23.9667 30.3146 23.737 29.7044 23.2814Z" stroke="black"/>
<path d="M17.6269 59.9023C12.6131 55.0259 15.4975 48.8966 18.1489 48.0659L18.1539 48.0727C18.7629 48.9108 19.9364 50.526 17.8267 54.9191C17.1639 56.2994 17.2093 58.6953 17.6269 59.9023Z" fill="black"/>
<path d="M19.578 48.5449C24.5917 53.4214 21.7073 59.5506 19.0559 60.3814L19.0509 60.3745C18.442 59.5365 17.2684 57.9213 19.3781 53.5281C20.041 52.1479 19.9955 49.752 19.578 48.5449Z" fill="black"/>
<ellipse cx="43.303" cy="19.0931" rx="13.0322" ry="7.48147" transform="rotate(18.5266 43.303 19.0931)" fill="black"/>
<path d="M24.0042 12.8809L22.7005 16.771C20.6253 22.9636 27.5489 30.8676 38.1648 34.4251C48.7807 37.9827 59.0689 35.8465 61.1441 29.6539L62.4477 25.7638" stroke="black"/>
</svg>
