<svg width="216" height="464" viewBox="0 0 216 464" fill="none" xmlns="http://www.w3.org/2000/svg">
<path d="M42.697 321.664L38.4571 336.269L45.5237 395.158L69.5502 462.997L119.959 440.855L157.177 356.055L168.483 318.367L145.399 302.82L50.2347 311.771L42.697 321.664Z" fill="white" stroke="black"/>
<path d="M77.1964 396.594L93.8667 345.826M77.1964 322.336L86.2893 340.522M93.8667 335.956L115.843 322.336" stroke="black"/>
<path d="M126.302 117.466C115.006 130.645 99.1621 120.856 91.7098 116.15L52.1716 170.025L68.2529 244.155L68.2529 319.07C75.7836 315.305 118.719 314.364 139.246 314.364L152.189 180.615L139.246 110.798L123.825 107.717L126.302 117.466Z" fill="black" stroke="black"/>
<path d="M127.079 115.386C128.529 116.268 129.347 118.672 127.859 121.055C115.508 140.83 96.8016 136.905 90.9857 129.267C90.3853 128.138 89.7959 125.663 92.2415 124.8M74.6358 306.901C89.9199 305.668 122.337 303.573 129.733 305.052" stroke="white"/>
<path d="M57.8871 123.009C53.6909 127.739 34.8736 140.032 25.9895 145.588L35.8773 155.655L25.4544 176.565L22.9246 186.533L16.8925 199.847L13.3983 231.499L34.905 239.985C34.1291 271.313 34.668 288.612 33.5117 298.598C32.0876 304.01 30.4065 307.22 30.0307 309.543L28.9665 342.574L62.6709 347.245L76.1204 289.626L87.0538 210.727L82.8285 176.181L81.4578 141.249L93.0039 117.085L93.7401 97.4385L81.0995 99.2276C75.1104 105.184 62.0833 118.28 57.8871 123.009Z" fill="white"/>
<path d="M182.953 140.34C177.684 137.486 157.293 112.589 147.756 100.498C147.756 100.498 130.428 96.8261 124.907 100.498C115.267 106.907 133.555 112.333 133.555 112.333L138.501 128.59L140.499 152.862C135.117 153.396 132.767 166.905 132.264 173.593L121.487 199.419L129.285 264.355L135.232 310.905L143.674 358.47L176.369 347.556L176.696 326.365L176.696 295.946L173.551 254.87L192.844 260.699L208.33 259.408L215.369 243.571L213.14 222.453L207.04 207.085L199.19 182.867L182.953 140.34Z" fill="white"/>
<path d="M57.8871 123.009C53.6909 127.739 34.8736 140.032 25.9895 145.588L35.8773 155.655L25.4544 176.565L22.9246 186.533L16.8925 199.847L13.3983 231.499L34.905 239.985C34.1291 271.313 34.668 288.612 33.5117 298.598C32.0876 304.01 30.4065 307.22 30.0307 309.543L28.9665 342.574L62.6709 347.245L76.1204 289.626L87.0538 210.727L82.8285 176.181L81.4578 141.249L93.0039 117.085L93.7401 97.4385L81.0995 99.2276C75.1104 105.184 62.0833 118.28 57.8871 123.009Z" fill="#FF641E" fill-opacity="0.5"/>
<path d="M182.953 140.34C177.684 137.486 157.293 112.589 147.756 100.498C147.756 100.498 130.428 96.8261 124.907 100.498C115.267 106.907 133.555 112.333 133.555 112.333L138.501 128.59L140.499 152.862C135.117 153.396 132.767 166.905 132.264 173.593L121.487 199.419L129.285 264.355L135.232 310.905L143.674 358.47L176.369 347.556L176.696 326.365L176.369 284.978L173.486 254.735L193.026 260.487L208.258 259.403L215.379 244.261L213.165 222.716L209.514 213.26L199.19 182.867L182.953 140.34Z" fill="#FF641E" fill-opacity="0.5"/>
<path d="M147.756 100.498C157.293 112.589 177.684 137.486 182.953 140.34L199.19 182.867L208.102 209.456L213.249 223.013L215.273 244.493L208.102 259.554M176.369 321.234L176.369 347.556L143.674 358.47L135.232 310.905L129.285 264.355L121.487 199.419L132.264 173.593C132.767 166.905 135.117 153.396 140.499 152.862L138.5 128.59L133.555 112.333M30.0307 309.543L28.9666 342.574L62.6709 347.245L76.1205 289.626L87.0539 210.727L82.8285 176.181L81.4578 141.249L93.0039 117.085L93.7402 97.4385L81.0995 99.2276C75.1105 105.184 62.0833 118.28 57.8871 123.009C53.691 127.739 34.8737 140.032 25.9895 145.588L35.8773 155.655M13.3982 225.063L16.8925 199.847L22.9246 186.533L25.4544 176.565L33.7413 159.94" stroke="black"/>
<path d="M26.3451 146.611C34.513 154.241 52.1318 169.967 57.2639 171.833C62.396 173.699 69.9225 173.106 73.0443 172.576L73.6572 182.046C77.8537 185.917 86.1487 194.366 85.756 197.2M125.214 198.819C129.897 189.123 140.406 169.144 144.975 166.787C149.545 164.431 171.768 149.218 182.309 141.906M140.916 153.555C146.906 151.438 159.261 146.196 160.763 142.161M59.6608 167.93C64.9724 161.692 76.1079 149.288 78.1572 149.572M23.5933 184.737L39.5502 193.269M14.7435 228.324L35.9706 231.266M46.5281 249.306L65.9709 252M43.6937 195.81L38.46 233.578L34.8245 239.536L33.6115 278.704L33.6559 298.659L31.3416 305.222M39.881 297.274L57.354 299.695M33.0623 335.384L52.044 338.014M84.8087 204.036L59.1153 344.052M140.916 208.674L162.918 200.356M160.917 182.046L170.246 216.747M176.788 200.356L186.132 190.931L198.092 189.133M146.291 305.94L171.329 300.842M141.787 257.98L157.706 255.622M58.2503 200.356L74.7695 202.645M132.995 210.714L133.57 216.747M151.357 353.462L142.334 308.676L136.452 246.982M154.237 344.479L170.903 341.016M176.367 321.372L176.788 298.545L173.637 255.622M170.903 226.152L173.637 237.27L168.07 249.197M198.091 234.844L199.403 246.982L196.169 256.879M157.706 266.138L160.917 296.109L168.528 293.968L165.53 263.997L157.706 266.138ZM43.4314 260.973L49.5623 263.075L46.5281 291.141L39.881 287.949L43.4314 260.973Z" stroke="black"/>
<path d="M140.4 217.221C138.787 217.221 136.441 217.003 134.878 218.397M140.4 217.221C149.648 221.574 147.835 232.207 143.903 239.547C141.163 244.664 138.787 245.503 138.787 245.503M140.4 217.221L147.495 218.66M136.749 236.172C136.148 240.272 136.749 244.262 138.787 245.503M138.787 245.503L144.682 247.503M207.239 259.56L193.222 260.6L169.709 254.026L144.682 247.503M178.917 219.329L194.558 226.062M186.504 206.113L177.232 217.221L169.709 219.329L156.096 218.66L147.495 218.66M144.682 247.503C147.996 247.503 150.804 241.056 152.28 235.708C154.679 227.011 150.458 219.189 147.495 218.66" stroke="black"/>
<path d="M82.9119 37.5155C88.0345 31.4928 97.638 29.0924 102.249 28.908L104.53 28.6718C104.53 28.6718 104.904 27.4312 104.953 26.2225C104.997 25.1545 104.684 23.9447 104.856 22.8898C105.034 21.7935 105.981 20.2773 105.981 20.2773C105.705 19.7058 104.729 17.9054 103.028 15.2761C100.901 11.9895 102.469 2.26799 108.567 1.41309C113.445 0.72917 119.684 4.86845 122.193 7.02357C124.702 9.1787 127.622 15.5176 131.09 22.7409C132.548 25.779 131.736 30.2292 130.176 31.6438C129.238 32.4951 127.487 33.8749 126.705 33.9125C133.895 36.0097 137.683 49.426 138.314 52.1564C139.42 56.9372 139.053 64.1848 138.294 69.9117C142.188 75.2941 138.218 78.9929 135.807 84.2999C133.879 88.5455 129.433 90.2104 127.451 90.5121C123.589 99.8356 125.028 112.127 126.745 117.378C127.185 118.371 126.745 122.069 123.039 125.178C105.647 139.772 93.8484 131.334 92.7785 127.141L91.9504 113.072C84.7273 113.72 82.2357 108.134 81.8929 105.26L79.5537 99.0781C78.2707 94.2144 75.475 83.6178 74.5565 80.1406C73.638 76.6634 75.5327 70.8278 76.5948 68.3447L74.8981 63.1303C75.2622 57.2337 76.998 44.4686 82.9119 37.5155Z" fill="white"/>
<path d="M110.051 45.9784C123.831 49.4235 117.534 61.3457 123.831 74.0317C128.283 83.0015 119.402 92.5166 111.517 98.3938C103.97 104.02 110.804 116.595 111.517 120.091" stroke="black"/>
<path d="M76.1964 48.9572C70.1733 52.0198 65.9362 67.4892 73.2676 85.2108C79.5212 100.327 72.0422 104.821 67.7524 107.885" stroke="black"/>
<path d="M88.362 66.0847C88.692 69.0939 87.9714 75.6489 84.3965 80.1841C83.4179 81.4464 82.1708 84.5961 85.5131 86.1473C87.0983 86.883 88.3285 87.2725 88.4787 88.3801M93.411 87.512C94.8705 87.2318 97.0909 85.6553 95.3019 82.4995M89.3109 85.8299C90.2086 85.7188 92.1303 85.5983 92.6351 86.005" stroke="black"/>
<path d="M102.249 28.908C97.6381 29.0925 88.0346 31.4929 82.912 37.5156C79.9529 40.9946 77.1969 48.4193 75.9783 53.2201C74.7615 58.0139 75.0801 60.1842 74.8982 63.1304L76.5949 68.3448C75.859 70.0652 74.7234 73.3951 74.4008 76.4348M91.9504 113.072C84.7274 113.72 82.2358 108.134 81.893 105.26L79.5538 99.0782C78.2708 94.2145 75.4751 83.6179 74.5566 80.1407C74.441 79.7032 74.37 79.2285 74.3363 78.7278M91.9504 113.072L92.7786 127.141M91.9504 113.072C95.1633 112.655 100.744 111.516 106.109 109.515M126.745 117.378C125.028 112.127 123.589 99.8357 127.451 90.5122M127.451 90.5122C129.433 90.2104 133.879 88.5456 135.807 84.3C138.218 78.993 142.188 75.2942 138.294 69.9118M127.451 90.5122C126.336 90.6064 124.41 89.9957 125.625 86.7989C125.625 86.7989 129.886 80.01 130.087 79.6183C132.591 74.7514 134.897 69.9023 138.358 72.4146M138.294 69.9118C139.054 64.1848 139.42 56.9373 138.314 52.1565C137.683 49.4261 134.996 36.8969 127.278 33.7018M138.294 69.9118C136.915 68.8865 133.588 67.9786 131.309 72.549C130.878 73.5869 129.92 76.2252 129.531 78.4756M127.278 33.7018C127.278 33.7018 129.238 32.4952 130.177 31.6439C131.736 30.2293 132.548 25.7791 131.09 22.7409C127.622 15.5176 124.702 9.17876 122.193 7.02363C119.684 4.86851 113.445 0.72923 108.567 1.41315C102.469 2.26805 100.901 11.9896 103.028 15.2762C104.729 17.9054 105.705 19.7059 105.981 20.2774M127.278 33.7018C124.839 32.278 112.164 29.9414 105.23 28.7927M105.981 20.2774C112.787 20.9096 126.882 23.6042 128.812 29.3252M105.981 20.2774C104.676 22.368 105.048 23.924 104.954 26.2225C104.904 27.4313 104.53 28.6718 104.53 28.6718M124.751 91.248C123.218 96.7432 119.703 100.894 117.939 102.42C115.53 104.569 113.039 106.414 110.107 107.824M128.194 82.9843C132.958 81.4233 133.714 78.7758 135.5 79.5071M117.325 7.50166C116.365 8.31632 115.774 10.6331 121.094 13.3827C126.414 16.1324 126.639 16.1496 126.087 15.8145M113.31 5.48877C110.649 5.33874 105.51 6.30129 106.24 11.3517M115.1 9.2677C112.728 8.85787 107.923 13.2058 112.607 18.6071M109.566 21.5014C108.807 23.844 110.107 29.1178 120.797 31.7657M104.048 31.4617C97.2851 32.3533 94.6937 37.6362 94.9619 38.5338M109.208 32.3533C107.297 34.5492 103.44 39.1476 103.298 39.9742M112.607 33.7018L112.607 41.2733M126.923 68.5244C126.617 67.0763 126.676 65.3353 126.575 63.3847C126.387 59.7506 122.768 48.6474 117.017 46.0537C114.448 44.8951 95.1422 41.1521 92.2455 41.2733C85.7722 41.5443 80.364 47.6345 77.2373 51.5953M127.814 70.5927C128.161 71.0446 128.615 71.4405 129.212 71.7745C129.585 71.9763 130.38 72.3885 130.577 72.4225" stroke="black"/>
<path d="M83.2017 60.4937C80.4079 59.6285 76.6513 60.5622 75.3869 61.0036C74.6495 61.5026 74.7408 63.119 75.1004 63.8376C77.9122 61.756 80.7384 62.2743 84.4129 64.0192C85.4654 64.519 86.6331 64.1666 86.7113 63.3938C86.8089 62.4278 86.5014 61.5156 83.2017 60.4937Z" fill="black"/>
<path d="M107.377 60.3032C102.844 59.7556 97.2304 60.5022 95.5717 61.9633C94.6646 62.7623 94.276 65.0514 97.2324 64.814C100.928 64.5173 106.457 62.7061 108.226 62.7404C110.945 62.7931 114.625 64.7262 117.021 65.5486C115.695 64.0283 111.91 60.8508 107.377 60.3032Z" fill="black"/>
<ellipse cx="83.2672" cy="68.9054" rx="2.43229" ry="2.34683" transform="rotate(9.8037 83.2672 68.9054)" fill="black"/>
<ellipse cx="106.18" cy="69.4668" rx="2.43229" ry="2.34683" transform="rotate(9.8037 106.18 69.4668)" fill="black"/>
<path d="M81.8168 94.9959C82.034 95.3899 82.8153 95.7461 83.5772 95.7922C84.3392 95.8383 84.848 95.1392 85.7011 94.8937C88.6373 94.0487 90.4879 94.6124 93.4755 95.642C95.9818 96.5057 98.4496 95.8365 99.63 95.55M83.0105 94.4288C83.576 93.3363 84.9236 91.2049 86.2867 91.5048C87.9906 91.8797 88.7479 91.6887 89.3354 91.5488C89.923 91.4089 91.9639 91.9225 93.8397 93.5343C95.7154 95.1461 97.2408 95.9383 98.2191 95.8659M100.184 93.4233C99.9702 94.1531 100.499 95.7997 101.858 96.0347" stroke="black"/>
<path d="M83.3486 96.9323C82.8287 99.9402 92.9045 102.714 97.4896 97.4254M85.7689 96.2032C87.2222 96.6456 90.7989 97.3707 93.4791 96.7324" stroke="black"/>
<path d="M77.9705 67.9901C79.4546 66.5045 83.3778 64.7434 87.1975 69.5845M99.9497 69.7473C101.59 68.0464 106.116 65.5611 111.096 69.2282" stroke="black"/>
<path d="M85.3618 74.5522C85.407 77.5035 79.2237 78.7196 74.2281 77.7999C69.2325 76.8803 67.2175 75.278 67.4803 73.8503C67.7431 72.4225 71.79 70.5823 77.1768 71.5739C82.1724 72.4936 85.6247 73.1245 85.3618 74.5522Z" fill="#FF641E" fill-opacity="0.5"/>
<path d="M109.812 74.6708C109.936 77.6676 103.699 79.0746 98.7037 78.1549C93.7081 77.2353 90.7947 75.6201 91.0575 74.1924C91.3204 72.7647 96.9337 70.7877 102.321 71.7794C107.316 72.699 110.03 73.4869 109.812 74.6708Z" fill="#FF641E" fill-opacity="0.5"/>
<path d="M127.759 69.5342L127.799 69.0358L127.721 69.0296L127.644 69.0477L127.759 69.5342ZM66.7224 72.7979L66.5079 72.3463C66.3643 72.4145 66.2617 72.5469 66.2315 72.703C66.2013 72.859 66.2471 73.0202 66.355 73.137L66.7224 72.7979ZM85.3618 74.5522L84.8701 74.4617L84.8611 74.5104L84.8619 74.5598L85.3618 74.5522ZM109.812 74.6708L109.321 74.5803L109.31 74.6354L109.313 74.6914L109.812 74.6708ZM109.524 74.3653L127.875 70.0208L127.644 69.0477L109.293 73.3922L109.524 74.3653ZM127.72 70.0327L132.03 70.3762L132.109 69.3793L127.799 69.0358L127.72 70.0327ZM75.3306 68.1566L66.5079 72.3463L66.9369 73.2496L75.7595 69.0599L75.3306 68.1566ZM66.355 73.137L67.0055 73.8421L67.7405 73.164L67.0899 72.4589L66.355 73.137ZM84.8619 74.5598C84.8701 75.0976 84.6028 75.5922 84.0338 76.0417C83.4573 76.4972 82.6058 76.874 81.5605 77.1435C79.4734 77.6815 76.7526 77.7563 74.3187 77.3082L74.1376 78.2917C76.6993 78.7632 79.568 78.6898 81.8101 78.1118C82.9294 77.8233 83.9275 77.4002 84.6537 76.8264C85.3875 76.2466 85.8761 75.4824 85.8618 74.5445L84.8619 74.5598ZM74.3187 77.3082C71.8498 76.8537 70.1682 76.2385 69.1499 75.5933C68.1142 74.9371 67.8969 74.349 67.972 73.9408L66.9886 73.7598C66.8009 74.7793 67.4597 75.7062 68.6147 76.438C69.7871 77.1809 71.6108 77.8265 74.1376 78.2917L74.3187 77.3082ZM67.972 73.9408C68.0026 73.7748 68.1766 73.4905 68.6395 73.1596C69.0845 72.8415 69.7299 72.5296 70.5505 72.2838C72.1887 71.7931 74.4667 71.5834 77.0863 72.0657L77.2673 71.0822C74.5001 70.5728 72.0613 70.7874 70.2636 71.3259C69.3663 71.5946 68.6141 71.9485 68.058 72.3461C67.5199 72.7308 67.0894 73.2119 66.9886 73.7598L67.972 73.9408ZM77.0863 72.0657C79.5976 72.528 81.6739 72.9099 83.0931 73.3501C83.8073 73.5716 84.3023 73.7927 84.5958 74.0134C84.8749 74.2233 84.8887 74.3603 84.8701 74.4617L85.8536 74.6427C85.9663 74.0302 85.6472 73.5529 85.1968 73.2142C84.7609 72.8864 84.1298 72.6246 83.3893 72.395C81.8993 71.9328 79.7517 71.5395 77.2673 71.0822L77.0863 72.0657ZM109.313 74.6914C109.335 75.2414 109.075 75.7537 108.511 76.225C107.939 76.7025 107.088 77.1053 106.042 77.4003C103.953 77.9895 101.222 78.1102 98.7942 77.6632L98.6132 78.6467C101.181 79.1193 104.066 78.9964 106.313 78.3628C107.435 78.0464 108.433 77.5931 109.152 76.9926C109.878 76.386 110.351 75.5986 110.312 74.6502L109.313 74.6914ZM98.7942 77.6632C96.3232 77.2083 94.4004 76.5867 93.1422 75.9221C92.5111 75.5887 92.0758 75.2594 91.8185 74.9592C91.5636 74.6618 91.5201 74.4412 91.5493 74.2829L90.5658 74.1019C90.4635 74.6575 90.6857 75.1742 91.0593 75.61C91.4303 76.0429 91.9864 76.4425 92.6752 76.8063C94.0569 77.5362 96.0886 78.182 98.6132 78.6467L98.7942 77.6632ZM91.5493 74.2829C91.5563 74.2449 91.5957 74.1452 91.7492 73.9921C91.8973 73.8443 92.1194 73.6791 92.4192 73.5075C93.0175 73.165 93.8679 72.8293 94.8934 72.5625C96.9437 72.0292 99.6192 71.7905 102.23 72.2711L102.411 71.2876C99.635 70.7766 96.8105 71.0306 94.6417 71.5947C93.5577 71.8767 92.6187 72.241 91.9223 72.6397C91.5747 72.8387 91.2731 73.0544 91.0428 73.2842C90.818 73.5086 90.6245 73.783 90.5658 74.1019L91.5493 74.2829ZM102.23 72.2711C104.729 72.7312 106.619 73.152 107.852 73.5964C108.473 73.8202 108.881 74.0342 109.114 74.231C109.335 74.4174 109.331 74.5229 109.321 74.5803L110.304 74.7613C110.402 74.2268 110.141 73.7898 109.759 73.4668C109.388 73.1541 108.846 72.8918 108.191 72.6556C106.872 72.1801 104.907 71.7471 102.411 71.2876L102.23 72.2711ZM84.4648 74.7968C85.6252 74.2343 88.6972 73.4236 91.5361 74.7107L91.949 73.7999C88.7464 72.348 85.3482 73.2572 84.0286 73.897L84.4648 74.7968Z" fill="black"/>
<path d="M13.6809 142.242C15.7623 140.825 17.8906 139.859 20.0227 139.26C27.1442 139.965 41.7454 141.977 43.1789 144.386C45.1441 145.713 46.8032 147.089 48.0521 148.307L45.699 157.088L45.699 176.457L48.0521 202.177L43.1789 237.123C41.1629 241.596 29.8487 240.105 24.4435 238.8L13.6809 231.531L11.4987 213.919L1.23975 185.683L2.91715 169.468L11.4987 149.76L13.6809 142.242Z" fill="white"/>
<path d="M13.6809 142.242C15.7623 140.825 17.8906 139.859 20.0227 139.26C27.1442 139.965 41.7454 141.977 43.1789 144.386C45.1441 145.713 46.8032 147.089 48.0521 148.307L45.699 157.088L45.699 176.457L48.0521 202.177L43.1789 237.123C41.1629 241.596 29.8487 240.105 24.4435 238.8L13.6809 231.531L11.4987 213.919L1.23975 185.683L2.91715 169.468L11.4987 149.76L13.6809 142.242Z" fill="#FF641E" fill-opacity="0.5"/>
<path d="M48.0516 148.307C40.683 154.18 15.4678 148.307 13.6805 142.242L11.4982 149.76C20.0936 154.826 38.3156 160.997 45.6986 157.088L48.0516 148.307Z" fill="white"/>
<path d="M48.0516 148.307C40.683 154.18 15.4678 148.307 13.6805 142.242L11.4982 149.76C20.0936 154.826 38.3156 160.997 45.6986 157.088L48.0516 148.307Z" fill="#FF641E" fill-opacity="0.5"/>
<path d="M13.6809 142.242C15.4682 148.307 40.6835 154.18 48.0521 148.307M13.6809 142.242C15.7623 140.825 17.8906 139.859 20.0227 139.26M13.6809 142.242L11.4987 149.76M48.0521 148.307C46.8032 147.089 45.1441 145.713 43.1789 144.386M48.0521 148.307L45.699 157.088M11.4987 149.76C20.094 154.826 38.3161 160.997 45.699 157.088M11.4987 149.76L2.91715 169.468L1.23975 185.683L11.4987 213.919L13.6809 231.531L24.4435 238.8C29.8487 240.105 41.1629 241.596 43.1789 237.123L48.0521 202.177L45.699 176.457L45.699 157.088M7.11054 171.425C14.5239 174.221 31.2207 179.141 38.7013 176.457M7.11054 190.715C14.1928 195.561 31.0413 204.637 41.7766 202.177M16.3362 216.435C21.4587 218.112 33.1032 220.964 38.7013 218.951" stroke="black"/>
</svg>
