<svg width="273" height="568" viewBox="0 0 273 568" fill="none" xmlns="http://www.w3.org/2000/svg">
<path d="M27.615 170.088C28.5009 175.446 27.615 176.031 27.615 179.854C27.615 179.854 34.9113 182.092 39.7356 182.692C46.2756 183.601 51.3718 182.976 51.3718 182.976C51.3718 177.581 51.4303 174.108 52.7987 172.213C54.1672 170.319 61.5869 159.369 65.1257 154.13C71.4751 148.628 81.8457 132.648 79.9409 130.544C78.417 128.86 74.384 130.736 72.505 131.884L35.5878 136.977C41.7355 133.475 39.8173 131.229 38.0898 130.544L39.6695 127.238C48.9912 126.74 45.4482 120 42.2001 120L43.9333 117.054C50.5624 115.707 48.3291 111.577 45.4482 110.198C44.5248 109.756 41.1415 110.855 39.6695 111.223C38.1976 111.591 35.7597 116.269 34.7248 118.799C33.6898 121.329 34.7248 122.824 34.7248 122.824C33.8048 123.1 31.8849 125.322 30.8883 126.74C29.8917 128.159 29.7078 131.884 29.7078 131.884C28.4429 131.999 23.6215 139.339 23.6216 143.194C23.6218 152.581 23.8825 153.711 24.9254 159.274C25.9684 164.836 27.0344 166.575 27.615 170.088Z" fill="white"/>
<path d="M39.6698 111.223C41.1417 110.855 44.525 109.756 45.4484 110.198C48.3294 111.577 50.5626 115.707 43.9335 117.054M39.6698 117.474C41.3828 117.435 42.79 117.286 43.9335 117.054M43.9335 117.054L42.2004 120C45.4484 120 48.9914 126.74 39.6698 127.238L38.09 130.544C39.8175 131.229 41.7357 133.475 35.5881 136.977M25.4847 137.416C24.4368 139.435 23.958 140.847 23.6218 143.194C22.6049 150.292 23.8827 153.711 24.9257 159.274C25.9686 164.836 27.0346 166.575 27.6153 170.088C28.5011 175.446 27.6153 176.009 27.6153 179.831C27.6153 179.831 34.5686 182.096 39.4681 182.621C45.3246 183.566 51.3325 183.069 51.3325 183.069C51.3325 177.674 51.4305 174.108 52.799 172.213C54.1674 170.319 61.5871 159.369 65.1259 154.13C71.4753 148.628 81.8459 132.648 79.9411 130.544C79.1713 129.693 77.7613 129.751 76.3121 130.164" stroke="black"/>
<path d="M30.8884 126.74C29.8918 128.159 29.708 131.884 29.708 131.884C31.126 133.582 34.2872 136.977 35.588 136.977C41.7357 133.475 39.8175 131.229 38.09 130.544L39.6697 127.238C48.9913 126.74 45.4484 120 42.2003 120L43.9335 117.054C50.5625 115.707 48.3293 111.577 45.4484 110.198C44.5249 109.756 41.1416 110.855 39.6697 111.223C38.1978 111.591 35.7599 116.269 34.7249 118.799C33.69 121.329 34.7249 122.824 34.7249 122.824C33.805 123.1 31.8851 125.322 30.8884 126.74Z" fill="white"/>
<path d="M39.6697 117.474C41.3827 117.436 42.7899 117.286 43.9334 117.054M43.9334 117.054C50.5625 115.707 48.3293 111.578 45.4483 110.199C44.5249 109.757 41.704 110.167 39.6697 111.223C36.2158 113.015 34.7719 117.05 34.4369 120.879M43.9334 117.054L42.2003 120M42.2003 120C45.4483 120 48.9913 126.741 39.6697 127.238L38.0899 130.544M42.2003 120C39.855 120.275 33.9147 121.794 31.7389 125.959C30.9778 127.176 29.4223 130.084 29.2895 131.979M38.0899 130.544C39.8174 131.229 41.7356 133.475 35.588 136.978C34.5396 137.146 32.1699 137.383 31.0778 136.978M38.0899 130.544C35.6384 130.542 30.1447 131.301 27.7825 134.347C27.1931 135.017 25.8048 136.757 24.9658 138.351M32.4448 137.738C32.8993 138.941 33.4376 141.678 31.9554 143.004M30.4286 148.929C32.2571 148.637 35.1024 146.564 35.1024 144.536M42.2003 166.758C39.5581 163.808 41.301 157.593 44.2449 154.716" stroke="black"/>
</svg>
