<svg width="273" height="568" viewBox="0 0 273 568" fill="none" xmlns="http://www.w3.org/2000/svg">
<path d="M47.9551 106.023C47.9549 102.678 48.0465 96.1958 53.4121 94.4732C53.8424 94.3351 54.3306 94.1795 54.7812 94.1486C54.7812 94.1486 56.3381 92.8428 59.0581 92.8428C61.778 92.8428 79.4794 94.1485 85.6789 110.899C86.1771 112.245 85.6268 113.365 85.3413 114.558C85.7287 116.565 85.3437 120.317 81.2864 121.078L47.9551 106.023Z" fill="white"/>
<path d="M85.3413 114.558C85.7287 116.565 85.3437 120.317 81.2864 121.078L47.9551 106.023C47.9549 102.678 48.0465 96.1958 53.4121 94.4732C53.8424 94.3351 54.3306 94.1795 54.7812 94.1486M85.3413 114.558C81.3331 98.2246 63.0615 93.5796 54.7812 94.1486M85.3413 114.558C85.6268 113.365 86.1771 112.245 85.6789 110.899C79.4794 94.1485 61.778 92.8428 59.0581 92.8428C56.3381 92.8428 54.7812 94.1486 54.7812 94.1486" stroke="black"/>
<path d="M43.384 151.464C50.2093 154.89 57.0417 154.932 60.3043 152.038L82.9377 117.859C84.6655 112.309 81.691 105.466 67.7743 99.1398C56.641 94.0792 50.6493 98.7396 49.2392 101.578L35.2099 139.583C34.1693 143.347 36.5586 148.038 43.384 151.464Z" fill="#FF641E"/>
<path fill-rule="evenodd" clip-rule="evenodd" d="M60.3043 152.038L82.9377 117.859C84.6655 112.309 81.691 105.466 67.7743 99.1398C56.641 94.0792 50.6493 98.7396 49.2392 101.578L35.2099 139.583C34.1693 143.347 36.5586 148.038 43.384 151.464C50.2093 154.89 57.0417 154.932 60.3043 152.038ZM36.1632 139.888L50.1575 101.978C51.3282 99.7031 56.6846 95.1974 67.3605 100.05C74.2387 103.177 78.2835 106.376 80.4071 109.369C82.4628 112.266 82.7413 114.995 82.0232 117.428L59.546 151.372C58.1638 152.541 55.9633 153.193 53.2061 153.121C50.4039 153.049 47.1329 152.227 43.8325 150.57C37.2111 147.247 35.3382 142.964 36.1632 139.888Z" fill="black"/>
<path fill-rule="evenodd" clip-rule="evenodd" d="M38.44 138.011C38.8792 138.958 39.6986 140.118 40.8439 141.34C42.182 142.769 43.9355 144.252 45.9654 145.545C49.8928 148.048 54.7962 149.803 59.6924 149.153C59.3047 147.809 58.3551 146.309 56.9159 144.825C55.3009 143.159 53.1029 141.548 50.5009 140.242C48.0698 139.022 45.6356 138.243 43.4491 137.902C41.5049 137.598 39.7835 137.645 38.44 138.011ZM59.8921 150.135C54.6583 150.853 49.4886 148.976 45.4281 146.389C43.3292 145.052 41.5108 143.515 40.114 142.024C38.9018 140.73 37.9842 139.445 37.489 138.335C37.0333 138.511 36.6948 138.671 36.4402 138.88L35.8043 138.109C36.2941 137.705 36.9426 137.464 37.6028 137.227C39.218 136.645 41.3116 136.556 43.6033 136.914C45.9022 137.273 48.4352 138.086 50.9495 139.348C53.6397 140.699 55.932 142.373 57.6339 144.129C59.3234 145.871 60.465 147.729 60.7932 149.459C60.9007 149.897 60.937 150.585 60.94 150.939L59.94 150.948C59.9382 150.731 59.9227 150.417 59.8921 150.135Z" fill="black"/>
</svg>
