<svg width="216" height="464" viewBox="0 0 216 464" fill="none" xmlns="http://www.w3.org/2000/svg">
<path d="M84.1615 236.028C79.8672 235.312 77.4683 233.808 76.8056 233.146C76.1428 232.483 76.3592 229.902 76.3592 229.902C80.3352 228.122 82.8825 230.869 85.3118 231.211C91.8876 231.39 99.5762 231.915 102.352 231.157C104.977 230.442 106.821 230.786 107.251 230.653C109.733 230.2 115.712 228.571 119.78 225.68C124.865 222.065 126.359 221.545 128.392 220.543C128.922 220.282 130.983 218.722 132.869 218.235C138.836 218.235 142.51 219.644 144.672 220.701C147.636 226.105 146.872 230.374 145.794 233.563C145.496 234.325 141.927 234.484 140.805 234.721C135.189 237.897 115.672 239.11 112.492 239.209C109.311 239.309 98.7738 238.414 95.3941 238.315C92.0143 238.215 89.5293 236.923 84.1615 236.028Z" fill="white"/>
<path fill-rule="evenodd" clip-rule="evenodd" d="M76.8227 232.027C76.934 232.453 77.0884 232.721 77.1591 232.792L77.1591 232.792C77.7242 233.357 80.0129 234.83 84.2437 235.535C86.6684 235.939 88.5134 236.425 90.0992 236.842C90.2861 236.891 90.4693 236.939 90.6495 236.986C92.3617 237.433 93.7802 237.767 95.4088 237.815C97.7256 237.883 100.049 238.073 102.359 238.262C102.9 238.306 103.441 238.351 103.98 238.393C106.829 238.618 109.659 238.798 112.476 238.71C114.056 238.66 118.552 238.437 123.414 237.942C128.295 237.444 133.475 236.678 136.464 235.56C137.685 235.104 139.412 234.723 141.058 234.36C141.426 234.278 141.791 234.198 142.144 234.118C143.126 233.896 144.032 233.675 144.753 233.44C145.113 233.322 145.416 233.205 145.654 233.087C145.899 232.967 146.041 232.862 146.11 232.784L146.854 233.453C146.66 233.669 146.387 233.841 146.097 233.984C145.8 234.131 145.448 234.265 145.063 234.39C144.294 234.641 143.349 234.871 142.365 235.093C141.993 235.178 141.616 235.261 141.24 235.344C139.596 235.707 137.962 236.068 136.815 236.497C133.688 237.666 128.385 238.44 123.516 238.936C118.628 239.435 114.108 239.659 112.507 239.709C109.631 239.799 106.756 239.615 103.901 239.39C103.355 239.347 102.811 239.302 102.267 239.258C99.9588 239.069 97.6675 238.882 95.3794 238.815C93.6282 238.763 92.1144 238.402 90.3971 237.954C90.2157 237.906 90.0319 237.858 89.845 237.809C88.2598 237.392 86.4565 236.918 84.0793 236.522C79.7216 235.795 77.2123 234.26 76.452 233.499C76.1914 233.239 75.9808 232.761 75.8552 232.28C75.7241 231.777 75.6574 231.166 75.7652 230.586C75.8745 229.998 76.1725 229.408 76.793 229.047C77.4012 228.693 78.2289 228.612 79.2884 228.83C79.5803 228.89 80.0482 229.045 80.5683 229.227C80.8512 229.325 81.1677 229.439 81.4959 229.556C81.7758 229.657 82.0642 229.76 82.3476 229.86C82.9736 230.081 83.5969 230.293 84.1348 230.452C84.6895 230.615 85.1003 230.705 85.3254 230.712C86.6794 230.748 88.4655 230.818 90.1632 230.884C91.2733 230.928 92.3456 230.97 93.2346 231L93.2007 231.999C92.3001 231.969 91.2228 231.926 90.1109 231.883C88.42 231.817 86.6491 231.748 85.2982 231.711C84.9263 231.701 84.3994 231.572 83.8519 231.411C83.2877 231.244 82.6442 231.025 82.0149 230.803C81.7181 230.698 81.4289 230.595 81.1509 230.495C80.8299 230.38 80.5238 230.27 80.2385 230.171C79.7021 229.983 79.3007 229.854 79.0868 229.81C78.1579 229.618 77.6108 229.728 77.296 229.911C76.9936 230.087 76.8203 230.381 76.7484 230.769C76.6749 231.164 76.717 231.622 76.8227 232.027Z" fill="black"/>
<path d="M92.6014 229.204C97.1083 223.785 104.987 230.977 107.426 230.636C112.927 229.865 116.449 228.047 120.306 225.208C122.615 223.508 127.082 220.354 130.765 220.354L131.229 235.068C131.229 235.068 122.849 235.172 117.386 236.798C106.05 240.173 89.9268 232.42 92.6014 229.204Z" fill="white"/>
<path fill-rule="evenodd" clip-rule="evenodd" d="M121.594 224.861C121.257 225.119 120.927 225.371 120.602 225.611C116.696 228.486 113.097 230.346 107.495 231.131C107.072 231.19 106.575 231.083 106.079 230.924C105.568 230.761 104.986 230.518 104.367 230.244C104.036 230.096 103.693 229.94 103.34 229.779C102.361 229.332 101.311 228.853 100.238 228.453C98.7791 227.91 97.3509 227.545 96.1074 227.614C94.896 227.682 93.8645 228.158 93.1191 229.331C92.9481 229.6 92.923 229.923 93.1076 230.348C93.2998 230.791 93.7083 231.306 94.3429 231.859C95.6067 232.961 97.6413 234.108 100.127 235.053C105.102 236.944 111.717 237.964 117.243 236.319L117.528 237.277C111.719 239.007 104.867 237.925 99.7716 235.988C97.2217 235.018 95.0695 233.819 93.6857 232.613C92.9964 232.012 92.466 231.381 92.1903 230.747C91.9071 230.095 91.8852 229.409 92.275 228.795C93.2176 227.311 94.5663 226.698 96.0519 226.616C97.5055 226.535 99.091 226.959 100.587 227.516C101.697 227.929 102.797 228.431 103.784 228.882C104.129 229.04 104.46 229.191 104.773 229.33C105.386 229.602 105.927 229.826 106.383 229.972C106.855 230.123 107.169 230.167 107.356 230.14C112.756 229.384 116.203 227.607 120.009 224.806C120.305 224.587 120.617 224.349 120.943 224.099C121.849 223.406 122.863 222.629 123.959 221.978C125.466 221.084 127.19 220.383 129.154 220.383L129.154 221.383C127.435 221.383 125.89 221.995 124.47 222.838C123.428 223.457 122.487 224.177 121.594 224.861Z" fill="black"/>
</svg>
