<svg width="216" height="464" viewBox="0 0 216 464" fill="none" xmlns="http://www.w3.org/2000/svg">
<path d="M84.1615 236.028C79.8672 235.312 77.4683 233.808 76.8056 233.146C76.1428 232.483 75.6876 229.865 75.6876 229.865C71.9875 228.585 72.6235 224.158 75.0528 224.5C76.1065 224.648 77.1101 224.331 78.2198 224.495C74.9783 223.992 77.3316 220.712 80.6762 221.118C83.2453 221.429 83.4076 221.051 86.0025 221.282C83.5375 221.048 85.3118 217.42 89.8104 218.509C94.5691 219.661 106.301 220.243 112.492 221.405C113.292 221.32 114.087 221.224 114.877 221.118C119.012 220.561 128.595 218.964 132.869 218.235C138.836 218.235 142.51 219.644 144.672 220.701C147.636 226.105 146.872 230.374 145.794 233.563C145.496 234.325 141.927 234.484 140.805 234.721C135.189 237.897 115.673 239.11 112.492 239.209C109.311 239.309 98.7738 238.414 95.3941 238.315C92.0143 238.215 89.5293 236.923 84.1615 236.028Z" fill="white"/>
<path d="M78.2143 224.495C78.2259 224.496 78.2375 224.498 78.2491 224.5C78.2374 224.498 78.2258 224.496 78.2143 224.495C74.9809 223.988 77.3334 220.712 80.6762 221.118C83.2453 221.429 83.4076 221.051 86.0025 221.282C83.5375 221.049 85.3118 217.42 89.8104 218.509C94.569 219.661 106.301 220.243 112.492 221.405C103.995 222.314 94.9654 222.08 86.0025 221.282C83.4076 221.051 83.2453 221.429 80.6762 221.118C77.3334 220.712 74.9809 223.988 78.2143 224.495Z" fill="white"/>
<path d="M146.482 233.119C145.428 234.29 139.544 234.942 136.639 236.028C130.523 238.315 115.672 239.11 112.492 239.209C106.798 239.387 101.081 238.482 95.3941 238.315C92.0143 238.215 89.5293 236.923 84.1615 236.028C79.8672 235.313 77.4683 233.808 76.8056 233.146C76.1428 232.483 75.2108 228.501 79.1876 229.32C80.1993 229.528 84.1175 231.179 85.3118 231.211C87.551 231.272 90.9583 231.423 93.2176 231.499M76.3526 230.324C72.6524 229.043 72.5995 224.5 75.0527 224.5C76.1456 224.5 77.1278 224.325 78.2491 224.5M101.245 228.688C99.4235 228.338 88.0431 226.024 78.2491 224.5M78.2491 224.5C74.9642 224.012 77.3215 220.711 80.6762 221.118C83.2453 221.429 83.4076 221.051 86.0025 221.282M86.0025 221.282C83.5375 221.049 85.3118 217.42 89.8104 218.509C94.569 219.661 106.301 220.243 112.492 221.405M86.0025 221.282C94.9654 222.08 103.995 222.314 112.492 221.405M112.492 221.405C113.292 221.32 114.087 221.224 114.877 221.118C119.012 220.561 130.644 217.292 138.063 218.947C141.573 219.73 143.281 219.923 145.076 221.016" stroke="black"/>
<path d="M92.6014 229.204C97.1082 223.785 104.987 230.977 107.426 230.636C112.926 229.865 116.449 228.047 120.305 225.208C122.615 223.508 127.082 220.354 130.765 220.354L131.228 235.068C131.228 235.068 122.849 235.172 117.386 236.798C106.05 240.173 89.9267 232.42 92.6014 229.204Z" fill="white"/>
<path d="M117.386 236.798C106.05 240.173 90.4541 232.594 92.697 229.063C96.0731 223.749 104.987 230.977 107.426 230.636C112.926 229.865 116.449 228.047 120.305 225.208C122.615 223.508 125.471 220.883 129.154 220.883" stroke="black"/>
<path d="M19.9447 131.238C20.7943 135.77 21.6627 137.186 22.1358 140.048C22.6111 142.923 22.4602 145.575 22.3019 147.94C22.3019 148.361 26.0119 149.449 30.9256 150.304C36.113 151.207 41.4033 150.617 41.4033 150.617C41.5824 146.711 41.9526 142.746 42.6512 141.779C43.766 140.236 49.8103 131.315 52.6931 127.048C57.8655 122.565 66.3138 109.548 64.7621 107.834C63.5207 106.462 60.2352 107.99 58.7046 108.925L28.6307 113.075C33.6387 110.221 32.0761 108.392 30.6688 107.834L31.9557 105.14C39.5494 104.735 36.6632 99.2443 34.0173 99.2443L35.4291 96.8442C40.8294 95.747 39.0101 92.3831 36.6632 91.2597C35.911 90.8996 33.1548 91.7945 31.9557 92.0943C30.7567 92.3941 28.7707 96.2051 27.9276 98.2661C27.0845 100.327 27.9276 101.545 27.9276 101.545C27.1782 101.77 25.6141 103.58 24.8022 104.735C23.9904 105.891 23.8406 108.925 23.8406 108.925C22.8102 109.019 18.8825 114.999 18.8826 118.139C18.8827 125.786 19.0951 126.707 19.9447 131.238Z" fill="white"/>
<path d="M31.9559 92.0943C33.155 91.7945 35.9111 90.8996 36.6634 91.2597C39.0103 92.3831 40.8296 95.747 35.4293 96.8442M31.9559 97.1864C33.3514 97.1552 34.4978 97.0334 35.4293 96.8442M35.4293 96.8442L34.0174 99.2443C36.6634 99.2443 39.5496 104.735 31.9559 105.14L30.669 107.834C32.0763 108.392 33.6389 110.221 28.6308 113.075M20.4003 113.432C19.5467 115.077 19.1567 116.227 18.8827 118.139C18.0543 123.921 19.0953 126.707 19.9449 131.238C20.7945 135.77 21.6629 137.186 22.1359 140.048C22.6293 143.032 22.5493 145.602 22.3853 148.034C22.3853 148.034 26.8038 149.665 31.2767 150.324C36.8369 151.143 41.4013 150.665 41.4013 150.665C41.5796 146.743 41.95 142.75 42.6514 141.779C43.7662 140.236 49.8105 131.315 52.6933 127.048C57.8657 122.565 66.314 109.548 64.7623 107.834C64.1352 107.141 62.9865 107.188 61.806 107.525" stroke="black"/>
<path d="M24.8026 104.735C23.9907 105.891 23.8409 108.925 23.8409 108.925C24.9961 110.308 27.5713 113.075 28.631 113.075C33.6391 110.221 32.0765 108.392 30.6691 107.834L31.9561 105.14C39.5498 104.735 36.6636 99.2443 34.0176 99.2443L35.4295 96.8442C40.8297 95.747 39.0104 92.3831 36.6636 91.2597C35.9113 90.8996 33.1551 91.7945 31.9561 92.0943C30.757 92.3941 28.771 96.2051 27.9279 98.2661C27.0848 100.327 27.9279 101.545 27.9279 101.545C27.1785 101.77 25.6144 103.58 24.8026 104.735Z" fill="white"/>
<path d="M31.9558 97.1865C33.3513 97.1552 34.4977 97.0334 35.4292 96.8442M35.4292 96.8442C40.8295 95.7471 39.0102 92.3831 36.6633 91.2598C35.911 90.8997 33.6131 91.2344 31.9558 92.0943C29.1422 93.5543 27.9659 96.8415 27.693 99.9604M35.4292 96.8442L34.0173 99.2443M34.0173 99.2443C36.6633 99.2443 39.5495 104.735 31.9558 105.14L30.6689 107.834M34.0173 99.2443C32.1068 99.4686 27.2676 100.706 25.4952 104.098C24.8752 105.09 23.608 107.459 23.4998 109.002M30.6689 107.834C32.0762 108.392 33.6388 110.221 28.6307 113.075C27.7767 113.212 25.8463 113.405 24.9566 113.075M30.6689 107.834C28.6718 107.832 24.1965 108.45 22.2721 110.932C21.792 111.478 20.661 112.895 19.9776 114.193M26.0702 113.695C26.4404 114.674 26.879 116.904 25.6715 117.984M24.4278 122.811C25.9173 122.573 28.2352 120.884 28.2352 119.232M34.0173 137.335C31.8649 134.932 33.2847 129.869 35.683 127.525" stroke="black"/>
</svg>
