<svg width="386" height="522" fill="none" xmlns="http://www.w3.org/2000/svg"><path d="m174.304 349.418-1.762-28.969 44.275 1.914-6.693 46.433-19.378 9.2-11.94-3.132-4.502-25.446Z" fill="#FF641E"/><path d="M195.422 329.74c12.807 0 23.995-3.69 22.641-13.909-.735-1.363-2.453-4.207-3.448-4.675-1.759-4.345-9.581-9.234-19.334-9.234-7.61 0-13.363 1.613-16.23 4.128-.586.462-2.139 1.519-2.842 1.99-2.511 2.223-3.977 4.904-3.977 7.791 0 7.681 10.382 13.909 23.19 13.909Z" fill="#fff"/><path d="m172.268 316.99 2.036 32.428 4.502 25.446 11.94 3.132 19.378-9.2 6.879-46.803" stroke="#000"/><path d="M177.297 307.741s-.911 4.671-.911 5.85c0 2.658 5.134 10.852 18.528 11.444 12.389 0 17.558-3.003 19.677-7.324.716-1.46.399-6.312.399-6.312" stroke="#000"/><path d="M178.377 306.718c-4.645 2.288-6.194 6.226-6.194 9.113 0 7.682 10.564 13.019 23.06 13.881 10.352.714 24.393-4.477 22.82-13.881-.407-2.431-2.475-4.534-3.935-5.728" stroke="#000"/><path d="M214.986 312.916c0 4.656-7.357 8.504-18.46 8.504-11.104 0-19.498-6.752-19.498-11.408s7.15-8.09 18.253-8.09c11.104 0 19.705 6.337 19.705 10.994Z" stroke="#000"/><path d="M191.539 267.37H158.82l-6.822-60.028 43.715-1.062-4.174 61.09Z" fill="#FF641E" stroke="#000"/><path d="M155.68 199.481c0-1.064 8.022-1.926 17.918-1.926 9.896 0 17.918.862 17.918 1.926v3.488c4.295.453 7.044 4.456.896 6.877-10.499 4.133-31.481 2.806-39.037-.884-3.518-1.718-2.246-4.883 2.305-5.54v-3.941Z" fill="#fff"/><path d="M191.516 199.481c0 1.064-8.022 1.926-17.918 1.926-9.896 0-17.918-.862-17.918-1.926m35.836 0c0-1.064-8.022-1.926-17.918-1.926-9.896 0-17.918.862-17.918 1.926m35.836 0v3.488m-35.836-3.488v3.941m0 0c-4.551.657-5.823 3.822-2.305 5.54 7.556 3.69 28.538 5.017 39.037.884 6.148-2.421 3.399-6.424-.896-6.877m-35.836.453v2.494s-.904 2.418 15.175 3.046c8.887.076 19.542-.824 20.661-3.046v-2.947" stroke="#000"/></svg>