<svg width="222" height="180" fill="none" xmlns="http://www.w3.org/2000/svg"><g clip-path="url('#clip0_694_1765')"><path d="M82.283 52.187c1.992-2.26 19.423-4.179 27.374-4.179 9.94 0 66.287 1.336 69.885 1.336 3.256 0 8.798 1.858 7.763 3.755-.947 8.648-1.912 27.632 1.804 34.39 9.609 17.471 13.792 31.163 15.473 49.067.696 7.411-.97 18.176-14.012 20.811-.589.091-1.195.183-1.815.274.162 1.268-1.406 3.343-1.406 3.343-49.355 10.642-81.762 3.433-92.114-2.65v-1.93c-2.852-.987-5.405-2.142-7.588-3.484-4.5-2.689-11.528-9.591-10.045-17.455 1.563-8.287 7.201-29.255 11.114-48.218.062-.3 3.6-15.614 3.164-16.508-.23-2.126-1.287-6.229-4.233-9.872-4.117-5.094-6.611-4.502-5.364-8.68Z" fill="#fff"/><path d="M145.563 76.626c-28.85 0-50.277-1.67-50.277 3.597-1.291 3.461-12.42 46.26-13.098 53.37-.846 8.888-.06 17.647 22.161 21.88 22.219 4.232 75.547 1.481 83.8-1.482 8.253-2.962 12.184-7.673 12.184-20.398 0-21.046-16.532-50.755-18.93-53.37 0-5.266-6.989-3.597-35.84-3.597Z" fill="#000"/><path d="M82.283 52.187c1.992-2.26 19.423-4.179 27.374-4.179 1.353 0 3.563.025 6.383.068m-33.757 4.11c0 3.27 6.484 2.809 12.387 3.287 3.069.249 7.557 1.618 11.665 2.129 28.83 3.584 57.786 1.039 73.207-1.829 5.034-.745 7.24-1.714 7.763-2.674m-105.022-.912c-1.247 4.178 1.248 3.586 5.364 8.68 2.946 3.643 4.003 7.746 4.233 9.872m95.425-17.64c1.035-1.897-4.507-3.755-7.763-3.755-1.52 0-12.452-.238-25.323-.514m33.086 4.27c-.947 8.647-1.912 27.631 1.804 34.39 9.609 17.47 13.792 31.162 15.473 49.066.696 7.411-.97 18.176-14.012 20.811-.589.091-1.194.183-1.815.274m-93.52-1.237c-2.852-.987-5.405-2.142-7.588-3.484-4.5-2.689-11.528-9.591-10.045-17.455 1.563-8.287 7.201-29.255 11.114-48.218l.185-.895m6.334 70.052v1.93c6.228 6.921 56.999 10.993 92.114 2.65 0 0 1.568-2.075 1.406-3.343m-93.52-1.237c24.229 8.388 70.046 4.711 93.52 1.237M121.629 48.169c3.494.062 8.111.238 12.291.322m4.198 0c3.756.077 7.6.158 11.361.238" stroke="#000"/><path d="M89.027 85.016c-2.065-9.68.092-13.578 1.687-14.033 2.729 2.517 23.137 1.971 50.539 1.971 21.921 0 39.37-2.821 45.354-4.232l21.649-1.049c8.782.102 10.353.778 11.563 5.281 3.019 11.232 1.001 45.15-.541 52.863-1.234 6.17-4.609 3.513-5.711 1.456-2.247-9.183-2.833-11.821-3.985-35.613-.395-8.147-1.504-11.018-3.928-11.018h-15.143s.501 3.8-1.581 4.374c-36.088 9.968-99.903 4.776-99.903 0Z" fill="#FF641E"/><path d="M0 171.08h96.868m-29.625 8.464H178.69" stroke="#000"/></g><defs><clipPath id="clip0_694_1765"><path fill="#fff" d="M0 0h221.38v179.54H0z"/></clipPath></defs></svg>