<svg width="45" height="74" fill="none" xmlns="http://www.w3.org/2000/svg"><g clip-path="url('#clip0_694_1779')"><path d="m5.477 69.015-.029-.03L.541 9.38h43.672L37.7 69.011a3.303 3.303 0 0 1-.42.44c-.387.345-1.06.827-2.175 1.317-2.23.983-6.222 1.996-13.18 1.996-6.957 0-11.13-1.013-13.544-2-1.207-.495-1.975-.982-2.433-1.335a4.417 4.417 0 0 1-.472-.414Zm-.11-.123-.002-.001h.001Z" fill="#FF641E" stroke="#000"/><path d="M4.68 1.895C4.68.848 12.574 0 22.31 0c9.738 0 17.631.848 17.631 1.895v3.432c4.227.446 6.932 4.385.883 6.766-10.332 4.068-30.977 2.762-38.412-.869C-1.05 9.534.202 6.42 4.68 5.773V1.895Z" fill="#fff"/><path d="M39.941 1.895c0 1.047-7.893 1.895-17.63 1.895-9.737 0-17.63-.848-17.63-1.895m35.26 0C39.941.848 32.048 0 22.311 0 12.574 0 4.68.848 4.68 1.895m35.26 0v3.432M4.681 1.895v3.878m0 0c-4.479.647-5.731 3.76-2.269 5.451 7.435 3.631 28.08 4.937 38.412.87 6.049-2.382 3.344-6.321-.883-6.767m-35.26.446v2.453s-.89 2.38 14.93 2.998c8.745.075 19.23-.81 20.33-2.998V5.327" stroke="#000"/></g><defs><clipPath id="clip0_694_1779"><path fill="#fff" d="M0 0h44.77v73.26H0z"/></clipPath></defs></svg>