<svg width="345" height="727" fill="none" xmlns="http://www.w3.org/2000/svg"><path d="M58.273 297.735c-1.093-20.58 17.155-49.464 26.59-58.042-.806.271-2.295.499-3.522 0-.575-.233-1.944-.838-2.307-1.461-1.424-2.44-2.56-9.257 0-13.593 3.285-5.563 6.753-9.369 11.227-9.572 4.473-.203 8.535-2.652 12.195-2.246 2.929.326 8.762-.271 11.677 0 1.762-.813 6.261-.976 8.863 0 3.254 1.22 9.557 5.491 9.963 9.558.326 3.254-.949 6.372-1.627 7.524-.677 1.152-3.05-2.782-3.05-2.782v5.824l1.424 3.262 9.394 6.771c.694.801.427 3.459.427 6.022 0 3.205-7.098 7.181-9.821 8.636-3.744 1.999-13.07 2.46-16.435 1.683 1.877 1.683 5.83 6.518 7.041 8.406 3.352 5.229 1.066 49.192-7.041 63.547 3.751 3.751 13.134 15.217 13.134 21.45 0 7.792-7.722 21.349-7.433 25.677.289 4.329-.981 4.615 2.703 9.461 4.208 5.535 5.118 6.959 4.73 9.189-4.604 3.099-13.849 3.844-16.279-14.605-2.397-18.209-4.528-21.929-5.034-23.14-3.185 1.719-5.195 1.493-6.362 0 3.032 8.639 1.521 9.805 4.501 23.14 2.994 13.396 5.378 14.142 6.895 18.93 1.518 4.788-7.428 11.082-9.804 2.838-2.558-8.877-4.8-13.645-7.672-18.634-3.322-5.769-9.565-11.563-14.421-15.747-2.508-2.161-4.646-3.892-5.82-4.968-21.578-19.779-12.987-45.482-14.136-67.128Z" fill="#fff"/><path d="M61.831 347.065c.721 6.836 8.04 16.324 11.701 18.613.967.885 2.569 2.243 4.486 3.932 4.923 4.336 11.92 10.852 15.545 17.148 2.873 4.99 4.562 6.171 5.868 15.316 1.633 11.431 11.609 3.517 10.092-1.27-1.518-4.788-2.918-3.783-5.912-17.179-2.495-11.167-2.757-22.822-8.435-32.962m19.327-17.134c3.751 3.752 11.254 12.813 11.254 19.046 0 7.792-7.214 22.221-6.926 26.549.289 4.329.068 4.677 3.752 9.523 4.208 5.536 4.12 6.547 2.269 8.639-1.852 2.092-11.383 4.788-13.812-13.661-2.073-15.745-4.114-22.069-6.305-24.127m12.893-97.83c2.14 1.827 3.016 5.326 3.685 8.309m-21.317 90.17c2.983-.373 5.82-2.993 6.361-5.967" stroke="#000"/><path d="M122.996 212.821c-2.603-.976-7.101-.813-8.863 0 2.417 2.391 7.267 7.747 7.328 10.047.075 2.876-.421 7.042 2.833 9.603 2.603 2.049 4.555 3.502 5.411 3.736l-1.423-3.262v-5.824s2.372 3.934 3.05 2.782c.678-1.152 1.953-4.27 1.627-7.524-.407-4.067-6.709-8.338-9.963-9.558ZM95.14 250.52c-6.567-1.288-8.53-8.583-8.69-12.069l-1.586 1.242c-.808.271-2.296.499-3.523 0-.576-.233-1.944-.838-2.308-1.461-1.423-2.44-2.56-9.257 0-13.593 3.286-5.563 6.754-9.369 11.227-9.572 4.474-.203 8.536-2.652 12.196-2.246 2.593.247 5.733 1.19 6.261 1.058.745-.186 9.034 8.568 8.941 12.014-.094 3.446 4.998 9.178 4.998 10.305 0 1.126-3.862 3.54-5.954 3.862-2.092.322 0 5.471 0 8.368 0 2.896-4.023 6.919-5.632 6.919s-7.724-3.218-15.93-4.827Z" fill="#FF641E" fill-opacity=".5"/><path d="M114.188 228.015c-.438-.875-3.342-.972-4.739-.911-1.003-.911 3.827-4.192 5.285-2.461 1.459 1.732 0 4.466-.546 3.372ZM128.078 227.884c-.32-.641-1.44-2.047-2.463-2.002-.734-.667 1.687-1.887 2.754-.62 1.067 1.268.109 3.422-.291 2.622Z" fill="#000"/><path d="M138.386 242.396c-1.996-2.577-14.811-7.794-16.179-13.467" stroke="#000"/><ellipse cx="110.204" cy="231.28" rx="1.704" ry="2.25" transform="rotate(12.143 110.204 231.28)" fill="#000"/><ellipse cx="127" cy="230.84" rx="1.044" ry="2.25" transform="rotate(6.015 127 230.84)" fill="#000"/><path d="M105.672 246.744c4.34 8.268 17.157 10.66 21.858 9.778 4.702-.882 8.217-3.668 9.319-4.464" stroke="#000"/><path d="M131.518 252.488c-1.818-6.682-1.635-9.209-1.635-9.209 0-2.407 6.655-2.798 8.757-2.101 2.102.696 2.412 2.905 2.31 5.198-.115 2.611-1.209 4.765-3.509 6.112-1.714 1.003-5.402 1.917-5.923 0Z" fill="#000"/><path d="M111.584 260.702c-21.387 4.967-32.886-6.479-35.128-12.056-4.635 0-4.462 3.919-3.887 5.414 12.419 21.56 36.273 15.611 41.448 13.024 4.645-2.323 3.528-8.144-2.433-6.382Z" fill="#FF641E"/><path d="M80.291 239.355c4.245 2.4 8.471-2.614 9.814-7.229 1.678-5.769-1.43-11.11 3.263-14.157.49-.318 2.266-1.294 2.628-1.544m26.027-.973c1.317 1.224 4.127 4.242 4.829 6.526m0 36.845c-5.677 1.602-12.191 1.269-18.463-.449" stroke="#000"/><path d="M76.787 301.586c-8.45-.387-10.758 2.128-19.73 3.91-4.853-6.764-12.875 34.65 6.441 41.237 8.878.406 57.437-20.987 71.147-27.822 2.022-1.011 3.377-1.399 4.934-3.17 6.094-6.98 14.299-11.044 23.285-12.988 3.678-.805 7.533-1.09 10.993-2.671 3.655-1.665 5.868-4.898 9.081-7.171.788-.562 1.212-1.275 1.386-2.019 1.724-1.062 2.897-2.748 3.388-4.73.412-1.599-.084-3.337.33-4.889.463-1.709 1.682-3.244 2.202-4.98.548-1.844.667-3.742.479-5.655-.117-1.197-.581-2.122-1.241-2.798.423-.725.859-1.44 1.258-2.175 1.597-2.92-.207-5.479-2.651-6.34a41.47 41.47 0 0 0 1.409-2.222c1.303-2.203.034-5.247-2.118-6.317-2.383-1.185-4.989-.075-6.296 2.08a4.753 4.753 0 0 0-1.963.83 62.017 62.017 0 0 1-17.869 8.736c-7.067 1.153-7.327-5.559-6.573-9.059-3.569 2.882-6.895 5.908-9.621 10.243-4.196 3.944-4.599 9.777-4.553 11.756-1.308 3.184-1.1 3.495-2.441 6.704-4.065 9.724-32.9 19.948-61.277 19.51Z" fill="#fff"/><path d="M132.665 289.528c-4.563 2.019-14.778 6.106-31.113 8.909m-14.243 1.892c-3.242.312-7.937 2.105-11.51.98m-21.27 5.566c1.406-1.082 3.32-1.958 5.562-2.676" stroke="#000" stroke-linejoin="bevel"/><path d="M150.433 313.014c-9.298-1.134-17.014-27.129-17.991-32.004 0 0-43.264 8.096-68.348 18.825-5.119 2.189-12.517 5.732-12.517 5.732l-22.758 49.665 34.774.854 19.57-6.596s15.502-4.014 21.416-7.283c24.26-13.411 45.854-29.193 45.854-29.193Z" fill="#000"/><path d="M132.442 281.01c.977 4.875 8.693 30.87 17.991 32.004m-17.991-32.004s-43.264 8.096-68.348 18.825c-5.119 2.189-12.517 5.732-12.517 5.732l-22.758 49.665 34.774.854 19.57-6.596s15.502-4.014 21.416-7.283c24.26-13.411 45.854-29.193 45.854-29.193m-17.991-32.004c1.562-1.116 2.055-1.356 3.636.669m14.355 31.335c.91-.432 2.764-2.888.708-4.62" stroke="#000"/><path d="M122.811 270.889c-3.467-.452-7.977 5.465-9.799 8.48l3.448 3.53c3.447 2.487 1.517 6.513 0 15.279-1.517 8.765 9.271 7.079 11.439 2.022 1.735-4.045.723-15.573 0-20.831-.251-2.638-1.62-8.028-5.088-8.48ZM99.158 282.899c-3.107-3.402-15.326-6.495-20.086-5.503l8.783 9.747c6.129 4.134 3.848 7.697 4.989 16.819.912 7.297 7.172 6.249 10.19 3.515 2.753-2.493 0-20.334-3.876-24.578Z" fill="#fff"/><path d="M113.012 279.369c1.822-3.015 6.332-8.932 9.799-8.48 3.468.452 4.837 5.842 5.088 8.48.723 5.258 1.735 16.786 0 20.831-2.168 5.057-12.956 6.743-11.439-2.022 1.517-8.766 3.447-12.792 0-15.279m-37.388-5.503c4.76-.992 14.368-.757 20.086 5.503 3.876 4.244 6.629 22.085 3.876 24.578-3.018 2.734-9.278 3.782-10.19-3.515-1.14-9.122.39-13.714-4.202-14.677" stroke="#000"/><path d="M133.137 286.292c10.689-13.576 2.299-11.622 12.816-23.922 3.656-4.276 6.59-6.891 9.059-8.918" stroke="#000" stroke-linejoin="bevel"/><path d="M175.446 268.13c2.41-1.214 5.926-3.177 11.142-8.822 5.216-5.646 1.473-11.711-4.607-7.153-4.171 3.118-18.645 12.096-24.402 10.632-3.585-2.114-3.604-6.58-3.165-8.549M188.537 259.482c1.954.943 3.917.81.497 7.325-3.421 6.516-4.944 6.525-5.379 9.341" stroke="#000" stroke-linejoin="bevel"/><path d="M190.157 269.968c.446 8.143-1.72 6.849-2.083 10.736-.362 3.887 1.819 7.483-3.293 11.184-5.618 4.066-11.656 10.476-20.245 10.786-11.11.411-18.92 8.914-25.337 13.565" stroke="#000" stroke-linejoin="bevel"/></svg>