<svg width="273" height="568" fill="none" xmlns="http://www.w3.org/2000/svg"><path d="M27.615 170.088c.886 5.358 0 5.943 0 9.766 0 0 7.296 2.238 12.12 2.838 6.54.909 11.637.284 11.637.284 0-5.395.058-8.868 1.427-10.763 1.368-1.894 8.788-12.844 12.327-18.083 6.35-5.502 16.72-21.482 14.815-23.586-1.524-1.684-5.557.192-7.436 1.34l-36.917 5.093c6.148-3.502 4.23-5.748 2.502-6.433l1.58-3.306C48.99 126.74 45.447 120 42.2 120l1.733-2.946c6.63-1.347 4.396-5.477 1.515-6.856-.923-.442-4.306.657-5.779 1.025-1.471.368-3.91 5.046-4.944 7.576-1.035 2.53 0 4.025 0 4.025-.92.276-2.84 2.498-3.837 3.916-.996 1.419-1.18 5.144-1.18 5.144-1.265.115-6.086 7.455-6.086 11.31 0 9.387.26 10.517 1.303 16.08 1.043 5.562 2.11 7.301 2.69 10.814Z" fill="#fff"/><path d="M39.67 111.223c1.472-.368 4.855-1.467 5.778-1.025 2.881 1.379 5.115 5.509-1.514 6.856m-4.264.42c1.713-.039 3.12-.188 4.264-.42m0 0L42.2 120c3.248 0 6.791 6.74-2.53 7.238l-1.58 3.306c1.727.685 3.646 2.931-2.502 6.433m-10.103.439c-1.048 2.019-1.527 3.431-1.863 5.778-1.017 7.098.26 10.517 1.304 16.08 1.043 5.562 2.109 7.301 2.69 10.814.885 5.358 0 5.921 0 9.743 0 0 6.953 2.265 11.852 2.79 5.857.945 11.864.448 11.864.448 0-5.395.099-8.961 1.467-10.856 1.368-1.894 8.788-12.844 12.327-18.083 6.35-5.502 16.72-21.482 14.815-23.586-.77-.851-2.18-.793-3.629-.38" stroke="#000"/><path d="M30.888 126.74c-.996 1.419-1.18 5.144-1.18 5.144 1.418 1.698 4.58 5.093 5.88 5.093 6.148-3.502 4.23-5.748 2.502-6.433l1.58-3.306C48.99 126.74 45.448 120 42.2 120l1.733-2.946c6.63-1.347 4.396-5.477 1.515-6.856-.923-.442-4.306.657-5.778 1.025-1.472.368-3.91 5.046-4.945 7.576-1.035 2.53 0 4.025 0 4.025-.92.276-2.84 2.498-3.837 3.916Z" fill="#fff"/><path d="M39.67 117.474c1.713-.038 3.12-.188 4.263-.42m0 0c6.63-1.347 4.396-5.476 1.515-6.855-.923-.442-3.744-.032-5.778 1.024-3.454 1.792-4.898 5.827-5.233 9.656m9.496-3.825L42.2 120m0 0c3.248 0 6.791 6.741-2.53 7.238l-1.58 3.306M42.2 120c-2.345.275-8.285 1.794-10.461 5.959-.761 1.217-2.317 4.125-2.45 6.02m8.8-1.435c1.728.685 3.647 2.931-2.501 6.434-1.048.168-3.418.405-4.51 0m7.012-6.434c-2.452-.002-7.945.757-10.308 3.803-.589.67-1.977 2.41-2.816 4.004m7.479-.613c.454 1.203.993 3.94-.49 5.266m-1.526 5.925c1.828-.292 4.673-2.365 4.673-4.393m7.098 22.222c-2.642-2.95-.899-9.165 2.045-12.042" stroke="#000"/></svg>