<svg width="273" height="568" fill="none" xmlns="http://www.w3.org/2000/svg"><path d="M47.955 106.023c0-3.345.092-9.827 5.457-11.55.43-.138.919-.293 1.37-.324 0 0 1.556-1.306 4.276-1.306 2.72 0 20.421 1.305 26.62 18.056.5 1.346-.051 2.466-.337 3.659.388 2.007.003 5.759-4.055 6.52l-33.33-15.055Z" fill="#fff"/><path d="M85.341 114.558c.388 2.007.003 5.759-4.055 6.52l-33.33-15.055c-.001-3.345.09-9.827 5.456-11.55.43-.138.919-.293 1.37-.324m30.56 20.409c-4.009-16.333-22.28-20.978-30.56-20.41m30.56 20.41c.285-1.193.835-2.313.337-3.659-6.2-16.75-23.901-18.056-26.62-18.056-2.72 0-4.278 1.306-4.278 1.306" stroke="#000"/><path d="M43.384 151.464c6.825 3.426 13.658 3.468 16.92.574l22.634-34.179c1.727-5.55-1.247-12.393-15.164-18.72-11.133-5.06-17.125-.4-18.535 2.439l-14.03 38.005c-1.04 3.764 1.35 8.455 8.175 11.881Z" fill="#FF641E"/><path fill-rule="evenodd" clip-rule="evenodd" d="m60.304 152.038 22.634-34.179c1.727-5.55-1.247-12.393-15.164-18.72-11.133-5.06-17.125-.4-18.535 2.439l-14.03 38.005c-1.04 3.764 1.35 8.455 8.175 11.881 6.825 3.426 13.658 3.468 16.92.574Zm-24.14-12.15 13.993-37.91c1.171-2.275 6.528-6.78 17.204-1.928 6.878 3.127 10.922 6.326 13.046 9.319 2.056 2.897 2.334 5.626 1.616 8.059l-22.477 33.944c-1.382 1.169-3.583 1.821-6.34 1.749-2.802-.072-6.073-.894-9.373-2.551-6.622-3.323-8.495-7.606-7.67-10.682Z" fill="#000"/><path fill-rule="evenodd" clip-rule="evenodd" d="M38.44 138.011c.44.947 1.259 2.107 2.404 3.329 1.338 1.429 3.091 2.912 5.121 4.205 3.928 2.503 8.831 4.258 13.727 3.608-.387-1.344-1.337-2.844-2.776-4.328-1.615-1.666-3.813-3.277-6.415-4.583-2.431-1.22-4.865-1.999-7.052-2.34-1.944-.304-3.666-.257-5.009.109Zm21.452 12.124c-5.234.718-10.403-1.159-14.464-3.746-2.099-1.337-3.917-2.874-5.314-4.365-1.212-1.294-2.13-2.579-2.625-3.689-.456.176-.794.336-1.049.545l-.636-.771c.49-.404 1.139-.645 1.799-.882 1.615-.582 3.709-.671 6-.313 2.3.359 4.832 1.172 7.346 2.434 2.69 1.351 4.983 3.025 6.685 4.781 1.69 1.742 2.831 3.6 3.16 5.33.107.438.143 1.126.146 1.48l-1 .009a8.84 8.84 0 0 0-.048-.813Z" fill="#000"/></svg>