<svg width="273" height="568" fill="none" xmlns="http://www.w3.org/2000/svg"><g clip-path="url('#clip0_665_1491')"><path d="m52.245 393.031-5.205 17.928 8.675 72.289 29.493 83.276 61.879-27.18 45.687-104.096 13.879-46.265-28.337-19.084-116.818 10.988-9.253 12.144Z" fill="#fff" stroke="#000"/><path d="m94.595 485.011 20.463-62.32m-20.463-28.835 11.162 22.324m9.301-5.605 26.977-16.719" stroke="#000"/><path d="m204.662 448.94 9.028-5.495c8.373-5.102 26.612-15.386 32.578-15.7 7.458-.393 17.663 29.83 17.663 36.503v20.41c10.048 15.387 8.112 26.56 5.887 30.223-10.597 7.589-32.735 23.708-36.503 27.476-4.71 4.71-23.158 5.102-35.718 0-10.048-4.082-9.158-25.251-7.457-35.326l14.522-58.091Z" fill="#fff" stroke="#000"/><path d="M213.682 444.044c1.349-.481 7.836.452 11.074 4.384m6.921-14.535c1.735-.096 9.228 1.846 11.881 5.421m-38.535 10.135c4.529 1.06 14.396 6.938 17.634 21.97 4.048 18.791 6.36 19.947 14.455 19.369 6.475-.462 20.621-10.792 26.885-15.9m-41.34 71.264c5.108-1.767 14.283-13.027 10.118-43.929" stroke="#000"/><path d="M216.992 413.645c-3.154 1.92-2.731 20.506-2.503 29.592l7.729 2.538c0-8.344.5-26.541 2.146-30.244 2.057-4.629 3.771.686 6.857 1.714 2.469.823 2.286 11.429 1.886 16.629.514.286 4.011.493 6.068 1.865 3.008 2.005 1.989-2.207 1.989-6.836 0-4.629-3.257-13.201-5.485-18.858-2.229-5.657-14.744 1.2-18.687 3.6Z" fill="#000" stroke="#000"/><path d="M216.688 413.594c-2.316-1.931-.965-13.352 0-18.822 13.458-2.664 20.769 1.11 22.742 3.33l-2.99 13.715-2.663 1.777c-.495 1.455-2.224 4.366-5.188 4.366-2.965 0-4.941-2.911-5.559-4.366-1.148.804-4.025 1.93-6.342 0Z" fill="#fff"/><path d="M224.659 400.036v11.781m9.118-8.616v7.033m-17.089-15.462c-.965 5.47-2.316 16.891 0 18.822 2.317 1.93 5.194.804 6.342 0 .618 1.455 2.594 4.366 5.559 4.366 2.964 0 4.693-2.911 5.188-4.366l2.663-1.777 2.99-13.715c-1.973-2.22-9.284-5.994-22.742-3.33Z" stroke="#000"/><path d="M154.876 142.368c-13.867 16.178-33.316 4.162-42.464-1.616l-48.536 66.134 19.741 90.999v91.962c9.244-4.622 61.95-5.778 87.147-5.778l15.889-164.183-15.889-85.703-18.93-3.782 3.042 11.967Z" fill="#000" stroke="#000"/><path d="M155.83 139.814c1.779 1.083 2.783 4.034.956 6.959-15.16 24.275-38.124 19.457-45.263 10.082-.737-1.387-1.461-4.424 1.541-5.484M91.453 374.908c18.762-1.513 58.555-4.085 67.634-2.27" stroke="#fff"/><path d="M70.892 149.173c-5.151 5.805-28.25 20.896-39.156 27.715l12.138 12.358-12.795 25.668-3.105 12.237-7.405 16.344-4.29 38.854 26.401 10.417c-.952 38.456-.29 59.691-1.71 71.95-1.748 6.643-3.812 10.583-4.273 13.435l-1.306 40.548 41.373 5.734 16.51-70.73 13.422-96.852-5.187-42.408-1.683-42.881L114 141.9l.904-24.117-15.517 2.196c-7.352 7.312-23.343 23.388-28.494 29.194ZM224.417 170.447c-6.469-3.504-31.5-34.066-43.207-48.909 0 0-21.27-4.507-28.048 0-11.833 7.869 10.615 14.529 10.615 14.529l6.072 19.956 2.453 29.796c-6.607.655-9.492 17.238-10.109 25.447l-13.23 31.703 9.574 79.712 7.3 57.142 10.363 58.389 40.134-13.398.402-26.012 27.798 8.15 8.678-20.586 5.317-38.369 6.318-10.584-6.062-66.037-5.674-10.023-8.763-38.703-19.931-52.203Z" fill="#fff"/><path d="M70.892 149.173c-5.151 5.805-28.25 20.896-39.156 27.715l12.138 12.358-12.795 25.668-3.105 12.237-7.405 16.344-4.29 38.854 26.401 10.417c-.952 38.456-.29 59.691-1.71 71.95-1.748 6.643-3.812 10.583-4.273 13.435l-1.306 40.548 41.373 5.734 16.51-70.73 13.422-96.852-5.187-42.408-1.683-42.881L114 141.9l.904-24.117-15.517 2.196c-7.352 7.312-23.343 23.388-28.494 29.194ZM224.417 170.447c-6.469-3.504-31.5-34.066-43.207-48.909 0 0-21.27-4.507-28.048 0-11.833 7.869 10.615 14.529 10.615 14.529l6.072 19.956 2.453 29.796c-6.607.655-9.492 17.238-10.109 25.447l-13.23 31.703 9.574 79.712 7.3 57.142 10.363 58.389 40.134-13.398.402-26.013 27.798 8.151 8.678-20.586 5.317-38.369 6.318-10.584-6.062-66.037-5.674-10.023-8.763-38.703-19.931-52.203Z" fill="#FF641E" fill-opacity=".5"/><path d="M181.21 121.539c11.707 14.842 36.738 45.404 43.207 48.909l19.932 52.203 8.763 38.702 5.674 10.023 6.061 66.037-6.318 10.585-5.317 38.369-8.678 20.585-27.798-8.15-.402 26.013-40.134 13.397-10.363-58.389-7.3-57.142-9.573-79.712 13.23-31.703c.616-8.209 3.502-24.792 10.109-25.447l-2.454-29.796-6.071-19.956M36.698 378.152 35.39 418.7l41.374 5.733 16.51-70.73 13.421-96.852-5.187-42.408-1.683-42.88L114 141.9l.904-24.117-15.517 2.197c-7.352 7.312-23.344 23.387-28.495 29.193-5.15 5.806-28.25 20.896-39.156 27.716l12.138 12.357M16.28 274.449l4.29-30.954 7.404-16.343 3.105-12.237 10.173-20.408" stroke="#000"/><path d="M32.174 178.145c10.026 9.366 31.654 28.67 37.954 30.961 6.3 2.291 15.539 1.562 19.371.912l.752 11.625c5.152 4.751 15.334 15.123 14.852 18.602m48.437 1.987c5.749-11.902 18.648-36.427 24.258-39.32 5.609-2.893 32.889-21.567 45.828-30.543m-50.812 14.299c7.354-2.598 22.521-9.033 24.364-13.986M73.07 204.315c6.52-7.657 20.19-22.884 22.706-22.535m-66.98 43.165 19.587 10.474m-30.451 43.033 26.057 3.61m12.96 22.146 23.867 3.307M53.47 238.539 47.045 284.9l-4.462 7.315-1.49 48.08.055 24.496-2.841 8.056m10.482-9.757 21.45 2.973m-29.82 43.809 23.301 3.229m40.22-164.464L72.4 420.512m98.539-168.109 29.167-3.718m7.433-53.636-.829 54.551 5.332 49.562 4.808 65.488-.954 28.272m4.734-55.55 26.874.359 11.304-2.641m-41.367-41.491 17.114-8.145 20.27-.557m-41.449-38.557 15.019-10.539 15.507-2.615m-23.778 156.406 24.44 5.786m-65.151-21.649 30.736-6.258m-36.265-57.061 29.146-3.894M71.339 244.119l20.278 2.81m71.474 9.904 11.464 120.254 11.077 54.978m3.535-11.027 20.458-4.251m-16.2-91.918 3.942 36.792 9.343-2.628-3.68-36.792-9.605 2.628Zm-140.277-6.34 7.526 2.581-3.725 34.452-8.16-3.918 4.359-33.115Z" stroke="#000"/><path d="M101.611 44.224c6.288-7.393 18.077-10.34 23.737-10.566l2.8-.29s.459-1.523.52-3.006c.053-1.311-.332-2.796-.12-4.091.219-1.346 1.381-3.207 1.381-3.207-.339-.702-1.537-2.912-3.625-6.14-2.611-4.034-.687-15.967 6.799-17.017 5.989-.84 13.647 4.242 16.727 6.887 3.08 2.646 6.665 10.427 10.921 19.294 1.79 3.73.794 9.192-1.121 10.929-1.152 1.045-3.301 2.738-4.261 2.785 8.826 2.574 13.475 19.043 14.251 22.395 1.357 5.869.907 14.765-.026 21.795 4.781 6.608-.093 11.148-3.052 17.663-2.367 5.211-7.825 7.255-10.258 7.625-4.741 11.445-2.974 26.534-.866 32.98.54 1.219 0 5.758-4.549 9.574-21.351 17.915-35.833 7.557-37.147 2.41l-1.016-17.27c-8.867.795-11.925-6.062-12.346-9.59l-2.872-7.588-6.134-23.247c-1.128-4.269 1.198-11.432 2.502-14.48l-2.083-6.401c.447-7.239 2.578-22.908 9.838-31.444Z" fill="#fff"/><path d="M134.925 54.613c16.916 4.229 9.187 18.864 16.916 34.437 5.465 11.01-5.437 22.691-15.116 29.905-9.265 6.907-.875 22.343 0 26.634M93.367 58.27c-7.393 3.759-12.595 22.748-3.595 44.503 7.677 18.556-1.504 24.072-6.77 27.834M108.301 79.294c.405 3.694-.479 11.74-4.867 17.308-1.202 1.55-2.733 5.416 1.37 7.32 1.946.903 3.456 1.381 3.641 2.741m6.054-1.066c1.792-.344 4.518-2.279 2.322-6.153m-7.355 4.088c1.102-.136 3.461-.284 4.081.215" stroke="#000"/><path d="M125.348 33.658c-5.66.227-17.449 3.173-23.737 10.567-3.633 4.27-7.016 13.384-8.512 19.278-1.493 5.884-1.102 8.548-1.326 12.165l2.083 6.4c-.903 2.113-2.297 6.2-2.693 9.932m21.543 44.974c-8.867.795-11.925-6.062-12.346-9.59l-2.871-7.588c-1.576-5.971-5.007-18.979-6.135-23.247a9.246 9.246 0 0 1-.27-1.735m21.622 42.16 1.017 17.27m-1.017-17.27c3.944-.512 10.794-1.91 17.38-4.366m25.332 9.652c-2.108-6.446-3.875-21.535.866-32.98m0 0c2.434-.37 7.892-2.414 10.259-7.625 2.958-6.515 7.832-11.055 3.052-17.663m-13.311 25.288c-1.368.116-3.733-.634-2.241-4.558 0 0 5.231-8.334 5.478-8.814 3.073-5.975 5.904-11.927 10.153-8.843m-.079-3.073c.932-7.03 1.382-15.926.025-21.795-.775-3.352-4.074-18.732-13.548-22.654m13.523 44.45c-1.693-1.26-5.777-2.374-8.575 3.237-.528 1.274-1.705 4.513-2.182 7.275m-2.766-54.962s2.406-1.481 3.558-2.526c1.915-1.737 2.912-7.2 1.121-10.929-4.256-8.867-7.841-16.648-10.921-19.294-3.08-2.645-10.738-7.726-16.727-6.887-7.485 1.05-9.41 12.983-6.799 17.018 2.088 3.227 3.287 5.437 3.625 6.139m26.143 16.479c-2.993-1.748-18.553-4.616-27.065-6.026m.922-10.453c8.355.776 25.657 4.084 28.026 11.106m-28.026-11.106c-1.602 2.566-1.145 4.476-1.261 7.298-.061 1.484-.52 3.006-.52 3.006m24.822 76.816c-1.881 6.745-6.196 11.84-8.362 13.714-2.957 2.638-6.015 4.902-9.614 6.633m22.202-30.491c5.849-1.917 6.776-5.167 8.969-4.269m-22.31-88.39c-1.179 1-1.904 3.844 4.626 7.22 6.531 3.375 6.807 3.396 6.129 2.984M138.926 4.91c-3.266-.184-9.575.997-8.679 7.197m10.876-2.558c-2.911-.503-8.81 4.834-3.06 11.465m-3.733 3.552c-.932 2.876.664 9.35 13.786 12.6m-20.559-.373c-8.302 1.095-11.484 7.58-11.154 8.681m17.487-7.586c-2.345 2.695-7.08 8.34-7.255 9.355m11.428-7.7v9.294m17.573 33.452c-.376-1.777-.303-3.914-.427-6.309-.231-4.46-4.673-18.09-11.733-21.274-3.154-1.423-26.852-6.017-30.408-5.869-7.946.333-14.585 7.809-18.423 12.671m62.086 23.32c.425.555.983 1.041 1.716 1.451.457.248 1.433.754 1.675.795" stroke="#000"/><path d="M101.966 72.431c-3.43-1.062-8.04.084-9.593.626-.905.613-.793 2.597-.352 3.479 3.452-2.555 6.921-1.919 11.432.223 1.292.613 2.725.18 2.821-.768.12-1.186-.257-2.305-4.308-3.56ZM131.643 72.198c-5.565-.673-12.455.244-14.491 2.037-1.114.981-1.591 3.791 2.038 3.5 4.537-.364 11.324-2.588 13.496-2.546 3.338.065 7.854 2.438 10.796 3.448-1.628-1.867-6.275-5.767-11.839-6.44Z" fill="#000"/><ellipse cx="102.047" cy="82.757" rx="2.986" ry="2.881" transform="rotate(9.804 102.047 82.757)" fill="#000"/><ellipse cx="130.173" cy="83.446" rx="2.986" ry="2.881" transform="rotate(9.804 130.173 83.446)" fill="#000"/><path d="M100.267 114.784c.266.484 1.225.921 2.161.978.935.057 1.56-.802 2.607-1.103 3.604-1.037 5.876-.345 9.543.919 3.077 1.06 6.106.238 7.555-.113m-20.401-1.377c.694-1.341 2.348-3.957 4.022-3.589 2.091.46 3.021.226 3.742.054.721-.172 3.227.459 5.529 2.437 2.303 1.979 4.175 2.951 5.376 2.862m2.412-2.998c-.262.896.386 2.917 2.055 3.206M102.147 117.161c-.638 3.693 11.73 7.097 17.359.606m-14.388-1.501c1.784.543 6.175 1.433 9.465.65M95.545 81.634c1.822-1.824 6.638-3.986 11.327 1.957m15.654.2c2.014-2.088 7.569-5.14 13.682-.638" stroke="#000"/><path d="M104.618 89.689c.055 3.622-7.535 5.115-13.667 3.986-6.133-1.129-8.606-3.096-8.284-4.848.323-1.753 5.29-4.012 11.903-2.794 6.133 1.128 10.37 1.903 10.048 3.656ZM134.632 89.834c.152 3.679-7.504 5.406-13.637 4.277-6.132-1.129-9.708-3.112-9.386-4.864.323-1.753 7.214-4.18 13.826-2.962 6.133 1.129 9.464 2.096 9.197 3.55Z" fill="#FF641E" fill-opacity=".5"/><path d="m156.663 83.529.039-.499-.078-.006-.077.018.116.487Zm-74.926 4.006-.215-.452a.5.5 0 0 0-.153.791l.368-.339Zm22.881 2.154-.492-.091-.009.049.001.05.5-.008Zm30.014.145-.492-.09-.01.055.002.056.5-.02Zm-.381-.486 22.527-5.333-.231-.973-22.526 5.333.23.973Zm22.372-5.32 5.291.42.079-.996-5.291-.422-.079.997Zm-64.27-2.088-10.83 5.143.428.904 10.83-5.143-.428-.904Zm-10.984 5.934.8.866.734-.678-.799-.866-.735.678Zm22.749 1.822c.011.706-.343 1.344-1.06 1.91-.725.573-1.787 1.04-3.078 1.374-2.58.664-5.937.756-8.939.203l-.181.984c3.13.576 6.635.486 9.369-.22 1.366-.351 2.574-.865 3.449-1.556.882-.697 1.457-1.604 1.44-2.71l-1 .015Zm-13.077 3.487c-3.037-.559-5.118-1.317-6.385-2.12-1.285-.814-1.602-1.575-1.497-2.146l-.984-.18c-.217 1.181.541 2.28 1.946 3.17 1.421.901 3.644 1.69 6.739 2.26l.181-.984Zm-7.882-4.266c.045-.247.288-.618.865-1.03.559-.4 1.363-.788 2.38-1.092 2.029-.608 4.843-.866 8.076-.27l.18-.984c-3.38-.622-6.355-.36-8.543.296-1.093.327-2.005.757-2.675 1.236-.651.466-1.15 1.034-1.266 1.663l.983.181Zm11.32-2.393c3.08.567 5.637 1.037 7.387 1.58.88.273 1.503.55 1.88.832.362.272.414.48.38.662l.983.181c.128-.694-.229-1.24-.762-1.642-.519-.39-1.278-.707-2.184-.988-1.821-.565-4.45-1.046-7.502-1.608l-.181.983Zm39.653 3.33c.03.721-.314 1.381-1.025 1.975-.718.6-1.78 1.1-3.072 1.465-2.583.728-5.953.877-8.949.325l-.181.984c3.136.577 6.661.426 9.401-.346 1.369-.386 2.576-.937 3.442-1.66.873-.73 1.43-1.665 1.383-2.783l-.999.04Zm-13.046 3.765c-3.039-.56-5.412-1.325-6.971-2.148-.781-.413-1.329-.825-1.658-1.209-.326-.38-.4-.685-.356-.925l-.983-.18c-.118.636.135 1.237.58 1.756.443.516 1.111.999 1.95 1.442 1.682.888 4.164 1.678 7.257 2.248l.181-.984Zm-8.985-4.282c.015-.078.081-.22.277-.417.191-.19.473-.399.846-.613.746-.427 1.8-.842 3.066-1.171 2.53-.658 5.831-.953 9.055-.36l.181-.983c-3.389-.624-6.839-.314-9.488.375-1.324.345-2.467.788-3.31 1.271-.422.242-.783.5-1.056.774-.268.267-.488.584-.554.943l.983.181Zm13.244-2.56c3.068.564 5.396 1.082 6.919 1.631.766.276 1.282.544 1.584.8.289.244.315.41.292.536l.984.18c.11-.601-.18-1.1-.631-1.481-.44-.37-1.09-.687-1.89-.976-1.609-.58-4.013-1.11-7.077-1.674l-.181.983Zm-21.878 3.11c1.442-.7 5.251-1.706 8.777-.108l.413-.91c-3.89-1.764-8.025-.659-9.626.118l.436.9Z" fill="#000"/><path d="M16.627 172.781c2.555-1.74 5.167-2.925 7.785-3.66 8.741.865 26.665 3.335 28.425 6.292 2.412 1.63 4.449 3.318 5.982 4.814l-2.889 10.779v23.776l2.889 31.572-5.982 42.898c-2.475 5.491-16.364 3.66-22.999 2.059l-13.211-8.923-2.68-21.62-12.593-34.661 2.06-19.905 10.534-24.192 2.679-9.229Z" fill="#fff"/><path d="M16.627 172.781c2.555-1.74 5.167-2.925 7.785-3.66 8.741.865 26.665 3.335 28.425 6.292 2.412 1.63 4.449 3.318 5.982 4.814l-2.889 10.779v23.776l2.889 31.572-5.982 42.898c-2.475 5.491-16.364 3.66-22.999 2.059l-13.211-8.923-2.68-21.62-12.593-34.661 2.06-19.905 10.534-24.192 2.679-9.229Z" fill="#FF641E" fill-opacity=".5"/><path d="M58.819 180.227c-9.046 7.209-39.998 0-42.192-7.446l-2.68 9.228c10.552 6.22 32.92 13.795 41.983 8.997l2.889-10.779Z" fill="#fff"/><path d="M58.819 180.227c-9.046 7.209-39.998 0-42.192-7.446l-2.68 9.228c10.552 6.22 32.92 13.795 41.983 8.997l2.889-10.779Z" fill="#FF641E" fill-opacity=".5"/><path d="M16.627 172.781c2.194 7.446 33.147 14.655 42.192 7.446m-42.192-7.446c2.555-1.74 5.167-2.925 7.785-3.66m-7.785 3.66-2.68 9.229m44.872-1.783c-1.533-1.496-3.57-3.184-5.982-4.814m5.982 4.814-2.889 10.779m-41.982-8.996c10.551 6.219 32.92 13.794 41.982 8.996m-41.982-8.996L3.414 206.202l-2.06 19.905 12.594 34.661 2.679 21.62 13.211 8.923c6.635 1.601 20.524 3.432 22.999-2.059l5.982-42.898-2.889-31.572v-23.776M8.561 208.605c9.1 3.432 29.597 9.471 38.78 6.177M8.56 232.284c8.694 5.949 29.376 17.09 42.554 14.07m-31.229 17.503c6.288 2.059 20.582 5.559 27.454 3.088" stroke="#000"/></g><defs><clipPath id="clip0_665_1491"><path fill="#fff" transform="translate(.242)" d="M0 0h272v568H0z"/></clipPath></defs></svg>