<svg width="386" height="522" fill="none" xmlns="http://www.w3.org/2000/svg"><path d="M172.626 324.259c-6.894-.46-13.469 3.511-15.895 5.553l-3 13.388s-4.342 22.963-3.187 33.905c.344 3.254 2.483 5.414 2.483 5.414 1.052-.21 3.349-.505 4.864 0 1.894.631 2.936 3.396 5.565 3.135 8.314-.825 11.974-2.533 13.467-3.135 1.492-.601 7.374 1.211 9.335 1.211 1.962 0 4.087-.807 4.904-1.211 5.188-2.119 16.247-7.04 18.976-9.769 2.729-2.729 3.553-5.615 3.624-6.716-.071-.676-.554-2.047-1.919-2.132l2.879-3.732c1.35-2.523 2.878-7.547-1.813-7.462.711-2.381 1.345-7.247-3.346-6.565-5.709.831-5.502 2.407-11.472 3.473-3.988.713-21.351 2.151-28.265-4.627-.933-2.385-2.24-7.299 0-7.871 2.24-.572 3.492-2.375 3.956-3.195l-1.156-9.664Z" fill="#fff"/><path d="M152.758 382.519c1.052-.21 3.061-.505 4.576 0 1.894.631 3.716 3.209 7.046 2.878 5.796-.574 9.432-1.56 10.797-2.32m36.666-19.176c1.365.086 1.848 1.457 1.919 2.132-.071 1.102-.895 3.987-3.624 6.717-.867.867-2.575 1.955-4.668 3.104m6.373-11.953 2.879-3.731c1.35-2.523 2.878-7.547-1.813-7.462m-1.066 11.193c-6.27 3.139-13.752 8.849-18.639 9.591-7.418 1.126-18.068-.932-25.146-.742m44.851-20.042c.711-2.381 1.345-7.247-3.346-6.565-5.709.831-5.502 2.407-11.472 3.473-3.988.712-21.351 2.151-28.265-4.628-.933-2.385-1.91-6.568 0-7.87 1.932-1.317 2.634-1.896 3.635-2.815l-.536-10.101c-6.045-.403-12.036 2.625-15.096 4.774m55.08 23.732c-11.646 10.942-26.829 9.76-41.705 8.28m-7.748 17.657c3.539 1.265 13.467 3.874 13.467 3.874s7.374 1.211 9.335 1.211c1.962 0 4.087-.807 4.904-1.211 2.647-1.081 6.823-2.892 10.64-4.769" stroke="#000"/><path d="M167.415 246.576c-6.367-.707-8.934 1.433-9.131 2.472-.196 1.039-.968 4.497 3.629 5.811 0 0-4.074-.252-5.598 1.12-1.525 1.371-2.605 4.874 2.381 6.609 4.986 1.734 11.607 1.222 23.716 9.025-3.026.723-15.697-3.262-22.09-6.18-4.02-1.151-8.456 4.116-2.71 7.525 2.134 1.267 7.011 4.117 9.144 4.952-3.177 0-4.813 2.795-3.558 5.113.846 1.158 1.979 2.822 7.105 5.188 5.126 2.366 11.843 5.086 13.84 5.839 15.156-1.091 22.622-17.451 23.465-21.262.514-2.328-3.795-10.452-9.352-14.805-8.358-6.546-20.598-10.269-30.841-11.407Z" fill="#fff"/><path d="M208.756 271.701c-4.636 16.389-17.312 20.966-24.336 22.349M184.512 293.445c-1.997-.753-9.083-2.868-14.209-5.234-5.126-2.366-6.259-4.03-7.105-5.188-1.019-1.883-.131-4.081 1.942-4.839m18.689-6.294c-3.342-.859-7.214-6.457-25.133-9.302-5.214-.828-3.906-5.238-2.381-6.609 1.524-1.372 5.598-1.12 5.598-1.12 3.118-.044 10.425.521 14.702 3.124 4.277 2.603 10.154 4.155 12.558 4.605m-9.882 19.072c-3.63.547-9.869-2.272-12.535-3.75-2.133-.835-7.01-3.685-9.144-4.952-5.746-3.409-1.31-8.676 2.71-7.525 5.236 2.39 15.634 5.681 20.888 6.397m-21.639-18.121c-1.939-1.587-1.439-3.854-1.287-4.661.197-1.039 2.764-3.179 9.131-2.472 10.243 1.138 22.483 4.861 30.841 11.407 4.231 3.314 7.602 8.895 9.126 12.411" stroke="#000"/></svg>