<svg width="345" height="727" fill="none" xmlns="http://www.w3.org/2000/svg"><path d="M69.058 361.386c-2.482 8.674-13.166 10.25-17.817 11.554 0 3.855 15.422 10.298 26.777-3.33-1.917-1.689-3.52-3.046-4.486-3.932l-4.474-4.292Z" fill="#fff"/><path d="m51.241 372.94-.135-.481a.5.5 0 0 0-.365.481h.5Zm17.817-11.554.346-.361-.599-.574-.228.798.48.137Zm4.474 4.292-.346.361.008.008.338-.369Zm4.486 3.932.384.32.311-.374-.365-.321-.33.375Zm-26.642 3.812c2.269-.636 6.186-1.378 9.796-3.041 3.63-1.672 7.07-4.324 8.366-8.857l-.961-.275c-1.185 4.14-4.328 6.613-7.823 8.224-3.515 1.619-7.265 2.318-9.648 2.986l.27.963Zm21.818-7.375c.97.889 2.589 2.261 4.493 3.938l.661-.75c-1.93-1.7-3.516-3.043-4.478-3.926l-.676.738Zm-22.453 6.893c0 .647.32 1.281.805 1.848.49.573 1.187 1.121 2.033 1.608 1.694.974 4.05 1.734 6.756 1.934 5.427.4 12.281-1.456 18.067-8.4l-.769-.64c-5.568 6.684-12.103 8.42-17.225 8.042-2.57-.189-4.778-.911-6.33-1.803-.777-.447-1.375-.927-1.772-1.391-.402-.47-.565-.881-.565-1.198h-1Zm23.137-7.623-4.474-4.292-.693.722 4.475 4.292.692-.722Z" fill="#000"/></svg>