<svg width="208" height="208" fill="none" xmlns="http://www.w3.org/2000/svg"><path d="M45.44 76.926c1.738-1.972 16.95-3.646 23.888-3.646 8.673 0 57.843 1.165 60.983 1.165 2.841 0 7.677 1.621 6.774 3.277-.827 7.546-1.669 24.112 1.574 30.01 8.385 15.245 12.035 27.193 13.502 42.816.607 6.467-.847 15.861-12.228 18.16-.513.08-1.042.16-1.583.24.141 1.106-1.227 2.916-1.227 2.916-43.068 9.287-71.347 2.997-80.38-2.311v-1.685c-2.49-.861-4.717-1.869-6.622-3.04-3.927-2.347-10.06-8.37-8.765-15.232 1.364-7.231 6.283-25.529 9.698-42.076.054-.261 3.142-13.625 2.761-14.405-.2-1.855-1.124-5.435-3.694-8.615-3.592-4.444-5.769-3.927-4.68-7.574Z" fill="#fff"/><path d="M56.742 169.553v-1.685c21.143 7.32 61.124 4.111 81.608 1.08.141 1.106-1.227 2.916-1.227 2.916-43.068 9.287-71.347 2.997-80.38-2.311Z" fill="#000"/><path d="M45.44 76.926c1.738-1.972 16.95-3.646 23.888-3.646 1.18 0 3.109.021 5.57.059M45.44 76.926c0 2.853 5.658 2.45 10.808 2.868 2.678.217 6.595 1.411 10.18 1.857 25.157 3.128 50.425.907 63.882-1.595 4.393-.65 6.317-1.496 6.774-2.334m-91.644-.796c-1.089 3.647 1.088 3.13 4.68 7.574 2.57 3.18 3.493 6.76 3.694 8.615m83.27-15.393c.903-1.656-3.933-3.277-6.774-3.277-1.327 0-10.866-.208-22.097-.448m28.871 3.725c-.827 7.546-1.669 24.112 1.574 30.01 8.385 15.245 12.035 27.193 13.502 42.816.607 6.467-.847 15.861-12.228 18.16-.513.08-1.042.16-1.583.24m-81.608-1.08c-2.488-.861-4.716-1.869-6.62-3.04-3.928-2.347-10.06-8.37-8.766-15.232 1.364-7.231 6.283-25.529 9.698-42.076l.161-.78m5.527 61.128v1.685c5.435 6.038 49.739 9.592 80.381 2.311 0 0 1.368-1.81 1.227-2.916m-81.608-1.08c21.143 7.32 61.124 4.111 81.608 1.08M79.775 73.42c3.049.054 7.077.207 10.725.28m3.663 0c3.278.068 6.632.14 9.914.209" stroke="#000"/><path d="M51.326 105.574c-1.802-8.448.08-11.85 1.471-12.246 2.382 2.196 20.19 1.72 44.102 1.72 19.129 0 34.355-2.462 39.577-3.693l18.891-.915c7.663.089 9.034.678 10.09 4.608 2.634 9.802.874 39.399-.472 46.129-1.077 5.384-4.022 3.066-4.984 1.271-1.961-8.014-2.472-10.316-3.477-31.077-.344-7.109-1.313-9.614-3.428-9.614h-13.214s.437 3.315-1.379 3.817c-31.491 8.698-87.177 4.167-87.177 0Z" fill="#FF641E"/><path d="M49.477 131.147c0-4.596 20.409-8.321 45.584-8.321 25.175 0 48.993 3.447 48.993 8.043 1.268 6.338 3.015 9.338 3.605 18.202.739 11.08-2.636 14.107-9.838 16.692-7.202 2.585-53.736 4.986-73.126 1.293-19.389-3.694-20.076-11.337-19.337-19.093.59-6.205 2.992-13.796 4.12-16.816Z" fill="#000"/><path d="M143.673 130.996c0-4.596-23.437-8.17-48.612-8.17-25.176 0-45.584 3.725-45.584 8.321m94.196-.151c1.688 4.111 3.425 9.654 3.986 18.075.739 11.08-2.968 14.436-10.17 17.021-7.201 2.586-52.686 5.148-72.075 1.454-19.39-3.693-20.795-11.827-20.057-19.583.591-6.205 2.993-13.796 4.12-16.816m94.196-.151c0 1.968-6.774 6.078-13.035 7.503m-81.161-7.352c0 4.595 20.408 10.47 45.584 10.47 10.894 0 20.896-.698 28.737-1.862" stroke="#fff"/></svg>