<svg width="56" height="56" fill="none" xmlns="http://www.w3.org/2000/svg"><path d="M8.384 17.547H0v8.434h8.384v-8.434Z" fill="#FF3495"/><path d="M19.023 40.126V25.981h8.384v-8.434h-8.384V8h-8.435v27.478c0 7.212 5.868 13.079 13.08 13.079h6.913v-8.43H19.023ZM55.34 40.124H32.78v8.435h22.56v-8.434ZM55.998 25.98c0-7.27-5.914-13.185-13.183-13.185-7.27 0-13.184 5.914-13.184 13.184h8.434a4.757 4.757 0 0 1 4.751-4.751 4.757 4.757 0 0 1 4.752 4.751 4.757 4.757 0 0 1-4.752 4.751H32.784v8.435h6.672l4.065-.02C50.464 38.778 56 33.015 56 25.981l-.003-.002Z" fill="#000"/></svg>