<svg width="61" height="45" fill="none" xmlns="http://www.w3.org/2000/svg"><path d="M9.133 10.4H0v9.187h9.133v-9.188Z" fill="#FF3495"/><path d="M20.72 34.995V19.587h9.133v-9.188H20.72V0h-9.187v29.931c0 7.856 6.391 14.247 14.247 14.247h7.531v-9.183H20.72ZM60.282 34.993H35.707v9.187h24.575v-9.187ZM60.998 19.585c0-7.92-6.442-14.361-14.36-14.361-7.92 0-14.362 6.442-14.362 14.36h9.188a5.182 5.182 0 0 1 5.175-5.175 5.182 5.182 0 0 1 5.176 5.176 5.182 5.182 0 0 1-5.176 5.175H35.711v9.187h7.268l4.427-.02C54.97 33.525 61 27.248 61 19.586l-.002-.002Z" fill="#1D1D1B"/></svg>