<svg width="386" height="522" fill="none" xmlns="http://www.w3.org/2000/svg"><g clip-path="url('#clip0_665_1264')"><path d="M57.554 481.01c-2.285 8.857-13.08 30.524-14.718 41.529h163.788l-10.307-86.398H57.554c0 17.239 3.702 30.512 0 44.869Z" fill="#fff"/><path d="M156.345 473.122c-5.821 13.096-16.593 40.728-18.317 46.978m-95.192 2.439c1.639-11.005 12.434-32.672 14.718-41.529 3.702-14.357 0-27.63 0-44.869h138.763l10.307 86.398H42.836Z" stroke="#000"/><path d="M230.691 176.842h-24.114l-10.941-1.786-4.912 18.532v18.086l-2.679 44.656 10.494 13.173 11.689 8.043 12.872-38.632 29.919-38.181-9.824-14.959-6.029-10.718-6.475 1.786Z" fill="#fff"/><path d="M100.848 105.11h8.934l54.193 15.513 2.45 3.704 6.615 5.9 3.82 26.411v36.101l5.145 10.849 15.431 81.294v91.831l17.689 62.1-46.669 3.387-32.367-148.662-12.796-121.564c-.058-6.524-1.041-20.636-4.508-24.891-3.467-4.254-15.762-9.639-21.477-11.799-4.046-1.124-11.889-3.723-15.934-3.723-4.046 0-6.648 4.946-9.014 6.926-4.227 3.538-9.103 7.586-9.103 7.586l3.856-14.512 3.297-3.112-2.056-5.457s5.718-13.763 14.552-16.45c5.8-1.764 12.179.085 17.942-1.432Z" fill="#fff"/><path d="M100.848 105.11h8.934l54.193 15.513 2.45 3.704 6.615 5.9 3.82 26.411v36.101l5.145 10.849 15.431 81.294v91.831l17.689 62.1-46.669 3.387-32.367-148.662-12.796-121.564c-.058-6.524-1.041-20.636-4.508-24.891-3.467-4.254-15.762-9.639-21.477-11.799-4.046-1.124-11.889-3.723-15.934-3.723-4.046 0-6.648 4.946-9.014 6.926-4.227 3.538-9.103 7.586-9.103 7.586l3.856-14.512 3.297-3.112-2.056-5.457s5.718-13.763 14.552-16.45c5.8-1.764 12.179.085 17.942-1.432Z" fill="#FF641E" fill-opacity=".5"/><path d="m29.532 172.245 34.634-26.814 12.547-13.043s4.995-1.915 8.332-1.574c14.038 1.435 26.949 7.693 36.048 17.962 5.346 9.004 7.935 18.002 11.237 28.114 6.354 22.242 16.679 74.367 17.587 79.843 5.929 35.768 9.16 48.673 13.554 69.268.496 2.327 8.107 47.513 11.477 66.593l13.106 23.679v33.051s-33.535 9.173-61.01 8.743c-30.304-.473-43.914 2.611-77.605-8.619-4.523-8.444-1.884-18.095 0-21.864-.502-3.644-1.884-11.536-3.392-13.948-1.885-3.016-2.639-30.462-3.016-39.582-.301-7.295-4.37-12.625-6.367-14.378-11.455-4.483-30.221-22.412-34.69-27.392-3.575-3.985-1.49-22.699 0-31.558 1.366-4.345 4.171-18.323 4.469-39.476.298-21.153 15.517-68.151 23.09-89.005ZM206.991 272.214l-6.26-69.569-6.319-6.319-16.5 33.001 14.745 44.586 14.334-1.699Z" fill="#000"/><path d="m29.532 172.245 34.634-26.814 12.547-13.043s4.995-1.915 8.332-1.574c14.038 1.435 26.949 7.693 36.048 17.962 5.346 9.004 7.935 18.002 11.237 28.114 6.354 22.242 16.679 74.367 17.587 79.843 5.929 35.768 9.16 48.673 13.554 69.268.496 2.327 8.107 47.513 11.477 66.593l13.106 23.679v33.051s-33.535 9.173-61.01 8.743c-30.304-.473-43.914 2.611-77.605-8.619-4.523-8.444-1.884-18.095 0-21.864-.502-3.644-1.884-11.536-3.392-13.948-1.885-3.016-2.639-30.462-3.016-39.582-.301-7.295-4.37-12.625-6.367-14.378-11.455-4.483-30.221-22.412-34.69-27.392-3.575-3.985-1.49-22.699 0-31.558 1.366-4.345 4.171-18.323 4.469-39.476.298-21.153 15.517-68.151 23.09-89.005ZM206.991 272.214l-6.26-69.569-6.319-6.319-16.5 33.001 14.745 44.586 14.334-1.699Z" stroke="#000"/><path d="M218.265 203.433c-6.814 4.542-14.909 45.799-11.053 68.872-10.258 18.372-20.068 21.792-24.37 21.938.096 1.533 3.465 5.972 4.473 7.815l-.762 80.357 3.843 138.437h194.752c-1.747-9.318-44.347-132.708-45.111-138.437-.611-4.584-12.986-29.92-19.098-42.015 1.848-5.474 5.046-18.104 3.056-24.826-2.487-8.403 4.273-22.765 2.487-35.218-1.785-12.453 0-25.446 0-31.124 0-5.678-6.939-24.92-10.094-29.021-3.154-4.1-40.06-28.074-51.416-26.181-11.356 1.893-38.191 3.725-46.707 9.403Z" fill="#fff"/><path d="m187.314 302.058-.761 80.357 3.615 138.437h194.98c-1.747-9.318-44.347-132.708-45.111-138.437-.611-4.583-12.987-29.919-19.098-42.014 1.848-5.475 5.046-18.105 3.056-24.827-2.488-8.403 4.273-22.765 2.487-35.218-1.786-12.453 0-25.446 0-31.124.109-2.433-1.146-9.386-7.034-17.727M154.203 163.429c-1.01-2.576-1.637-7.152 3.94-4.849.505.909 1.485 2.94 1.363 3.788m1.765-1.878c-.753-1.665-1.664-5.09.714-5.47 2.378-.381 2.893 2.616 2.854 4.162m0 38.763c-.674-8.323-2.497-26.611-4.4-33.175-1.902-6.564-6.465-6.159-5.351-4.28 1.115 1.878 6.897 25.845 6.183 39.294m8.205-31.565c-.19-3.806-4.75-9.164-7.167-11.146-.436-.238-.891 1.707-.324 3.768 1.308 4.757 4.994-.47 8.561 33.894m-38.817-15.618c1.162 3.009 5.13 4.676 10.452 3.42 4.216-.994 8.918-8.502 13.502-7.001m7.564-.887h3.481m-44.27-25.97c1.459 3.34 5.499 16.091 9.271 16.091m9.277 1.546 13.197 3.258M99.55 106.028c1.523-.358 5.401.242 8.733 5.509m-37.38 15.651c3.673-4.121 5.71-10.817 14.001-13.098 2.798-.77 8.017 0 10.212 0m-28.623 23.888 10.12-11.526m37.415-10.666c5.649 7.261 19.188 23.489 28.153 28.899 11.208 6.763 10.602 6.41 14.687 10.335m-1.185-7.848c-.03 1.522.166 4.736 1.185 5.41m7.971-30.669 6.84 7.018m-108.63 17.105c1.148-4.386 3.444-13.304 3.444-13.889 0-.731 3.765-3.947 3.765-3.947m-2.092-3.656c2.679-6.172 9.777-18.516 16.738-18.516 8.702 0 23.23-1.384 24.258-.988" stroke="#000"/><path d="M40.919 361.302c20.652 15.637 62.979 24.77 71.944 25.766 8.965.996 22.526 0 30.17 0 6.116 0 10.011-2.596 11.194-3.894-1.729.637-5.133-1.146-4.915-13.377.219-12.231 4.642-32.762 6.826-41.498-7.231-.729-22.745-6.422-29.384 3.933m0 0c-7.073-6.705-25.562-20.202-42.937-20.543l-13.704-19.786 3.363-64.503m53.278 104.832c-2.476 1.319-13.891 32.398-4.601 42.441m-89.83-201.255c6.995-3.283 25.531-2.369 32.638 15.266M9.213 317.816c3.976-6.981 15.882-21.234 31.706-22.397m-15.416 22.397 36.068-20.361M50.36 341.073c2.664-9.795 11.017-29.384 23.117-29.384m4.734-176.666c1.869 4.494 5.607 15.489 5.607 23.516-.615 2.926-.465 8.904 5.053 9.406 6.898.627 25.397-5.473 32.922 0 6.02 4.378 10.243 33.388 11.601 47.345 1.724 11.497 6.064 37.187 9.64 47.973 3.576 10.786 7.605 45.255 9.173 61.141m-80.564 58.77-10.07 30.893m18.8-26.999c-3.93 10.454-11.482 32.309-10.259 36.092l-8.542-4.001M50.36 429.343c16.205 2.304 51.392 7.056 62.504 7.638 11.112.582 49.167-3.152 66.805-5.092" stroke="#fff"/><path d="M231.539 74.183c-6.34-1.396-13.722-1.187-16.175 0l-23.888 9.08-15.631 37.094c-2.556 4.639-6.642 18.981-5.278 26.026 1.363 7.044 2.521 12.21 3.09 13.252l-3.09 11.641c0 12.076 3.09 21.645 4.846 33.787l19.214 4.977c-.915-1.243 17.195-16.328 15.215-25.416-1.979-9.088-.785-7.851-2.551-12.071l19.223-3.114 22.084-14.753c-3.804 8.685-18.258 17.922-17.633 25.834.499 6.329-32.122 29.52-11.497 73.514 1.623-10.766 2.738-26.216 11.497-35.681 9.426-10.186 15.068-12.815 21.559-17.151 7.844-5.239 13.967-7.315 21.383-5.239 5.934 1.66 8.032 3.826 14.799 7.846 8.757 5.2 18.762 8.012 24.427 16.417 4.6 6.824 9.096 17.236 12.257 20.901-1.24-2.864-3.894-10.596-4.581-18.614-.86-10.023-11.425-22.235-16.073-26.55-4.647-4.316-1.991-12.946-3.983-21.908-1.991-8.963-13.133-13.635-17.57-16.766-6.534-4.613-6.844-12.897-7.081-21.679-.19-7.025-5.459-13.054-8.07-15.19-.756-.672-1.205-2.421-1.335-3.212 0-9.642-5.916-24.698-11.141-29.484-5.929-5.432-13.783-11.287-24.017-13.54Z" fill="#000"/><path d="M246.393 132.176c.542 5.654 3.199 2.934 6.004 5.654 1.414 3.57 1.164 14.754-6.964 18.56l3.267-1.183s-5.765 9.351-13.092 15.953c-5.945 5.356-2.872 7.735-5.208 11.739-1.924 3.298-5.153 7.549-9.561 14.966-4.094 6.888-5.808 12.492-5.808 12.492l-6.456-29.213c-8.253-1.276-15.545-9.929-19.913-20.599-4.187-17.681 0-19.125 0-38.564 4.085-16.101 1.542-19.506 12.632-24.268 6.013-1.404 7.957-.13 9.619-.855 2.733-1.193 7.027-2.389 12.35-1.93 17.895 1.538 21.76 22.959 23.13 37.248Z" fill="#fff"/><path d="M192.953 104.391c-3.171 3.642-4.29 13.564-4.099 19.752 0 12.978-6.358 27.502 1.424 39.671 5.195 8.124 9.83 16.031 18.297 17.317 3.858.586 10.416-3.056 16.973-6.328 8.01-3.985 17.088-9.473 17.801-22.016m-47.36-52.048c.234-1.061 4.127-4.627 15.12-3.844m37.371 27.248c-1.116-5.683 3.041-15.335-3.287-24.14-5.209-7.247-26.52-11.09-34.834-5m-1.505 87.045 5.832 28.951" stroke="#000" stroke-linejoin="bevel"/><path d="M210.326 126.813c-.751 7.22-2.674 10.339-4.788 12.135-2.114 1.795.586 5.615 5.832 7.563M212.987 142.512c1.795.42 2.445 1.796 2.445 2.33M218.971 118.625c3.196-1.987 10.479-2.98 14.783.776M221.372 155.067c-4.787 3.183-15.853 5.029-22.588-.497M205.602 119.338c-3.196-1.986-10.479-2.979-14.783.777M203.972 132.848c-2.496-1.553-8.162-2.317-11.524.598M232.124 132.848c-2.496-1.553-8.162-2.317-11.523.598M249.856 143.264c-1.579.637-3.4 3.922-3.183 6.494" stroke="#000" stroke-linejoin="bevel"/><path d="M243.896 157.538c12.899-4.139 11.638-34.01 0-13.638M218.431 156.328c-7.067-6.328-6.952-2.559-9.219-2.47-2.05.076-4.355-3.986-7.805 1.846M204.322 160.708c2.496 1.553 8.162 2.317 11.524-.599" stroke="#000" stroke-linejoin="bevel"/><path d="M252.271 84.893c10.714 8.459 13.476 25.907 14.426 32.315m1.335 3.212c2.611 2.136 7.88 8.164 8.07 15.19.238 8.782 2.822 18.999 6.62 21.372 3.797 2.374 16.04 8.11 18.031 17.072 1.992 8.963-.663 17.593 3.984 21.908 4.647 4.316 15.213 16.528 16.072 26.551.687 8.018 3.341 15.75 4.582 18.614m-74.458-123.919c-4.287 7.919 0 21.104 4.313 19.53m-7.897 20.244c-3.804 8.685-21.671 12.831-16.699 41.481m-55.752-76.014c-2.557 4.639-5.465 17.417-4.102 24.462 1.364 7.044 2.267 12.283 2.836 13.325m9.243-34.885c2.427 12.881-10.822 30.837-12.079 46.753-.683 8.661 2.836 23.079 3.538 24.736m49.993-105.906c-1.8-5.319-22.587-11.072-31.819 7.09m44.16-5.934c2.099-2.571 0-10.058-11.187-12.228m17.722 15.367c.197-2.529 2.882-6.278 12.043-1.047m-7.596 5.232c6.711-.368 18.879 4.656 13.864 27.704-5.015 23.047 13.258 37.524 23.021 41.881m-26.237 26.963c3.356-.728 11.616-5.796 17.804-20.249m-79.72 31.929c3.558-4.323 11.186-12.361 13.535-18.921" stroke="#fff"/><path d="M221.876 273.618c4.746-12.849 13.866-38.163 13.866-43.997-.347-2.547-2.229-5.611-2.229-5.611s8.133-9.206 14.384-12.795l2.244-7.235m-43.14 68.082c2.837.211 10.14 5.861 11.428 5.861m-11.428-5.861c-4.636 16.389-17.312 20.967-24.336 22.349l4.635 7.45m19.701-29.799c-1.192-10.236-3.695-36.775 9.097-63.321M284.6 316.436c-5.51-10.213-17.778-31.121-22.777-33.056-6.248-2.419-13.405-2.266-21.212-3.242-6.048-.756-18.935-4.706-24.222-5.739m57.846 20.842c2.869-.932 10.758-1.807 19.363 2.151 8.606 3.959 22.948 16.423 29.044 22.16m-40.873-12.101c4.055 1.794 13.43 7.628 18.484 16.612m-16.846 5.616c9.904 9.243 28.123 19.535 21.759-13.243m-11.568-66.212c8.889 15.042 25.071 44.048 26.973 53.729m-72.674-71.258c-2.53 6.946-4.049 28.635 7.169 44.577m-41.033-1.81c3.455-3.951 4.892 3.095 5.234 7.918.599 8.474-1.862 17.045-5.111 24.071m-.123 31.971c6.646.87 22.723 4.231 33.864 10.722 11.141 6.49 20.059 8.886 23.125 9.272h29.231c3.006 0 9.829-.637 13.074-3.187 3.245-2.55 6.182-11.108 7.244-15.068m-72.674 53.775c12.576-4.853 43.61-14.558 67.135-14.558m1.747 4.076c-36.569.699-61.158 9.803-68.882 14.267.796 5.001 2.849 15.427 4.69 17.126 2.3 2.124 3.185 6.548 16.281 1.062 10.477-4.389 37.519-9.38 49.73-11.326 2.478-.268 7.221-2.016 6.371-6.862l-6.371-11.898" stroke="#000"/><path d="M104.017 85.983c.554 6.656 4.044 16.579 8.437 21.66 28.756-29.005 82.343-26.708 82.948-23.48.484 2.582 3.062 2.289 4.29 1.82 14.952 0 21.215-16.49 18.773-21.79-2.442-5.302-4.566-5.302-4.566-5.302 3.44-3.44 5.877-12.89 6.666-17.185.516-12.041-7.311-16.574-13.332-14.853-.835-9.16-10.095-14.568-14.621-16.127-5.664-5.334-12.662-6.066-15.453-5.765-11.439-7.973-22.878-1.733-35.358 0-9.983 1.387-14.559 5.893-15.599 7.973-15.807 3.328-17.91 12.941-16.986 17.332-3.761 1.715-14.66 11.65-7.707 16.382 2.006 1.365 2.508 2.82 2.508 3.377-.555 2.219-4.853 4.391-6.933 5.2-9.43 4.992 1.502 23.016 6.933 30.758Z" fill="#000"/><path d="M199.798 43.353c-1.725-2.683-6.71-4.013-9.425-4.572-.757-.155-2.194-.37-1.882 0-3.917 9.015-12.122 15.405-24.716 16.99-3.361 0-5.605-1.33-6.905-2.863-4.559 1.723-10.719 0-18.296 19.788-1.758-7.139-5.695-12.156-9.906-10.67-1.269.448-4.18 2.09-4.627 5.262-.246 1.74-.443 4.575-.669 6.242-1.193 8.8-7.379 32.727-12.035 38.269 28.457 35.296 41.414 41.546 45.786 33.873-.202-1.817 4.35-17.104 6.652-24.52 2.103.241 4.116.378 6.209.535 10.798.808 13.083-3.47 12.847-10.881l.237-3.085c1.897-.563 4.305-2.799 3.242-3.938l-.996-.718c2.205.877 3.048-1.722 3.193-3.131v-7.569c1.338.306 2.56.526 4.057.526 3.396 0 4.33-4.408 2.736-7.246-.266-.563-.111-1.603 0-2.053 2.768-10.945 7.723-12.03 6.498-17.467-.462-4.231-1.308-18.457-1.308-20.618l-.692-2.154Z" fill="#fff"/><path d="M112.454 107.643c-4.393-5.081-7.883-15.004-8.437-21.66m0 0c-5.431-7.742-16.362-25.766-6.933-30.758 2.08-.809 6.378-2.981 6.933-5.2m0 35.958v-5.398m-3.841-38.88c0 5.069 27.875 13.52 34.488-8.665m-25.448-2.774c-.924-4.39 1.862-14.852 17.669-18.18m0 0c1.04-2.08 4.933-5.738 14.916-7.125 12.48-1.733 23.919-7.973 35.358 0 2.791-.301 9.789.43 15.453 5.765m-65.727 1.36c-1.399 2.163-3.324 7.106-1.965 11.385m74.772 18.235c6.239-6.933 12.964-22.394-10.053-28.772-7.28 2.889-23.364 5.893-29.465-5.2m47.059 19.119c6.021-1.72 13.848 2.812 13.332 14.853-.789 4.295-3.226 13.744-6.666 17.184 0 0 2.124 0 4.566 5.302 2.442 5.302-3.821 21.79-18.773 21.79m7.541-49.884c2.939.932 7.526 4.688 2.366 12.257-6.451 9.46-7.311 9.675-2.366 19.996m-14.621-41.498c-2.245 10.842-7.987 25.82-28.277 29.35-4.114-.19-12.188-3.275-11.091-14.497m-42.85 29.458c9.208 1.674 14.568-6.592 17.538-8.578" stroke="#fff"/><path d="M201.489 70.303c-1.218-1.438-3.247-3.048-4.524-3.901-1.916-1.285-1.307-4.65 3.791-1.99.621.324.84.627 1.366 1.14.385 2.773.176 3.878-.633 4.751ZM171.707 57.08c4.334.371 10.21 1.845 13.492 4.177 1.883 1.333 4.811-.435.509-4.25-3.351-2.977-10.131-2.68-14.001.074Z" fill="#000"/><path d="M169.671 63.97c6.778-.67 8.416-.745 9.384 2.979M198.869 74.25c-.746-2.872-1.891-3.485-5.484-3.308" stroke="#000" stroke-width="1.5" stroke-linejoin="bevel"/><ellipse cx="175.719" cy="66.341" rx="1.824" ry="2.822" transform="rotate(20.702 175.719 66.341)" fill="#000"/><ellipse cx="195.533" cy="73.642" rx="1.824" ry="2.822" transform="rotate(20.702 195.533 73.642)" fill="#000"/><path d="M122.789 74.737c-1.193 8.8-6.796 31.52-11.452 37.062m12.353-45.508c-.05 4.16 4.749 15.473 10.035 12.103m-2.447-10.537c-1.09.851-2.617 2.987 0 4.717M190.373 38.78c2.715.56 7.7 1.89 9.425 4.573m-18.077 47.529c-1.825-.394-4.644-2.71-2.495-5.81m5.794 6.33c2.923.614 4.977 1.49 7.545 1.49 3.395 0 4.329-4.41 2.735-7.247-1.574-2.803-3.078-7.848-3.634-12.495-.125-.742 0-4.691.899-6.373m-24.29 29.768c5.318 2.7 12.311 4.537 17.04 6.52 2.205.877 2.672-1.002 2.794-2.744 0 0-1.02-1.447-4.411-1.447-7.239 0-10.591-.352-13.123-1.252m-4.598 1.87c-.638-1.87-.479-4.776 3.492-4.776m1.889 6.324c6.193 4.591 9.285 5.447 11.24 5.356m3.712-2.613c.331 1.028-.672 2.469-1.804 3.197-.831.534-1.24 1.157-1.24 1.157-1.969 2.932 3.338 14.071-12.464 13.688-2.223-.054-4.924-.432-7.027-.673m-25.974-18.087c3.357 5.917 16.869 17.044 25.974 18.087m0 0c-2.301 7.416-6.854 22.703-6.652 24.52" stroke="#000"/></g><defs><clipPath id="clip0_665_1264"><path fill="#fff" d="M0 0h385.148v521.539H0z"/></clipPath></defs></svg>