<svg width="345" height="727" fill="none" xmlns="http://www.w3.org/2000/svg"><g clip-path="url('#clip0_661_981')"><path d="M109.751 566.067c-13.17-30.102-25.869-97.725-30.572-127.775v-29.908l75.921 7.539 82.93-7.539L259.139 517.7l-9.856 5.253c-3.658 16.984-9.877 81.054-5.487 201.459l-110.528-35.275c-2.352-28.481-10.348-92.969-23.517-123.07Z" fill="#fff"/><path d="M178.733 461.025c-17.602 34.058-4.031 88.737-4.031 105.042m4.031 39.84 6.523 90.469m-51.191-223.65 24.695 29.841m-79.58-64.275c4.702 30.05 17.402 97.673 30.571 127.775 13.169 30.101 21.165 94.589 23.517 123.07l110.528 35.275c-4.39-120.405 1.829-184.475 5.487-201.459l9.856-5.253-21.109-109.316-82.93 7.539-75.92-7.539v29.908Z" stroke="#000"/><path d="M300.493 457.511c-1.84-3.679.406-16.91 1.938-21.618 5.398-7.875 20.659-17.976 38.526 4.617-.658 9.862-2.318 30.573-3.699 34.517-1.38 3.945-8.629 8.054-12.08 9.616h-1.759c-1.791 1.972-6.706.822-7.857 0l-1.726 1.972c-.986 2.219-7.685 1.726-7.192-1.972.394-2.959 1.36-15.766 1.522-23.916l-1.404 17.946c-.979 3.805-3.061 3.251-4.236 2.067-2.253-2.269.266-18.631-2.033-23.229Z" fill="#fff"/><path d="M302.431 435.893c-1.532 4.708-3.778 17.939-1.938 21.618 2.299 4.598-.22 20.96 2.033 23.229 1.175 1.184 3.257 1.738 4.236-2.067m1.925-22.648c-.161 8.15-1.649 25.659-2.043 28.618-.493 3.698 6.206 4.191 7.192 1.972.789-1.775 1.48-15.039 1.726-21.45m0 19.478c1.151.822 6.066 1.972 7.857 0 2.612-2.876 1.759-14.464 1.759-19.478m0 19.478c3.451-1.562 10.7-5.671 12.08-9.616 1.381-3.944 3.041-24.655 3.699-34.517m-8.515 22.718-1.962 15.445m-23.836-32.701c1.36 1.035 4.215 3.684 4.748 5.992" stroke="#000"/><path d="m196.168 106.397-76.332 6.877-33.48 201.335-6.181 97.067s41.573 23.832 75.886 14.454c31.705-8.665 94.676-7.95 94.676-7.95l-18.803-245.092-35.766-66.691Z" fill="#fff" stroke="#000"/><path d="M87.169 401.726c11.92 3.362 50.043 7.389 64.714 5.922 14.672-1.468 42.276-6.739 58.782-8.878" stroke="#000"/><path d="m92.555 137.142-45.37 21.551c-4.036 5.357-12.34 17.681-13.26 24.121-1.15 8.049-28.55 60.958-33.25 107.418-5.797 57.292 27.625 65.076 27.625 65.076l21.738-3.071 9.066-27.82v34.038l-14.362 93.081-22.34 155.365c31.893 1.805 43.878 11.283 45.884 15.796v-40.242l47.765-1.881-12.787-31.592-15.797-63.938-5.345-30.023L95.66 345.02l11.741-79.619 7.147-70.195 3.97-37.957 10.851-38.089-2.416-12.239h-2.57c-5.213 0-23.39 15.587-31.828 23.381v6.84ZM224.594 125.167c-2.482-4.108-13.227-13.876-18.29-18.246l-11.889-8.167-4.612 15.064c.867 4.883 6.375 10.017 9.048 19.077 2.673 9.059 9.583 32.542 9.583 54.198 0 29.816-7.433 93.159-9.583 110.923-3.66 30.239 0 83.131 11.322 112.123 10.687 29.381 33.307 94.372 38.29 119.289l-2.255 50.903 16.165 6.209a801.176 801.176 0 0 0 3.22 11.41l42.826-7.787-11.604-46.719s-7.301-35.018-5.07-66.744c.757-10.75-2.563-31.949-2.51-42.725.097-19.597-4.21-26.913-9.099-45.891-4.166-16.176-7.788-26.71-11.189-43.064-5.835-28.059-6.026-73.139-6.026-73.139l6.026 7.048-2.464 14.427 7.213 8.731 3.037 15.945 9.871 11.01 2.631 32.801 9.696 75.073s11.702-6.621 24.53-4.746c8.778 1.283 21.358 7.739 21.358 7.739V373.61l-9.698-62.333c-9.815-34.714-31.217-110.433-38.306-135.6-8.862-31.458-23.04-29.242-27.028-31.458-3.988-2.215-42.092-13.917-45.193-19.052Z" fill="#000"/><path d="m298.931 436.916-9.696-75.073-2.631-32.801-9.871-11.01-3.037-15.945-7.213-8.731 2.464-14.427-6.026-7.048s.191 45.08 6.026 73.139c3.401 16.354 7.023 26.888 11.189 43.064 4.889 18.978 9.196 26.294 9.099 45.891-.053 10.776 3.267 31.975 2.51 42.725-2.231 31.726 5.07 66.744 5.07 66.744l11.604 46.719-42.826 7.787a801.176 801.176 0 0 1-3.22-11.41l-16.165-6.209 2.255-50.903c-4.983-24.917-27.603-89.908-38.29-119.289-11.322-28.992-14.982-81.884-11.322-112.123 2.15-17.764 9.583-81.107 9.583-110.923 0-21.656-6.91-45.139-9.583-54.198-2.673-9.06-8.181-14.194-9.048-19.077l4.612-15.064 11.889 8.167c5.063 4.37 15.808 14.138 18.29 18.246 3.101 5.135 41.205 16.837 45.193 19.052 3.988 2.216 18.166 0 27.028 31.458 7.089 25.167 28.491 100.886 38.306 135.6l9.698 62.333v66.299m-45.888-2.993s11.702-6.621 24.53-4.746c8.778 1.283 21.358 7.739 21.358 7.739m-45.888-2.993c.029.78.552 2.281 2.404 2.05m43.484.943c-.266 1.518-1.405 4.439-3.836 3.976M47.186 158.693l45.37-21.551v-6.84c8.437-7.794 26.614-23.381 31.827-23.381h2.57l2.416 12.239-10.851 38.089-3.97 37.957-7.147 70.195L95.66 345.02 82.122 455.021l5.345 30.023 15.797 63.938 12.787 31.592-47.765 1.881v40.242c-2.006-4.513-13.99-13.991-45.884-15.796l22.34-155.365 14.362-93.081v-34.038l-9.066 27.82-21.738 3.071S-5.122 347.524.675 290.232c4.7-46.46 32.1-99.369 33.25-107.418.92-6.44 9.224-18.764 13.26-24.121Z" stroke="#000"/><path d="m93.267 140.935 3.761 10.911-23.892 8.627c2.134 16.954 6.114 51.995 6.697 69.529M68.085 620.966s-8.007-82.947-4.328-143.223c2.673-43.8 16.132-123.155 16.132-123.155-.084-21.785-.191-59.16-.171-86.784m8.478 144.223c-3.934 32.67-20.11 157.045-20.11 167.5m33.737-431.123 16.535-7.469m107.699-9.327 5.8 16.796 15.57 12.069c-7.28 20.682-22.787 69.133-26.566 97.479-4.725 35.432-20.678 112.931-11.891 144.36m-2.467-267.249 19.554 10.745m24.184 387.175 11.901 51.078M30.139 314.25s7.19-10.572 20.567-12.919c6.015-1.056 14.617 1.017 14.617 1.017m-25.667-17.017 11.05 13.62m9.075-64.162v46.346M47.513 159.067c5.044-2.643 8.18 41.75 8.82 48.38m217.214-60.115c-3.343 19.076-4.745 50.05-4.745 50.05m-6.602 75.209c6.821-16.718 13.48-48.731 13.48-48.731" stroke="#fff"/><path d="M109.704 70.186c1.251 6.361 7.707 13.948 7.707 13.948l9.725-1.337 64.579-7.19 11.676-1.499c4.362-.687 6.313-12.74 5.169-19.715-1.301-7.927-10.57-30.435-14.414-36.117-3.433-5.074-4.405-7.436-7.852-12.351-2.757-3.932-9.586-4.17-12-4.705 0 0-15.075-2.647-27.116.407-13.984 3.547-21.348 11.481-30.832 18.55-2.715 2.024-4.989 11.015-5.326 18.968-.544 12.834-3.395 20.471-1.316 31.041Z" fill="#FF641E"/><path d="M124.559 91.098c1.945 4.694.991 17.833 4.649 24.903 0 10.417-.248 15.482-3.335 19.055-8.877 2.254 17.626 117.593 39.087 117.593 21.988 0 24.167-112.644 22.42-115.459-4.303 0-1.74-15.813-2.788-22.539 5.688-11.911 6.562-16.703 6.562-22.593 8.201-.535 14.189-12.11 15.048-20.17.684-6.417-2.126-10.489-7.896-5.84-1.676-3.713-2.331-9.361-1.422-14.21-6.37-10.687-6.328-20.73-16.701-27.181-3.575-2.223-15.102 3.033-19.715 3.032-22.05-3.579-32.707-.945-31.26 21.07-4.649 4.239-6.991 12.774-6.991 19.188-11.105-14.63-13.986 13.866 2.342 23.15Z" fill="#fff"/><path d="m129.008 112.796-27.938 20.028c3.802 2.471 15.069 11.939 15.069 11.939s6.303-.887 6.974 0c20.022 26.452 36.096 83.441 36.096 100.921 8.162-23.13 17.332-76.06 31.504-102.866.899-1.701 7.626-1.564 7.626-1.564l16.117-13.451s-17.937-14.26-23.743-16.525l-61.705 1.518Z" fill="#fff" stroke="#000"/><path d="M186.264 138.787c-1.656-5.427-2.169-17.846-1.465-21.385m-58.752 19.547c-1.466 14.364 48.279 26.6 60.217 3.722m-61.278-5.615c-4.796 23.844 56.926 29.057 62.362 5.615.273-1.177.718-3.403-1.084-3.65m4.094-19.619 5.572 19.619m-69.883-12.841-8.793 17.494m70.094-8.543 4.26 1.925" stroke="#000"/><path d="M125.808 135.623c2.736-4.533 3.439-13.905 2.736-17.444M192.435 85.3c-6.1 20.549-8.39 27.113-14.092 33.697-16.122 18.616-31.516 16.015-42.436 2.423-10.086-12.553-8.466-26.48-11.988-35.125" stroke="#000"/><path d="M197.331 51.118c-13.058 1.824-8.488-26.363-26.372-22.04M198.305 64.106c-6.568-2.307-9.231-8.342-9.231-13.845M120.693 64.106c6.568-2.307 9.23-8.342 9.23-13.845" stroke="#fff"/><path d="M197.25 68.575c3.914-8.532 10.798-4.46 8.759 5.018-2.038 9.479-6.325 15.097-11.279 17.523m3.385-12.12c.331-2.582 1.1-4.44 1.998-5.723m3.389-2.394c-.93.084-2.262.785-3.389 2.394m0 0c.087-2.202 2.167-5.613 3.141-6.066M122.068 68.575c-3.914-8.532-10.798-4.46-8.759 5.018 2.038 9.479 6.325 15.097 11.279 17.523m-3.385-12.12c-.332-2.582-1.1-4.44-1.998-5.723m-3.389-2.394c.93.084 2.262.785 3.389 2.394m0 0c-.087-2.202-2.167-5.613-3.141-6.066" stroke="#000"/><path d="M143.949 98.984c2.296 9.492 4.702 20.974 12.203 20.974 7.502 0 12.095-12.247 14.544-20.974-7.46-.98-19.243-1.071-26.747 0Z" fill="#000"/><path d="M146.096 98.86c2.573 4.335 20.57 3.652 22.452 0-6.262-.822-16.153-.899-22.452 0Z" fill="#fff"/><path d="M170.057 99.407c-7.258-.883-18.216-.962-25.493-.003l.179.744c1.057 4.4 2.17 9.03 3.811 12.677 1.811 4.021 4.164 6.633 7.598 6.633 3.458 0 6.353-2.831 8.734-6.964 2.26-3.924 3.958-8.854 5.171-13.087Z" stroke="#000"/><path d="M158.771 64.108c-.177 3.068 0 11.621.859 16.45.863 4.848 1.386 5.95.645 8.42M155.376 89.457c-1.135-1.587-2.848-.496-4.051 0M163.604 90.347c.859-.936 1.013-2.215 1.013-2.215M149.772 90.047c-.858-.937-1.013-2.215-1.013-2.215" stroke="#000" stroke-miterlimit="10"/><path d="M202.471 58.696c-1.701 3.552-2.164 6.695-3.444 9.577-.366 7.239-2.248 18.935-3.832 26.026-1.164 5.214-2.265 10.708-4.811 19.931-1.489 5.397-8.512 10.861-15.363 14.823-3.408 2.973-7.502 5.203-12.042 5.908-2.988.029-5.976.029-8.964 0-4.541-.705-8.634-2.935-12.043-5.908-6.85-3.963-13.278-9.426-14.767-14.823-1.198-10.225-2.621-16.598-3.785-21.812-1.534-6.871-3.195-14.513-2.619-21.584-.597-4.858 1.155-9.01 3.757-7.27.054.705-.059 7.324 0 8.221.52 7.916.97 17.472 5.582 26.431 2.295 3.587 4.986 3.904 8.056 3.627 4.059-2.682 9.239-9.714 18.344-9.714h4.481c9.106 0 13.718 7.032 17.777 9.714 3.07.277 5.473-.04 7.768-3.627 5.715-8.932 6.206-19.466 6.725-27.382.059-.897-.456-18.499-1.021-20.696 0 0 12.472 3.816 10.201 8.558Z" fill="#000"/><path d="M186.032 63.629c-3.552-2.58-11.091-2.858-17.509-1.59-4.246.843-5.436-.938-4.75-4.56 7.356 1.303 10.804-.937 17.699 1.442 2.866.99 4.56 4.708 4.56 4.708ZM129.653 63.629c3.552-2.58 11.091-2.858 17.509-1.59 4.246.843 5.436-.938 4.75-4.56-7.356 1.303-10.804-.937-17.699 1.442-2.866.99-4.56 4.708-4.56 4.708ZM173.866 73.02a3.008 3.008 0 1 0 0-6.017 3.008 3.008 0 0 0 0 6.017Z" fill="#000"/><path d="M180.282 69.385c-4.394-3.028-9.159-2.373-10.933-1.158" stroke="#000" stroke-miterlimit="10"/><path d="M142.563 73.02a3.008 3.008 0 1 0 0-6.017 3.008 3.008 0 0 0 0 6.017Z" fill="#000"/><path d="M136.137 69.385c4.394-3.028 9.158-2.373 10.933-1.158" stroke="#000" stroke-miterlimit="10"/><path d="M146.331 101.984c4.085 3.574 16.649 4.802 23.692.64m1.538 2.982c-.219-2.496-2.014-4.29-3.459-4.903M154.037 113.923c1.311-.313 7.686.243 8.302.503" stroke="#fff" stroke-miterlimit="10"/><path d="M147.932 103.264c2.881 8.965 17.929 7.044 19.85.649M148.252 102.944c4.162-1.921 5.989-1.508 8.004-.961 2.918.791 4.162-2.24 11.847 1.536" stroke="#fff" stroke-miterlimit="10"/><path d="M186.293 77.242c-1.356 5.89-2.873 15.444-2.059 19.199M132.19 85.764c1.281 3.915 2.815 10.71 2.815 12.761" stroke="#000"/><path d="M123.273 35.46c-8.574 7.394-12.752 25.733-9.99 33.283 0 0 3.171-7.411 7.091.87 2.16 4.561 4.562 10.656 4.562 10.656s-2.062-17.015 0-24.79c3.088-11.643 12.992-7.743 24.49-11.735 16.759-5.817 13.447-19.236 30.048-17.753 1.662.635 5.525 3.418 7.685 9.468 2.701 7.564 8.724 24.596 10.801 26.673 1.662 1.662 5.954-6.646 7.893-11.008 1.939-4.362.975-10.338.975-10.338-1.727.962-6.974 2.51-10.248-1.291-6.093-7.798-20.859-23.436-33.56-21.358l-.045.008c-16.308 2.668-24.224 3.964-39.702 17.314Z" fill="#000" stroke="#000"/><path d="M191.337 44.694c3.994 4.994 16.572-.535 15.166-4.251m-81.718-5.412c1.293 6.788 8.814 10.708 19.07 9.663m35.274-18.288c.736-.072 2.206-.538 2.206-1.827m12.384 28.123c2.398 1.254 7.753 3.387 9.989 1.882" stroke="#fff"/><path d="M58.273 297.735c-1.093-20.58 17.155-49.464 26.59-58.042-.806.271-2.295.499-3.522 0-.575-.233-1.944-.838-2.307-1.461-1.424-2.44-2.56-9.257 0-13.593 3.285-5.563 6.753-9.369 11.227-9.572 4.473-.203 8.535-2.652 12.195-2.246 2.929.326 8.762-.271 11.677 0 1.762-.813 6.261-.976 8.863 0 3.254 1.22 9.557 5.491 9.963 9.558.326 3.254-.949 6.372-1.627 7.524-.677 1.152-3.05-2.782-3.05-2.782v5.824l1.424 3.262 9.394 6.771c.694.801.427 3.459.427 6.022 0 3.205-7.098 7.181-9.821 8.636-3.744 1.999-13.07 2.46-16.435 1.683 1.877 1.683 5.83 6.518 7.041 8.406 3.352 5.229 1.066 49.192-7.041 63.547 3.751 3.751 13.134 15.217 13.134 21.45 0 7.792-7.722 21.349-7.433 25.677.289 4.329-.981 4.615 2.703 9.461 4.208 5.535 5.118 6.959 4.73 9.189-4.604 3.099-13.849 3.844-16.279-14.605-2.397-18.209-4.528-21.929-5.034-23.14-3.185 1.719-5.195 1.493-6.362 0 3.032 8.639 1.521 9.805 4.501 23.14 2.994 13.396 5.378 14.142 6.895 18.93 1.518 4.788-7.428 11.082-9.804 2.838-2.558-8.877-4.8-13.645-7.672-18.634-3.322-5.769-9.565-11.563-14.421-15.747-2.508-2.161-4.646-3.892-5.82-4.968-21.578-19.779-12.987-45.482-14.136-67.128Z" fill="#fff"/><path d="M61.831 347.065c.721 6.836 8.04 16.324 11.701 18.613.967.885 2.569 2.243 4.486 3.932 4.923 4.336 11.92 10.852 15.545 17.148 2.873 4.99 4.562 6.171 5.868 15.316 1.633 11.431 11.609 3.517 10.092-1.27-1.518-4.788-2.918-3.783-5.912-17.179-2.495-11.167-2.757-22.822-8.435-32.962m19.327-17.134c3.751 3.752 11.254 12.813 11.254 19.046 0 7.792-7.214 22.221-6.926 26.549.289 4.329.068 4.677 3.752 9.523 4.208 5.536 4.12 6.547 2.269 8.639-1.852 2.092-11.383 4.788-13.812-13.661-2.073-15.745-4.114-22.069-6.305-24.127m12.893-97.83c2.14 1.827 3.016 5.326 3.685 8.309m-21.317 90.17c2.983-.373 5.82-2.993 6.361-5.967" stroke="#000"/><path d="M122.996 212.821c-2.603-.976-7.101-.813-8.863 0 2.417 2.391 7.267 7.747 7.328 10.047.075 2.876-.421 7.042 2.833 9.603 2.603 2.049 4.555 3.502 5.411 3.736l-1.423-3.262v-5.824s2.372 3.934 3.05 2.782c.678-1.152 1.953-4.27 1.627-7.524-.407-4.067-6.709-8.338-9.963-9.558ZM95.14 250.52c-6.567-1.288-8.53-8.583-8.69-12.069l-1.586 1.242c-.808.271-2.296.499-3.523 0-.576-.233-1.944-.838-2.308-1.461-1.423-2.44-2.56-9.257 0-13.593 3.286-5.563 6.754-9.369 11.227-9.572 4.474-.203 8.536-2.652 12.196-2.246 2.593.247 5.733 1.19 6.261 1.058.745-.186 9.034 8.568 8.941 12.014-.094 3.446 4.998 9.178 4.998 10.305 0 1.126-3.862 3.54-5.954 3.862-2.092.322 0 5.471 0 8.368 0 2.896-4.023 6.919-5.632 6.919s-7.724-3.218-15.93-4.827Z" fill="#FF641E" fill-opacity=".5"/><path d="M114.188 228.015c-.438-.875-3.342-.972-4.739-.911-1.003-.911 3.827-4.192 5.285-2.461 1.459 1.732 0 4.466-.546 3.372ZM128.078 227.884c-.32-.641-1.44-2.047-2.463-2.002-.734-.667 1.687-1.887 2.754-.62 1.067 1.268.109 3.422-.291 2.622Z" fill="#000"/><path d="M138.386 242.396c-1.996-2.577-14.811-7.794-16.179-13.467" stroke="#000"/><ellipse cx="110.204" cy="231.28" rx="1.704" ry="2.25" transform="rotate(12.143 110.204 231.28)" fill="#000"/><ellipse cx="127" cy="230.84" rx="1.044" ry="2.25" transform="rotate(6.015 127 230.84)" fill="#000"/><path d="M105.672 246.744c4.34 8.268 17.157 10.66 21.858 9.778 4.702-.882 8.217-3.668 9.319-4.464" stroke="#000"/><path d="M131.518 252.488c-1.818-6.682-1.635-9.209-1.635-9.209 0-2.407 6.655-2.798 8.757-2.101 2.102.696 2.412 2.905 2.31 5.198-.115 2.611-1.209 4.765-3.509 6.112-1.714 1.003-5.402 1.917-5.923 0Z" fill="#000"/><path d="M111.584 260.702c-21.387 4.967-32.886-6.479-35.128-12.056-4.635 0-4.462 3.919-3.887 5.414 12.419 21.56 36.273 15.611 41.448 13.024 4.645-2.323 3.528-8.144-2.433-6.382Z" fill="#FF641E"/><path d="M80.291 239.355c4.245 2.4 8.471-2.614 9.814-7.229 1.678-5.769-1.43-11.11 3.263-14.157.49-.318 2.266-1.294 2.628-1.544m26.027-.973c1.317 1.224 4.127 4.242 4.829 6.526m0 36.845c-5.677 1.602-12.191 1.269-18.463-.449" stroke="#000"/><path d="M132.665 289.528c-4.563 2.019-14.778 6.106-31.113 8.909m-14.243 1.892c-3.242.312-7.937 2.105-11.51.98m-21.27 5.566c1.406-1.082 3.32-1.958 5.562-2.676" stroke="#000" stroke-linejoin="bevel"/><path d="M150.433 313.014c-9.298-1.134-17.014-27.129-17.992-32.004 0 0-43.264 8.096-68.348 18.825-5.118 2.189-12.517 5.732-12.517 5.732l-22.758 49.665 34.775.854 19.569-6.596s15.502-4.014 21.416-7.283c24.26-13.411 45.855-29.193 45.855-29.193Z" fill="#000"/><path d="M132.441 281.01c.978 4.875 8.694 30.87 17.992 32.004m-17.992-32.004s-43.264 8.096-68.348 18.825c-5.118 2.189-12.517 5.732-12.517 5.732l-22.758 49.665 34.775.854 19.569-6.596s15.502-4.014 21.416-7.283c24.26-13.411 45.855-29.193 45.855-29.193m-17.992-32.004c1.562-1.116 2.056-1.356 3.636.669m14.356 31.335c.91-.432 2.764-2.888.707-4.62" stroke="#000"/><path d="M122.811 270.889c-3.468-.452-7.978 5.465-9.799 8.48l3.447 3.53c3.448 2.487 1.517 6.513 0 15.279-1.517 8.765 9.271 7.079 11.44 2.022 1.734-4.045.722-15.573 0-20.831-.252-2.638-1.621-8.028-5.088-8.48ZM99.157 282.899c-3.107-3.402-15.326-6.495-20.085-5.503l8.782 9.747c6.13 4.134 3.849 7.697 4.99 16.819.911 7.297 7.171 6.249 10.19 3.515 2.752-2.493 0-20.334-3.877-24.578Z" fill="#fff"/><path d="M113.012 279.369c1.821-3.015 6.331-8.932 9.799-8.48 3.467.452 4.836 5.842 5.088 8.48.722 5.258 1.734 16.786 0 20.831-2.169 5.057-12.957 6.743-11.44-2.022 1.517-8.766 3.448-12.792 0-15.279m-37.387-5.503c4.76-.992 14.368-.757 20.085 5.503 3.877 4.244 6.629 22.085 3.877 24.578-3.019 2.734-9.279 3.782-10.19-3.515-1.141-9.122.39-13.714-4.203-14.677" stroke="#000"/><path d="M133.136 286.292c10.69-13.576 2.3-11.622 12.816-23.922 3.656-4.276 6.59-6.891 9.059-8.918" stroke="#000" stroke-linejoin="bevel"/><path d="M175.446 268.13c2.41-1.214 5.926-3.177 11.142-8.822 5.216-5.646 1.473-11.711-4.607-7.153-4.171 3.118-18.645 12.096-24.402 10.632-3.585-2.114-3.604-6.58-3.165-8.549M188.537 259.482c1.953.943 3.917.81.496 7.325-3.42 6.516-4.943 6.525-5.378 9.341" stroke="#000" stroke-linejoin="bevel"/><path d="M190.157 269.968c.446 8.143-1.72 6.849-2.083 10.736-.362 3.887 1.819 7.483-3.293 11.184-5.618 4.066-11.656 10.476-20.245 10.786-11.11.411-18.92 8.914-25.337 13.565" stroke="#000" stroke-linejoin="bevel"/></g><defs><clipPath id="clip0_661_981"><path fill="#fff" d="M0 0h344.819v726.413H0z"/></clipPath></defs></svg>