<svg width="345" height="727" fill="none" xmlns="http://www.w3.org/2000/svg"><path d="m156.678 214.75 25.145-1.671a2 2 0 0 1 2.128 1.863l2.318 34.884" stroke="#000"/><rect width="31.538" height="64.631" rx="2" transform="scale(-1 1) rotate(3.802 -3316.006 -2658.177)" fill="#FF641E"/><path d="M185.358 214.36a1.999 1.999 0 0 0-2.111-1.864l-29.275 1.694a2 2 0 0 0-1.875 2.186l5.762 60.65a2 2 0 0 0 2.124 1.806l27.534-1.829a2 2 0 0 0 1.863-2.129l-4.022-60.514Z" fill="#FF641E"/><path d="m185.241 239.596-1.567-23.589a2 2 0 0 0-2.129-1.863l-27.477 1.826a2 2 0 0 0-1.863 2.128l4.02 60.498a2 2 0 0 0 2.128 1.863l27.478-1.826a2 2 0 0 0 1.863-2.128l-2.019-30.376" stroke="#000"/><path d="m184.411 271.33-24.785 1.647" stroke="#fff"/></svg>