<svg width="70" height="89" fill="none" xmlns="http://www.w3.org/2000/svg"><path d="M23.997 76.702c8.195 2.747 16.032 1.412 17.504-2.98l18.686-35.248c2.54-1.222 3.297-5.168 3.854-6.831.719-2.144.508-4.464-.47-6.776l-.686-1.94c-.087-2.071-1.002-4.23-2.578-6.287-.474-.66-1.735-1.947-2.306-2.508-2.755-2.544-6.53-4.773-10.94-6.252-9.172-3.073-18.098-1.897-21.696 2.473l-1.96 1.28c-2.047 1.242-3.523 2.917-4.215 4.98-.505 1.507-1.848 4.488-1.167 7.207l-6.2 39.957c-1.472 4.392 3.978 10.18 12.174 12.925Z" fill="#fff"/><path d="m18.458 41.268-2.36-4.492-3.43 22.803c1.2 3.196 4.961 9.152 9.188 6.545 4.927 3.013 18.73 6.494 23.232.564l9.157-17.112c-8.693 6.612-27.462.673-29.883-3.186-1.938-3.088-4.743-4.701-5.904-5.122Z" fill="#FF641E"/><path d="M63.121 34.388c-2.414 7.204-14.411 9.68-26.796 5.529-12.385-4.15-20.469-13.355-18.055-20.559" stroke="#000"/><path d="M23.404 11.633c-2.046 1.243-3.523 2.917-4.214 4.98-2.414 7.203 5.67 16.408 18.055 20.558 12.385 4.15 24.382 1.675 26.796-5.528.718-2.143.507-4.464-.47-6.775" stroke="#000"/><path d="M58.001 14.132c-2.755-2.544-6.53-4.773-10.94-6.252-10.616-3.557-20.905-1.42-22.98 4.772-2.075 6.192 4.849 14.096 15.464 17.654 10.616 3.557 20.905 1.421 22.98-4.771.939-2.802.036-5.954-2.217-8.895M17.754 25.574l-7.138 41.803c-1.618 4.83 3.713 10.972 11.909 13.719 8.195 2.746 16.15 1.056 17.77-3.774l19.286-37.73" stroke="#000"/><path d="m29.704 23.281-2.192-2.553c-.245-1.044 1.198-.938 1.78-.366l2.225 2.457c.232 1.148-1.202.918-1.813.462Z" stroke="#000"/><path d="M17.627 59.902c-5.014-4.876-2.13-11.005.522-11.836l.005.007c.609.838 1.782 2.453-.327 6.846-.663 1.38-.618 3.776-.2 4.983Z" fill="#000"/><path d="M19.578 48.545c5.014 4.876 2.13 11.006-.522 11.836l-.005-.007c-.609-.838-1.783-2.453.327-6.846.663-1.38.617-3.776.2-4.983Z" fill="#000"/><ellipse cx="43.303" cy="19.093" rx="13.032" ry="7.481" transform="rotate(18.527 43.303 19.093)" fill="#000"/><path d="m24.004 12.88-1.303 3.891c-2.076 6.193 4.848 14.097 15.464 17.654 10.616 3.558 20.904 1.422 22.98-4.771l1.303-3.89" stroke="#000"/></svg>