<svg width="37" height="37" fill="none" xmlns="http://www.w3.org/2000/svg"><circle cx="18.5" cy="18.456" r="18" fill="#F80"/><path fill-rule="evenodd" clip-rule="evenodd" d="M18.519 9.444c2.522.007 4.547 2.07 4.534 4.62-.013 2.492-2.07 4.511-4.589 4.503-2.492-.009-4.537-2.075-4.522-4.572a4.569 4.569 0 0 1 4.577-4.551Zm5.109 10.915c-.558.572-1.23.987-1.975 1.276-.705.273-1.477.41-2.242.502l.08.088c.066.072.11.119.162.172l1.191 1.194c.643.644 1.285 1.287 1.923 1.933.353.357.426.799.232 1.213-.211.453-.686.75-1.152.719-.296-.02-.526-.167-.73-.373-.254-.256-.51-.51-.766-.764-.532-.53-1.064-1.059-1.582-1.601-.224-.234-.331-.19-.529.014-.787.811-1.588 1.61-2.393 2.403-.362.357-.792.422-1.212.218-.446-.216-.73-.672-.708-1.13.015-.309.168-.545.38-.757.88-.879 1.76-1.76 2.637-2.641l.439-.44c.044-.044.085-.09.136-.144l.094-.102c-1.397-.146-2.657-.49-3.736-1.334l-.077-.06c-.109-.084-.218-.168-.317-.264-.473-.453-.52-.973-.147-1.507.32-.458.857-.58 1.414-.317a2.2 2.2 0 0 1 .31.182c2.01 1.382 4.771 1.42 6.79.062.2-.153.413-.278.66-.342.482-.124.931.054 1.19.475.295.481.291.95-.072 1.325Zm-7.251-6.227a2.123 2.123 0 1 1 4.246 0 2.123 2.123 0 0 1-4.246 0Z" fill="#FEFEFE"/></svg>