<svg width="216" height="464" fill="none" xmlns="http://www.w3.org/2000/svg"><path d="M84.162 236.028c-4.295-.716-6.694-2.22-7.356-2.882-.663-.663-.447-3.244-.447-3.244 3.976-1.78 6.523.967 8.953 1.309 6.576.179 14.264.704 17.04-.054 2.625-.715 4.469-.371 4.899-.504 2.482-.453 8.461-2.082 12.529-4.973 5.085-3.615 6.579-4.135 8.612-5.137.53-.261 2.591-1.821 4.477-2.308 5.967 0 9.641 1.409 11.803 2.466 2.964 5.404 2.2 9.673 1.122 12.862-.298.762-3.867.921-4.989 1.158-5.616 3.176-25.133 4.389-28.313 4.488-3.181.1-13.718-.795-17.098-.894-3.38-.1-5.865-1.392-11.233-2.287Z" fill="#fff"/><path fill-rule="evenodd" clip-rule="evenodd" d="M76.823 232.027c.111.426.265.694.336.765.565.565 2.854 2.038 7.085 2.743 2.424.404 4.27.89 5.855 1.307l.55.144c1.713.447 3.131.781 4.76.829 2.317.068 4.64.258 6.95.447.541.044 1.082.089 1.621.131 2.849.225 5.679.405 8.496.317 1.58-.05 6.076-.273 10.938-.768 4.881-.498 10.061-1.264 13.05-2.382 1.221-.456 2.948-.837 4.594-1.2.368-.082.733-.162 1.086-.242.982-.222 1.888-.443 2.609-.678.36-.118.663-.235.901-.353.245-.12.387-.225.456-.303l.744.669c-.194.216-.467.388-.757.531a7.804 7.804 0 0 1-1.034.406c-.769.251-1.714.481-2.698.703-.372.085-.749.168-1.125.251-1.644.363-3.278.724-4.425 1.153-3.127 1.169-8.43 1.943-13.299 2.439-4.888.499-9.408.723-11.009.773-2.876.09-5.751-.094-8.606-.319-.546-.043-1.09-.088-1.634-.132-2.308-.189-4.6-.376-6.888-.443-1.75-.052-3.265-.413-4.982-.861l-.552-.145c-1.585-.417-3.388-.891-5.766-1.287-4.357-.727-6.867-2.262-7.627-3.023-.26-.26-.471-.738-.597-1.219-.13-.503-.198-1.114-.09-1.694.11-.588.407-1.178 1.028-1.539.608-.354 1.436-.435 2.495-.217.292.06.76.215 1.28.397.283.098.6.212.928.329.28.101.568.204.852.304.626.221 1.249.433 1.787.592.554.163.965.253 1.19.26 1.354.036 3.14.106 4.838.172 1.11.044 2.183.086 3.072.116l-.034.999c-.9-.03-1.978-.073-3.09-.116-1.691-.066-3.462-.135-4.813-.172-.372-.01-.899-.139-1.446-.3a39.267 39.267 0 0 1-1.837-.608l-.864-.308c-.321-.115-.627-.225-.912-.324-.537-.188-.938-.317-1.152-.361-.93-.192-1.476-.082-1.791.101-.302.176-.476.47-.548.858-.073.395-.031.853.075 1.258Z" fill="#000"/><path d="M92.601 229.204c4.507-5.419 12.386 1.773 14.825 1.432 5.501-.771 9.023-2.589 12.88-5.428 2.309-1.7 6.776-4.854 10.459-4.854l.464 14.714s-8.38.104-13.843 1.73c-11.336 3.375-27.46-4.378-24.785-7.594Z" fill="#fff"/><path fill-rule="evenodd" clip-rule="evenodd" d="M121.594 224.861c-.337.258-.667.51-.992.75-3.906 2.875-7.505 4.735-13.107 5.52-.423.059-.92-.048-1.416-.207-.511-.163-1.093-.406-1.712-.68-.331-.148-.674-.304-1.027-.465-.979-.447-2.029-.926-3.102-1.326-1.459-.543-2.887-.908-4.13-.839-1.212.068-2.243.544-2.989 1.717-.17.269-.196.592-.011 1.017.192.443.6.958 1.235 1.511 1.264 1.102 3.298 2.249 5.784 3.194 4.975 1.891 11.59 2.911 17.116 1.266l.285.958c-5.809 1.73-12.661.648-17.756-1.289-2.55-.97-4.703-2.169-6.086-3.375-.69-.601-1.22-1.232-1.496-1.866-.283-.652-.305-1.338.085-1.952.943-1.484 2.291-2.097 3.777-2.179 1.453-.081 3.039.343 4.535.9 1.11.413 2.21.915 3.197 1.366.345.158.676.309.989.448a16.9 16.9 0 0 0 1.61.642c.472.151.786.195.973.168 5.4-.756 8.847-2.533 12.653-5.334.296-.219.608-.457.934-.707.906-.693 1.92-1.47 3.016-2.121 1.507-.894 3.231-1.595 5.195-1.595v1c-1.719 0-3.264.612-4.684 1.455-1.042.619-1.983 1.339-2.876 2.023Z" fill="#000"/></svg>