<svg width="216" height="464" fill="none" xmlns="http://www.w3.org/2000/svg"><path d="M84.162 236.028c-4.295-.716-6.694-2.22-7.356-2.882-.663-.663-1.118-3.281-1.118-3.281-3.7-1.28-3.064-5.707-.635-5.365 1.053.148 2.057-.169 3.167-.005-3.242-.503-.888-3.783 2.456-3.377 2.57.311 2.732-.067 5.326.164-2.465-.234-.69-3.862 3.808-2.773 4.76 1.152 16.491 1.734 22.682 2.896.8-.085 1.595-.181 2.385-.287 4.135-.557 13.718-2.154 17.992-2.883 5.967 0 9.641 1.409 11.803 2.466 2.964 5.404 2.2 9.673 1.122 12.862-.298.762-3.867.921-4.989 1.158-5.616 3.176-25.132 4.389-28.313 4.488-3.181.1-13.718-.795-17.098-.894-3.38-.1-5.865-1.392-11.233-2.287Z" fill="#fff"/><path d="M78.214 224.495a.416.416 0 0 1 .035.005l-.035-.005c-3.233-.507-.88-3.783 2.462-3.377 2.57.311 2.732-.067 5.326.164-2.465-.233-.69-3.862 3.808-2.773 4.759 1.152 16.491 1.734 22.682 2.896-8.497.909-17.527.675-26.49-.123-2.594-.231-2.757.147-5.326-.164-3.343-.406-5.695 2.87-2.462 3.377Z" fill="#fff"/><path d="M146.482 233.119c-1.054 1.171-6.938 1.823-9.843 2.909-6.116 2.287-20.967 3.082-24.147 3.181-5.694.178-11.411-.727-17.098-.894-3.38-.1-5.865-1.392-11.233-2.287-4.294-.715-6.693-2.22-7.355-2.882-.663-.663-1.595-4.645 2.382-3.826 1.011.208 4.93 1.859 6.124 1.891 2.239.061 5.646.212 7.906.288m-16.865-1.175c-3.7-1.281-3.753-5.824-1.3-5.824 1.093 0 2.075-.175 3.196 0m22.996 4.188c-1.822-.35-13.202-2.664-22.996-4.188m0 0c-3.285-.488-.927-3.789 2.427-3.382 2.57.311 2.732-.067 5.326.164m0 0c-2.465-.233-.69-3.862 3.808-2.773 4.759 1.152 16.491 1.734 22.682 2.896m-26.49-.123c8.963.798 17.993 1.032 26.49.123m0 0c.8-.085 1.595-.181 2.385-.287 4.135-.557 15.767-3.826 23.186-2.171 3.51.783 5.218.976 7.013 2.069" stroke="#000"/><path d="M92.601 229.204c4.507-5.419 12.386 1.773 14.825 1.432 5.5-.771 9.023-2.589 12.879-5.428 2.31-1.7 6.777-4.854 10.46-4.854l.463 14.714s-8.379.104-13.842 1.73c-11.336 3.375-27.46-4.378-24.785-7.594Z" fill="#fff"/><path d="M117.386 236.798c-11.336 3.375-26.932-4.204-24.689-7.735 3.376-5.314 12.29 1.914 14.729 1.573 5.5-.771 9.023-2.589 12.879-5.428 2.31-1.7 5.166-4.325 8.849-4.325" stroke="#000"/><path d="M19.945 131.238c.85 4.532 1.718 5.948 2.19 8.81.476 2.875.325 5.527.167 7.892 0 .421 3.71 1.509 8.624 2.364 5.187.903 10.477.313 10.477.313.18-3.906.55-7.871 1.248-8.838 1.115-1.543 7.16-10.464 10.042-14.731 5.172-4.483 13.62-17.5 12.07-19.214-1.242-1.372-4.528.156-6.058 1.091l-30.074 4.15c5.008-2.854 3.445-4.683 2.038-5.241l1.287-2.694c7.593-.405 4.707-5.896 2.061-5.896l1.412-2.4c5.4-1.097 3.581-4.46 1.234-5.584-.752-.36-3.508.534-4.707.834-1.2.3-3.185 4.111-4.028 6.172-.844 2.061 0 3.279 0 3.279-.75.225-2.314 2.035-3.126 3.19-.812 1.156-.961 4.19-.961 4.19-1.03.094-4.959 6.074-4.958 9.214 0 7.647.212 8.568 1.062 13.099Z" fill="#fff"/><path d="M31.956 92.094c1.199-.3 3.955-1.194 4.707-.834 2.347 1.123 4.167 4.487-1.234 5.584m-3.473.342c1.395-.03 2.542-.153 3.473-.342m0 0-1.412 2.4c2.646 0 5.533 5.491-2.061 5.896l-1.287 2.694c1.407.558 2.97 2.387-2.038 5.241m-8.23.357c-.854 1.645-1.244 2.795-1.518 4.707-.829 5.782.212 8.568 1.062 13.099.85 4.532 1.718 5.948 2.19 8.81.494 2.984.414 5.554.25 7.986 0 0 4.419 1.631 8.892 2.29 5.56.819 10.124.341 10.124.341.179-3.922.549-7.915 1.25-8.886 1.115-1.543 7.16-10.464 10.042-14.731 5.173-4.483 13.621-17.5 12.07-19.214-.628-.693-1.777-.646-2.957-.309" stroke="#000"/><path d="M24.803 104.735c-.812 1.156-.962 4.19-.962 4.19 1.155 1.383 3.73 4.15 4.79 4.15 5.008-2.854 3.446-4.683 2.038-5.241l1.287-2.694c7.594-.405 4.708-5.896 2.062-5.896l1.411-2.4c5.4-1.097 3.581-4.46 1.235-5.584-.753-.36-3.509.534-4.708.834-1.199.3-3.185 4.111-4.028 6.172-.843 2.061 0 3.279 0 3.279-.75.225-2.314 2.035-3.125 3.19Z" fill="#fff"/><path d="M31.956 97.186c1.395-.03 2.542-.153 3.473-.342m0 0c5.4-1.097 3.581-4.46 1.234-5.584-.752-.36-3.05-.026-4.707.834-2.814 1.46-3.99 4.748-4.263 7.866m7.736-3.116-1.412 2.4m0 0c2.646 0 5.532 5.491-2.061 5.896l-1.287 2.694m3.348-8.59c-1.91.225-6.75 1.462-8.522 4.854-.62.992-1.887 3.361-1.995 4.904m7.169-1.168c1.407.558 2.97 2.387-2.038 5.241-.854.137-2.785.33-3.674 0m5.712-5.241c-1.997-.002-6.473.616-8.397 3.098-.48.546-1.611 1.963-2.294 3.261m6.092-.498c.37.979.809 3.209-.398 4.289m-1.244 4.827c1.49-.238 3.807-1.927 3.807-3.579m5.782 18.103c-2.152-2.403-.732-7.466 1.666-9.81" stroke="#000"/></svg>