<svg width="216" height="464" fill="none" xmlns="http://www.w3.org/2000/svg"><path d="m42.697 321.664-4.24 14.605 7.067 58.889 24.026 67.839 50.409-22.142 37.218-84.8 11.306-37.688-23.084-15.547-95.164 8.951-7.538 9.893Z" fill="#fff" stroke="#000"/><path d="m77.196 396.594 16.67-50.768m-16.67-23.49 9.093 18.186m7.578-4.566 21.976-13.62" stroke="#000"/><path d="M126.302 117.466c-11.296 13.179-27.14 3.39-34.592-1.316l-39.538 53.875 16.08 74.13v74.915c7.532-3.765 50.467-4.706 70.994-4.706l12.943-133.749-12.943-69.817-15.421-3.081 2.477 9.749Z" fill="#000" stroke="#000"/><path d="M127.079 115.386c1.45.882 2.268 3.286.78 5.669-12.351 19.775-31.057 15.85-36.873 8.212-.6-1.129-1.19-3.604 1.255-4.467M74.636 306.901c15.284-1.233 47.701-3.328 55.097-1.849" stroke="#fff"/><path d="M57.887 123.009c-4.196 4.73-23.013 17.023-31.898 22.579l9.888 10.067-10.423 20.91-2.53 9.968-6.032 13.314-3.494 31.652 21.507 8.486c-.776 31.328-.237 48.627-1.393 58.613-1.424 5.412-3.105 8.622-3.481 10.945l-1.064 33.031 33.704 4.671 13.45-57.619 10.933-78.899-4.225-34.546-1.371-34.932 11.546-24.164.736-19.646-12.64 1.789c-5.99 5.956-19.017 19.052-23.213 23.781ZM182.953 140.34c-5.269-2.854-25.66-27.751-35.197-39.842 0 0-17.328-3.672-22.849 0-9.64 6.409 8.648 11.835 8.648 11.835l4.946 16.257 1.998 24.272c-5.382.534-7.732 14.043-8.235 20.731l-10.777 25.826 7.798 64.936 5.947 46.55 8.442 47.565 32.695-10.914.327-21.191v-30.419l-3.145-41.076 19.293 5.829 15.486-1.291 7.039-15.837-2.229-21.118-6.1-15.368-7.85-24.218-16.237-42.527Z" fill="#fff"/><path d="M57.887 123.009c-4.196 4.73-23.013 17.023-31.898 22.579l9.888 10.067-10.423 20.91-2.53 9.968-6.032 13.314-3.494 31.652 21.507 8.486c-.776 31.328-.237 48.627-1.393 58.613-1.424 5.412-3.105 8.622-3.481 10.945l-1.064 33.031 33.704 4.671 13.45-57.619 10.933-78.899-4.225-34.546-1.371-34.932 11.546-24.164.736-19.646-12.64 1.789c-5.99 5.956-19.017 19.052-23.213 23.781ZM182.953 140.34c-5.269-2.854-25.66-27.751-35.197-39.842 0 0-17.328-3.672-22.849 0-9.64 6.409 8.648 11.835 8.648 11.835l4.946 16.257 1.998 24.272c-5.382.534-7.732 14.043-8.235 20.731l-10.777 25.826 7.798 64.936 5.947 46.55 8.442 47.565 32.695-10.914.327-21.191-.327-41.387-2.883-30.243 19.54 5.752 15.232-1.084 7.121-15.142-2.214-21.545-3.651-9.456-10.324-30.393-16.237-42.527Z" fill="#FF641E" fill-opacity=".5"/><path d="M147.756 100.498c9.537 12.091 29.928 36.988 35.197 39.842l16.237 42.527 8.912 26.589 5.147 13.557 2.024 21.48-7.171 15.061m-31.733 61.68v26.322l-32.695 10.914-8.442-47.565-5.947-46.55-7.798-64.936 10.777-25.826c.503-6.688 2.853-20.197 8.235-20.731L138.5 128.59l-4.945-16.257M30.031 309.543l-1.064 33.031 33.704 4.671 13.45-57.619 10.933-78.899-4.225-34.546-1.371-34.932 11.546-24.164.736-19.646-12.64 1.789c-5.99 5.956-19.017 19.052-23.213 23.781-4.196 4.73-23.013 17.023-31.898 22.579l9.888 10.067m-22.479 69.408 3.494-25.216 6.033-13.314 2.53-9.968 8.286-16.625" stroke="#000"/><path d="M26.345 146.611c8.168 7.63 25.787 23.356 30.919 25.222 5.132 1.866 12.658 1.273 15.78.743l.613 9.47c4.197 3.871 12.492 12.32 12.099 15.154m39.458 1.619c4.683-9.696 15.192-29.675 19.761-32.032 4.57-2.356 26.793-17.569 37.334-24.881m-41.393 11.649c5.99-2.117 18.345-7.359 19.847-11.394M59.661 167.93c5.311-6.238 16.447-18.642 18.496-18.358m-54.564 35.165 15.957 8.532m-24.806 35.055 21.227 2.942m10.557 18.04L65.971 252m-22.277-56.19-5.234 37.768-3.636 5.958-1.212 39.168.044 19.955-2.314 6.563m8.539-7.948 17.473 2.421m-24.292 35.689 18.982 2.63m32.765-133.978L59.115 344.052m81.801-135.378 22.002-8.318m-2.001-18.31 9.329 34.701m6.542-16.391 9.344-9.425 11.96-1.798M146.291 305.94l25.038-5.098m-29.542-42.862 15.919-2.358M58.25 200.356l16.52 2.289m58.225 8.069.575 6.033m17.787 136.715-9.023-44.786-5.882-61.694m17.785 97.497 16.666-3.463m5.464-19.644.421-22.827-3.151-42.923m-2.734-29.47 2.734 11.118-5.567 11.927m30.021-14.353 1.312 12.138-3.234 9.897m-38.463 9.259 3.211 29.971 7.611-2.141-2.998-29.971-7.824 2.141Zm-114.275-5.165 6.131 2.102-3.034 28.066-6.647-3.192 3.55-26.976ZM140.4 217.221c-1.613 0-3.959-.218-5.522 1.176m5.522-1.176c9.248 4.353 7.435 14.986 3.503 22.326-2.74 5.117-5.116 5.956-5.116 5.956m1.613-28.282 7.095 1.439m-10.746 17.512c-.601 4.1 0 8.09 2.038 9.331m0 0 5.895 2m62.557 12.057-14.017 1.04-23.513-6.574-25.027-6.523m34.235-28.174 15.641 6.733m-8.054-19.949-9.272 11.108-7.523 2.108-13.613-.669h-8.601m-2.813 28.843c3.314 0 6.122-6.447 7.598-11.795 2.399-8.697-1.822-16.519-4.785-17.048" stroke="#000"/><path d="M82.912 37.516c5.122-6.023 14.726-8.424 19.337-8.608l2.281-.236s.374-1.24.423-2.45c.044-1.068-.269-2.277-.097-3.332.178-1.096 1.125-2.613 1.125-2.613-.276-.571-1.252-2.372-2.953-5-2.127-3.287-.559-13.009 5.539-13.864 4.878-.684 11.117 3.455 13.626 5.61 2.509 2.156 5.429 8.495 8.897 15.718 1.458 3.038.646 7.488-.914 8.903-.938.851-2.689 2.23-3.471 2.269 7.19 2.097 10.978 15.513 11.609 18.243 1.106 4.781.739 12.029-.02 17.756 3.894 5.382-.076 9.08-2.487 14.388-1.928 4.246-6.374 5.91-8.356 6.212-3.862 9.324-2.423 21.615-.706 26.866.44.993 0 4.691-3.706 7.8-17.392 14.594-29.19 6.156-30.26 1.963l-.829-14.069c-7.223.648-9.714-4.938-10.057-7.812l-2.34-6.182c-1.282-4.864-4.078-15.46-4.996-18.937-.919-3.478.976-9.313 2.038-11.796l-1.697-5.215c.364-5.896 2.1-18.661 8.014-25.614Z" fill="#fff"/><path d="M110.051 45.978c13.78 3.445 7.483 15.368 13.78 28.054 4.452 8.97-4.429 18.485-12.314 24.362-7.547 5.626-.713 18.201 0 21.697M76.196 48.957c-6.023 3.063-10.26 18.532-2.928 36.254 6.253 15.116-1.226 19.61-5.516 22.674M88.362 66.085c.33 3.009-.39 9.564-3.965 14.1-.98 1.261-2.226 4.411 1.116 5.962 1.585.736 2.816 1.125 2.966 2.233m4.932-.868c1.46-.28 3.68-1.857 1.89-5.013m-5.99 3.33c.898-.11 2.82-.23 3.324.176" stroke="#000"/><path d="M102.249 28.908c-4.61.184-14.214 2.585-19.337 8.608-2.96 3.479-5.715 10.903-6.934 15.704-1.216 4.794-.898 6.964-1.08 9.91l1.697 5.215c-.736 1.72-1.872 5.05-2.194 8.09m17.55 36.637c-7.224.648-9.715-4.938-10.058-7.812l-2.34-6.182c-1.282-4.864-4.078-15.46-4.996-18.937a7.53 7.53 0 0 1-.22-1.413m17.613 34.344.829 14.069m-.829-14.069c3.213-.417 8.794-1.556 14.159-3.557m20.636 7.863c-1.717-5.251-3.156-17.542.706-26.866m0 0c1.982-.302 6.428-1.966 8.356-6.212 2.411-5.307 6.381-9.006 2.487-14.388m-10.843 20.6c-1.115.094-3.041-.516-1.826-3.713 0 0 4.261-6.789 4.462-7.18 2.504-4.868 4.81-9.717 8.271-7.204m-.064-2.503c.76-5.727 1.126-12.975.02-17.756-.631-2.73-3.318-15.26-11.036-18.454m11.016 36.21c-1.379-1.026-4.706-1.933-6.985 2.637-.431 1.038-1.389 3.676-1.778 5.927m-2.253-44.774s1.96-1.207 2.899-2.058c1.559-1.415 2.371-5.865.913-8.903-3.468-7.223-6.388-13.562-8.897-15.717-2.509-2.155-8.748-6.295-13.626-5.61-6.098.854-7.666 10.576-5.539 13.862 1.701 2.63 2.677 4.43 2.953 5.001m21.297 13.425c-2.439-1.424-15.114-3.76-22.048-4.91m.751-8.515c6.806.633 20.901 3.327 22.831 9.048m-22.831-9.048c-1.305 2.091-.933 3.647-1.027 5.945-.05 1.21-.424 2.45-.424 2.45m20.221 62.576c-1.533 5.495-5.048 9.646-6.812 11.172-2.409 2.149-4.9 3.994-7.832 5.404m18.087-24.84c4.764-1.56 5.52-4.208 7.306-3.477M117.325 7.502c-.96.814-1.551 3.131 3.769 5.88 5.32 2.75 5.545 2.768 4.993 2.433M113.31 5.489c-2.661-.15-7.8.812-7.07 5.863m8.86-2.084c-2.372-.41-7.177 3.938-2.493 9.34m-3.041 2.893c-.759 2.343.541 7.617 11.231 10.265m-16.749-.304c-6.763.891-9.354 6.174-9.086 7.072m14.246-6.18c-1.911 2.195-5.768 6.794-5.91 7.62m9.309-6.272v7.571m14.316 27.251c-.306-1.448-.247-3.189-.348-5.14-.188-3.633-3.807-14.737-9.558-17.33-2.569-1.159-21.875-4.902-24.771-4.78-6.474.27-11.882 6.36-15.009 10.321m50.577 18.998a4.48 4.48 0 0 0 1.398 1.181c.373.202 1.168.614 1.365.648" stroke="#000"/><path d="M83.202 60.494c-2.794-.865-6.55.068-7.815.51-.737.499-.646 2.115-.287 2.834 2.812-2.082 5.638-1.564 9.313.181 1.052.5 2.22.148 2.298-.625.098-.966-.21-1.878-3.51-2.9ZM107.377 60.303c-4.533-.547-10.147.2-11.805 1.66-.907.8-1.296 3.088 1.66 2.851 3.696-.297 9.225-2.108 10.994-2.074 2.719.053 6.399 1.986 8.795 2.809-1.326-1.52-5.111-4.698-9.644-5.246Z" fill="#000"/><ellipse cx="83.267" cy="68.905" rx="2.432" ry="2.347" transform="rotate(9.804 83.267 68.905)" fill="#000"/><ellipse cx="106.18" cy="69.467" rx="2.432" ry="2.347" transform="rotate(9.804 106.18 69.467)" fill="#000"/><path d="M81.817 94.996c.217.394.998.75 1.76.796.762.046 1.271-.653 2.124-.898 2.936-.845 4.787-.282 7.775.748 2.506.864 4.974.195 6.154-.092m-16.62-1.121c.566-1.093 1.914-3.224 3.277-2.924 1.704.375 2.46.184 3.048.044.588-.14 2.629.373 4.505 1.985 1.875 1.612 3.4 2.404 4.38 2.332m1.964-2.443c-.214.73.315 2.377 1.674 2.612M83.349 96.932c-.52 3.008 9.555 5.782 14.14.493m-11.72-1.222c1.453.443 5.03 1.168 7.71.53M77.97 67.99c1.485-1.486 5.408-3.247 9.228 1.595m12.752.162c1.64-1.7 6.166-4.186 11.146-.519" stroke="#000"/><path d="M85.362 74.552c.045 2.951-6.138 4.168-11.134 3.248-4.995-.92-7.01-2.522-6.748-3.95.263-1.427 4.31-3.268 9.697-2.276 4.995.92 8.448 1.55 8.185 2.978ZM109.812 74.67c.124 2.998-6.113 4.405-11.108 3.485-4.996-.92-7.91-2.535-7.646-3.963.262-1.427 5.876-3.404 11.263-2.413 4.995.92 7.709 1.708 7.491 2.892Z" fill="#FF641E" fill-opacity=".5"/><path d="m127.759 69.534.04-.498-.078-.006-.077.018.115.486Zm-61.037 3.264-.214-.452a.5.5 0 0 0-.153.791l.367-.34Zm18.64 1.754-.492-.09-.009.048v.05l.5-.008Zm24.45.119-.491-.09-.011.054.003.056.499-.02Zm-.288-.306 18.351-4.344-.231-.973-18.351 4.344.231.973Zm18.196-4.332 4.31.343.079-.997-4.31-.343-.079.997Zm-52.39-1.876-8.822 4.19.429.903 8.823-4.19-.43-.903Zm-8.975 4.98.65.705.736-.678-.651-.705-.735.678Zm18.507 1.423c.008.538-.26 1.032-.828 1.482-.577.455-1.428.832-2.474 1.102-2.087.537-4.807.612-7.241.164l-.181.984c2.561.471 5.43.398 7.672-.18 1.12-.289 2.117-.712 2.844-1.286.734-.58 1.222-1.344 1.208-2.281l-1 .015Zm-10.543 2.748c-2.47-.454-4.15-1.07-5.17-1.715-1.035-.656-1.252-1.244-1.177-1.652l-.983-.181c-.188 1.02.47 1.946 1.626 2.678 1.172.743 2.996 1.388 5.523 1.854l.18-.984Zm-6.347-3.367c.03-.166.205-.45.668-.781.445-.319 1.09-.63 1.91-.876 1.639-.49 3.917-.7 6.536-.218l.181-.984c-2.767-.51-5.206-.295-7.003.244-.898.269-1.65.623-2.206 1.02-.538.385-.969.866-1.07 1.414l.984.18Zm9.114-1.875c2.512.462 4.588.844 6.007 1.284.714.222 1.21.443 1.503.663.279.21.293.347.274.449l.984.18c.112-.612-.207-1.09-.657-1.428-.436-.328-1.067-.59-1.808-.819-1.49-.462-3.637-.855-6.122-1.313l-.18.984Zm32.227 2.625c.022.55-.238 1.063-.802 1.534-.572.478-1.423.88-2.469 1.175-2.089.59-4.82.71-7.248.263l-.18.984c2.567.472 5.452.35 7.699-.284 1.122-.317 2.12-.77 2.839-1.37.726-.607 1.199-1.394 1.16-2.343l-.999.041Zm-10.519 2.972c-2.47-.455-4.394-1.076-5.652-1.74-.63-.334-1.066-.664-1.323-.964-.255-.297-.299-.518-.27-.676l-.983-.181c-.103.555.12 1.072.493 1.508.371.433.927.832 1.616 1.196 1.382.73 3.414 1.376 5.938 1.84l.181-.983Zm-7.245-3.38c.007-.038.047-.138.2-.29.148-.149.37-.314.67-.486.599-.342 1.449-.678 2.474-.945 2.05-.533 4.726-.772 7.337-.29l.181-.984c-2.776-.511-5.6-.257-7.77.307-1.083.282-2.022.646-2.719 1.045-.347.199-.649.414-.88.644-.224.225-.418.499-.476.818l.983.18Zm10.681-2.012c2.499.46 4.389.881 5.622 1.325.621.224 1.029.438 1.262.635.221.186.217.292.207.35l.983.18c.098-.534-.163-.971-.545-1.294-.371-.313-.913-.575-1.568-.811-1.319-.476-3.284-.909-5.78-1.368l-.181.983Zm-17.765 2.526c1.16-.563 4.232-1.373 7.071-.086l.413-.911c-3.203-1.452-6.6-.543-7.92.097l.436.9Z" fill="#000"/><path d="M13.68 142.242c2.082-1.417 4.21-2.383 6.343-2.982 7.121.705 21.722 2.717 23.156 5.126 1.965 1.327 3.624 2.703 4.873 3.921l-2.353 8.781v19.369l2.353 25.72-4.873 34.946c-2.016 4.473-13.33 2.982-18.736 1.677l-10.762-7.269-2.182-17.612-10.26-28.236 1.678-16.215L11.5 149.76l2.182-7.518Z" fill="#fff"/><path d="M13.68 142.242c2.082-1.417 4.21-2.383 6.343-2.982 7.121.705 21.722 2.717 23.156 5.126 1.965 1.327 3.624 2.703 4.873 3.921l-2.353 8.781v19.369l2.353 25.72-4.873 34.946c-2.016 4.473-13.33 2.982-18.736 1.677l-10.762-7.269-2.182-17.612-10.26-28.236 1.678-16.215L11.5 149.76l2.182-7.518Z" fill="#FF641E" fill-opacity=".5"/><path d="M48.052 148.307c-7.369 5.873-32.584 0-34.371-6.065l-2.183 7.518c8.596 5.066 26.818 11.237 34.2 7.328l2.354-8.781Z" fill="#fff"/><path d="M48.052 148.307c-7.369 5.873-32.584 0-34.371-6.065l-2.183 7.518c8.596 5.066 26.818 11.237 34.2 7.328l2.354-8.781Z" fill="#FF641E" fill-opacity=".5"/><path d="M13.68 142.242c1.788 6.065 27.004 11.938 34.372 6.065m-34.371-6.065c2.081-1.417 4.21-2.383 6.342-2.982m-6.342 2.982-2.182 7.518m36.553-1.453c-1.249-1.218-2.908-2.594-4.873-3.921m4.873 3.921-2.353 8.781m-34.2-7.328c8.595 5.066 26.817 11.237 34.2 7.328m-34.2-7.328-8.582 19.708-1.677 16.215 10.259 28.236 2.182 17.612 10.763 7.269c5.405 1.305 16.719 2.796 18.735-1.677l4.873-34.946-2.353-25.72v-19.369M7.111 171.425c7.413 2.796 24.11 7.716 31.59 5.032m-31.59 14.258c7.082 4.846 23.93 13.922 34.666 11.462m-25.44 14.258c5.122 1.677 16.766 4.529 22.364 2.516" stroke="#000"/></svg>