<svg width="37" height="37" viewBox="0 0 37 37" fill="none" xmlns="http://www.w3.org/2000/svg">
<circle cx="18.5" cy="18.4557" r="18" fill="#FF8800"/>
<path fill-rule="evenodd" clip-rule="evenodd" d="M18.5186 9.44362C21.0411 9.45051 23.0658 11.5138 23.0528 14.0642C23.0401 16.5557 20.9823 18.575 18.464 18.5666C15.9715 18.5581 13.9272 16.4916 13.9421 13.995C13.9561 11.4712 16.0014 9.43673 18.5186 9.44362ZM23.6276 20.3588C23.0699 20.9314 22.3984 21.3458 21.6528 21.6349C20.948 21.9081 20.1756 22.0456 19.4109 22.1373L19.4918 22.2254C19.5569 22.2965 19.6002 22.3438 19.6531 22.3967C20.0497 22.7954 20.447 23.1934 20.8444 23.5913L20.8448 23.5917C21.4868 24.2348 22.1288 24.8778 22.7675 25.5239C23.12 25.8805 23.1934 26.3225 22.9994 26.7366C22.7877 27.1897 22.3126 27.4876 21.8465 27.4555C21.5513 27.4351 21.3211 27.2886 21.1168 27.0827C20.8627 26.8271 20.607 26.5729 20.3514 26.3188C19.819 25.7895 19.2867 25.2603 18.7686 24.7178C18.5447 24.4841 18.4377 24.5287 18.2403 24.7316C17.4525 25.543 16.6518 26.3413 15.8465 27.1354C15.4848 27.4921 15.0545 27.5567 14.6348 27.3527C14.1889 27.137 13.9053 26.6815 13.9271 26.2234C13.9424 25.9144 14.0945 25.6776 14.307 25.4661C15.1878 24.5872 16.0662 23.706 16.9444 22.8249L17.3828 22.385C17.4266 22.3413 17.4683 22.2957 17.5188 22.2406C17.5468 22.21 17.5775 22.1765 17.6128 22.1386C16.2156 21.9926 14.9557 21.6487 13.877 20.8053C13.8515 20.7854 13.8259 20.7656 13.8003 20.7458L13.8003 20.7458C13.6911 20.6613 13.5817 20.5768 13.483 20.4815C13.0105 20.0281 12.9631 19.5085 13.3365 18.9738C13.6563 18.5159 14.1926 18.3935 14.7503 18.6566C14.8584 18.7073 14.9613 18.7714 15.0598 18.8392C17.0699 20.2205 19.8314 20.2584 21.8494 18.9009C22.0492 18.7483 22.263 18.6227 22.5108 18.5594C22.992 18.4354 23.4414 18.6127 23.6994 19.034C23.9949 19.5154 23.9914 19.9849 23.6276 20.3588ZM16.3769 14.1324C16.3769 12.9599 17.3274 12.0093 18.5 12.0093C19.6726 12.0093 20.6231 12.9599 20.6231 14.1324C20.6231 15.3049 19.6726 16.2555 18.5 16.2555C17.3274 16.2555 16.3769 15.3049 16.3769 14.1324Z" fill="#FEFEFE"/>
</svg>
