<svg width="61" height="45" viewBox="0 0 61 45" fill="none" xmlns="http://www.w3.org/2000/svg">
<path d="M9.13272 10.3992H0V19.5867H9.13272V10.3992Z" fill="#FF3495"/>
<path d="M20.7203 34.9947V29.9627C20.7203 29.9521 20.7203 29.9416 20.7203 29.9311V19.5867H29.8531V10.3992H20.7203V0H11.5328V29.9311C11.5328 37.7868 17.9241 44.178 25.7798 44.178H33.311V34.9947H20.7225H20.7203Z" fill="#1D1D1B"/>
<path d="M60.2815 34.9927H35.707V44.1802H60.2815V34.9927Z" fill="#1D1D1B"/>
<path d="M60.9979 19.5846C60.9979 11.6657 54.5561 5.22388 46.6371 5.22388C38.7182 5.22388 32.2764 11.6657 32.2764 19.5846H41.4639C41.4639 16.7314 43.786 14.4093 46.6392 14.4093C49.4924 14.4093 51.8146 16.7314 51.8146 19.5846C51.8146 22.4378 49.4924 24.76 46.6392 24.76H35.7111V33.9475H42.979L47.4063 33.9264C54.9691 33.526 61 27.2486 61 19.5867L60.9979 19.5846Z" fill="#1D1D1B"/>
</svg>
